<?xml version="1.0" encoding="UTF-8"?>
<svg id="Warstwa_1" xmlns="http://www.w3.org/2000/svg" version="1.1" viewBox="0 0 694.6 800">
  <!-- Generator: Adobe Illustrator 30.2.1, SVG Export Plug-In . SVG Version: 2.1.1 Build 1)  -->
  <defs>
    <style>
      .st0 {
        fill: #ffcc4d;
      }

      .st1 {
        fill: #f4900c;
      }

      .st2 {
        fill: #dd2e44;
      }
    </style>
  </defs>
  <path class="st1" d="M694.6,368.11l-2.04,35.73-.91,18.09c-.44,5.89-2.04,11.76-3.16,17.64l-6.33,35.51c-3.4,11.53-7.24,22.84-11.09,34.38-16.51,45-39.8,89.53-72.13,126.62-32.25,37.69-69.71,70.58-111.24,97.69-42.29,27.13-85.93,48.16-136.13,63.53l-8.56,2.69-9.49-3.16c-33.91-11.09-62.18-24.42-91.13-40.71-28.27-16.04-55.62-34.13-80.27-56.09l-18.56-16.27-17.42-17.64c-11.76-11.53-21.93-24.64-32.33-37.53-20.08-26.4-37.22-54.91-51.11-85.02-13.58-30.07-24.64-61.51-31.2-93.62-1.58-8.13-4.07-16.04-4.98-24.2l-2.93-24.2c-1.58-16.29-4.29-31.89-3.4-50.64,1.36-35.96,12.44-70.56,29.18-100.18,16.8-29.02,38.18-55.13,63.31-77.33l76.89-67.84-37.09,92.76c-12.67,31.89-18.78,69.64-4.29,93.38,7,11.76,19.67,18.09,35.27,18.31,16.29,0,32.78-4.51,41.6-15.38,9.04-10.62,9.73-27.36,4.07-43.42-7.24-16.73-14.02-39.33-13.11-59.91,0-21.02,6.11-42.07,16.73-60.38,10.84-18.31,26.44-33.24,44.09-44.31l22.84-14.24-6.33,26.44c-6.56,27.13-1.8,55.62,16.29,73.04,17.87,17.42,46.13,23.51,68.96,17.64,22.84-6.11,38.22-24.64,39.11-45,1.8-21.02-9.27-44.78-23.51-66.71L323.55,0l86.38,36.18c24.2,9.96,48.16,21.24,70.78,37.09,22.38,15.82,44.53,35.73,59.69,61.96,15.82,25.78,22.38,57.42,21.71,85.24,0,7-.44,13.8-.91,20.58-.91,6.78-1.13,12.22-2.71,20.8-2.71,15.16-6.78,26.44-10.18,37.98-7,22.16-11.53,45-6.56,56.98,2.93,11.31,28.71,20.13,47.71,17.64,20.36-2.04,39.33-16.29,52.69-35.04,13.33-19,20.36-42.73,23.98-66.24l2.93-18.53,6.56,16.96c12.2,30.73,19.2,63.53,18.98,96.53h0Z"/>
  <path class="st0" d="M683.86,366.73c-.02-32.51,1.51-49.38-11.27-78.22-8.73,84.98-71.73,114.31-128.71,94-53.38-19.04-17.4-93.29-14.76-128.73,4.49-60.07-.22-128.8-131.53-185.98,54.56,86.73,6.31,140.6-44.29,143.89-56.13,3.64-107.56-40.09-88.58-111.04-61.44,37.62-63.24,100.96-44.29,141.91,19.78,42.69-.8,78.18-49.02,82.11-53.91,4.42-83.84-47.96-56.24-131.4-47.8,46.76-81.69,107.49-76.64,173.44,23.02,300.73,305.22,387.29,305.22,387.29,0,0,340.42-83.49,340.11-387.27Z"/>
  <path class="st2" d="M634.73,433.09c0-88.77-71.96-160.74-160.73-160.76-51.85,0-100.51,25.05-130.62,67.27-30.11-42.21-78.76-67.26-130.6-67.27-88.78,0-160.76,71.97-160.76,160.76,0,12.58,1.6,24.76,4.33,36.51,22.31,138.67,176.51,284.98,287,325.16,110.49-40.18,264.69-186.47,286.98-325.13,2.89-11.96,4.37-24.23,4.4-36.53h0Z"/>
  <path class="st0" d="M487.55,701.18s31.69-61.53,29.31-125.44c-.84-22.76-7.27-44.87-16.36-65.73-21.29-48.8-62.36-171.24,25.49-236.91,0,0-16.78,28.2-1.89,79.58,5.89,20.33,16.91,38.69,30,55.33,30.22,38.49,93.76,144.47-10.76,243.29l-55.8,49.89h0ZM317.35,784.02s-35.13-33.67-53.8-81.16c-6.64-16.91-9.02-35.11-9.02-53.29-.02-42.47-9.09-145.09-94.27-165.04,0,0,21.27,15.27,26.78,57.58,2.18,16.73-.02,33.69-4.27,50.02-9.8,37.8-21.6,131.31,86.36,170.2l48.22,21.69Z"/>
</svg>