<?xml version="1.0" encoding="UTF-8"?>
<svg id="Layer_1" xmlns="http://www.w3.org/2000/svg" version="1.1" viewBox="0 0 800 800">
  <!-- Generator: Adobe Illustrator 30.2.1, SVG Export Plug-In . SVG Version: 2.1.1 Build 1)  -->
  <defs>
    <style>
      .st0 {
        fill: #7a5411;
      }

      .st1 {
        fill: #ff8b1b;
      }

      .st2 {
        fill: #8b6728;
      }

      .st3 {
        fill: #505975;
      }

      .st4 {
        fill: #fdd349;
      }

      .st5 {
        fill: #9db0b3;
      }
    </style>
  </defs>
  <circle class="st4" cx="332.58" cy="399.03" r="39.43"/>
  <circle class="st1" cx="332.58" cy="399.03" r="14.96"/>
  <circle class="st4" cx="143.74" cy="455.6" r="26.28"/>
  <circle class="st5" cx="534" cy="338.68" r="26.28"/>
  <polygon class="st2" points="12.28 781.15 235.7 584.02 327.7 649.73 537.97 492.02 669.4 531.45 787.68 373.74 787.68 781.15 12.28 781.15"/>
  <g>
    <path class="st0" d="M590.54,597.16h-39.43c-7.26,0-13.14,5.88-13.14,13.14s5.88,13.14,13.14,13.14h39.43c7.26,0,13.14-5.88,13.14-13.14s-5.88-13.14-13.14-13.14Z"/>
    <path class="st0" d="M616.83,623.45h-39.43c-7.26,0-13.14,5.88-13.14,13.14s5.88,13.14,13.14,13.14h39.43c7.26,0,13.14-5.88,13.14-13.14s-5.88-13.14-13.14-13.14Z"/>
    <path class="st0" d="M721.97,676.02h-39.43c-7.26,0-13.14,5.88-13.14,13.14s5.88,13.14,13.14,13.14h39.43c7.26,0,13.14-5.88,13.14-13.14s-5.88-13.14-13.14-13.14Z"/>
    <path class="st0" d="M748.25,702.3h-39.43c-7.26,0-13.14,5.88-13.14,13.14s5.88,13.14,13.14,13.14h39.43c7.26,0,13.14-5.88,13.14-13.14s-5.88-13.14-13.14-13.14Z"/>
    <path class="st0" d="M445.98,662.87h-39.43c-7.26,0-13.14,5.88-13.14,13.14s5.88,13.14,13.14,13.14h39.43c7.26,0,13.14-5.88,13.14-13.14s-5.88-13.14-13.14-13.14Z"/>
    <path class="st0" d="M472.26,689.16h-39.43c-7.26,0-13.14,5.88-13.14,13.14s5.88,13.14,13.14,13.14h39.43c7.26,0,13.14-5.88,13.14-13.14s-5.88-13.14-13.14-13.14Z"/>
    <path class="st0" d="M248.84,689.16h-39.43c-7.26,0-13.14,5.88-13.14,13.14s5.88,13.14,13.14,13.14h39.43c7.26,0,13.14-5.88,13.14-13.14s-5.88-13.14-13.14-13.14Z"/>
    <path class="st0" d="M275.13,715.44h-39.43c-7.26,0-13.14,5.88-13.14,13.14s5.88,13.14,13.14,13.14h39.43c7.26,0,13.14-5.88,13.14-13.14s-5.88-13.14-13.14-13.14Z"/>
  </g>
  <path class="st3" d="M571.49,463.79c68.98-20.67,108.3-93.6,87.63-162.59-10.01-33.42-32.44-60.94-63.15-77.49-30.71-16.55-66.02-20.15-99.44-10.14-8.07,2.42-15.78,5.57-23.09,9.38l-94.72-140.43,21.73-6.51c3.95-1.18,7.04-4.26,8.25-8.2l13.87-45.31c1.99-6.51-1.67-13.4-8.18-15.39-6.5-1.99-13.4,1.67-15.39,8.18l-11.94,39.01-31.42,9.41c-7.84,2.33-11.29,11.91-6.71,18.7l59.92,88.83-214.08,64.13-65.87-78.02,19.77-5.92c6.52-1.95,10.22-8.82,8.27-15.34-1.95-6.52-8.82-10.22-15.34-8.27l-37.85,11.34s-.04.01-.06.02l-20.15,6.04-11.87-6.4c-5.99-3.23-13.46-.99-16.69,5-3.23,5.99-.99,13.46,5,16.69l16.36,8.82c2.85,1.54,6.28,1.89,9.38.96l17.44-5.23,74.81,88.6-16.84,72.53c-17.86-2.43-36.5-1.22-54.87,4.29C37.27,351.16-2.04,424.1,18.63,493.08c16.94,56.53,68.97,93.13,125.17,93.13,12.38,0,24.96-1.78,37.41-5.51,33.42-10.01,60.94-32.44,77.49-63.15,8.84-16.4,13.95-34.13,15.3-52.17l67.64-15.44c2.09-.38,4.25-.8,6.26-1.5,13.02-4.04,23.75-12.84,30.23-24.87,6.56-12.17,7.99-26.16,4.02-39.4-1.37-4.56-3.33-8.83-5.8-12.76l50.1-174.06,26.31,39.01c-13.69,10.87-25.18,24.49-33.73,40.35-16.55,30.71-20.15,66.02-10.14,99.44,10.01,33.42,32.44,60.94,63.15,77.49,19.32,10.41,40.45,15.7,61.79,15.7,12.59,0,25.26-1.84,37.66-5.56ZM400.18,199.57l-44.14,153.35c-11.76-5.99-25.13-7.27-37.83-3.59-.04,0-.08.02-.12.03-.12.03-.23.06-.35.1-2.02.6-3.97,1.34-5.85,2.16l-14.42,5.39-85.36-101.09,188.09-56.35ZM168.05,405.37l11.48-49.45c16.46,5.93,31.35,15.89,43.15,29.03l-54.63,20.42ZM139.73,442.22c7.37-2.2,15.18,1.99,17.39,9.37s-1.99,15.18-9.37,17.38c-7.37,2.22-15.17-1.99-17.38-9.37-2.21-7.38,1.99-15.18,9.37-17.38ZM180.72,444.52c-1.67-5.57-4.5-10.47-8.13-14.55l64.67-24.17c3.23,6.08,5.92,12.55,7.97,19.39,2.03,6.79,3.38,13.68,4.03,20.57l-67.34,15.38c.79-5.4.45-11.05-1.21-16.62ZM268.85,418.12c-2.2-7.36-5.04-14.35-8.36-21l21.31-7.97c-1.56,7.97-1.28,16.41,1.21,24.72,2.44,8.15,6.75,15.41,12.54,21.32l-22.12,5.05c-.89-7.42-2.39-14.82-4.58-22.13ZM197.8,277.18l75.13,88.99-25.83,9.65c-15.94-20.6-37.65-35.83-61.98-44.01l12.68-54.63ZM237.01,505.87c-13.43,24.91-35.75,43.11-62.87,51.23-55.97,16.77-115.14-15.13-131.91-71.1-16.77-55.97,15.13-115.14,71.1-131.91,14.11-4.23,28.42-5.35,42.2-3.79l-15.52,66.87c-2.45.24-4.91.71-7.35,1.44-20.39,6.11-32.01,27.67-25.9,48.06,2.96,9.88,9.59,18.01,18.67,22.9,8.98,4.84,18.79,5.52,28.6,3.21l94.57-21.59c-1.79,11.98-5.66,23.7-11.58,34.68ZM340.57,424.92c-6.7,1.53-13.18,1.64-19.56-1.38-6.93-3.27-12.2-9.4-14.4-16.73-3.94-13.15,2.64-26.96,14.82-32.46,4.02-1.5,8-2.6,12.34-2.41,4.15.18,8.25,1.34,11.88,3.35,6.2,3.42,10.86,9.18,12.89,15.96,4.26,14.25-3.79,29.29-17.97,33.67ZM483.74,431.96c-24.91-13.43-43.11-35.76-51.23-62.87s-5.2-55.76,8.23-80.68c6.62-12.28,15.41-22.92,25.87-31.54l38.18,56.61c-1.8,2.1-3.41,4.39-4.76,6.88-4.89,9.08-5.96,19.52-3,29.4,5.01,16.71,20.39,27.53,37,27.53,3.66,0,7.38-.52,11.06-1.63,20.39-6.11,32.01-27.67,25.9-48.06-5.8-19.36-25.53-30.8-44.96-26.68l-38.69-57.36c23.92-11.67,51.73-14.02,77.2-6.31,21.13,6.4,40.06,19.42,53.53,36.92,7.84,10.19,13.75,21.8,17.44,34.11,16.77,55.97-15.13,115.15-71.1,131.91-27.12,8.12-55.77,5.2-80.68-8.23ZM521.72,332.06c1.77-3.28,4.71-5.68,8.28-6.75,7.28-2.18,15.2,2.09,17.38,9.37,2.21,7.38-1.99,15.18-9.37,17.38-7.38,2.22-15.18-1.99-17.38-9.37-1.07-3.57-.68-7.35,1.08-10.63Z"/>
  <path d="M795.07,363.89c-5.45-4.08-13.17-2.98-17.25,2.46l-113.12,150.83-123.18-36.96c-3.75-1.12-7.81-.4-10.93,1.95l-52.57,39.43c-4.95,3.71-6.37,10.77-3.23,16.11,3.68,6.24,12.21,7.96,18.01,3.61l47.6-35.7,125.46,37.64c4.95,1.49,10.3-.27,13.4-4.41l118.28-157.71c4.08-5.44,2.98-13.16-2.47-17.25Z"/>
  <path d="M435.7,553.33l-108.17,81.13-84.66-60.47c-4.67-3.33-11.02-3-15.31.79L4.13,771.92c-4.7,4.15-5.5,11.4-1.82,16.47,4.21,5.8,12.75,6.75,18.12,2l216.07-190.65,84.03,60.02c4.37,3.12,10.26,3.05,14.55-.17l115.39-86.54c5.37-4.03,6.49-11.88,2.46-17.25-4.02-5.37-11.87-6.49-17.25-2.46Z"/>
</svg>