<?xml version="1.0" encoding="UTF-8"?>
<svg id="contact-book" xmlns="http://www.w3.org/2000/svg" version="1.1" viewBox="0 0 666.67 666.67">
  <!-- Generator: Adobe Illustrator 30.2.1, SVG Export Plug-In . SVG Version: 2.1.1 Build 1)  -->
  <defs>
    <style>
      .st0 {
        fill: none;
        stroke: #000;
        stroke-linecap: round;
        stroke-linejoin: round;
        stroke-width: 66.67px;
      }

      .st1 {
        fill: #fff;
      }

      .st2 {
        fill: #2ca9bc;
      }
    </style>
  </defs>
  <rect class="st1" x="154.33" y="160.22" width="302" height="366"/>
  <path id="secondary" class="st2" d="M533.33,33.33H66.67c-18.41,0-33.33,14.92-33.33,33.33v533.33c0,18.41,14.92,33.33,33.33,33.33h466.67c18.41,0,33.33-14.92,33.33-33.33V66.67c0-18.41-14.92-33.33-33.33-33.33ZM400,466.67h-200v-33.33c0-55.23,44.77-100,100-100-36.82,0-66.67-29.85-66.67-66.67s29.85-66.67,66.67-66.67,66.67,29.85,66.67,66.67-29.85,66.67-66.67,66.67c55.23,0,100,44.77,100,100v33.33Z"/>
  <path id="primary" class="st0" d="M633.33,233.33h-66.67v-66.67h66.67v66.67ZM633.33,366.67h-66.67v66.67h66.67v-66.67ZM300,200c-36.82,0-66.67,29.85-66.67,66.67s29.85,66.67,66.67,66.67,66.67-29.85,66.67-66.67-29.85-66.67-66.67-66.67ZM400,433.33c0-55.23-44.77-100-100-100h0c-55.23,0-100,44.77-100,100v33.33h200v-33.33ZM566.67,600V66.67c0-18.41-14.92-33.33-33.33-33.33H66.67c-18.41,0-33.33,14.92-33.33,33.33v533.33c0,18.41,14.92,33.33,33.33,33.33h466.67c18.41,0,33.33-14.92,33.33-33.33Z"/>
</svg>