<?xml version="1.0" encoding="UTF-8"?>
<svg id="Warstwa_1" xmlns="http://www.w3.org/2000/svg" version="1.1" viewBox="0 0 464.8 441.9">
  <!-- Generator: Adobe Illustrator 30.2.1, SVG Export Plug-In . SVG Version: 2.1.1 Build 1)  -->
  <defs>
    <style>
      .st0 {
        fill: #95cbeb;
      }

      .st1 {
        fill: #211715;
      }

      .st2 {
        fill: #fff;
      }
    </style>
  </defs>
  <path class="st0" d="M314.21,428.8c-4.33-5.28-8.34-10.82-11.99-16.59-.93-1.6-1.7-3.28-2.28-5.04-.56-1.79-.89-3.64-.99-5.51,0-16.06.08-25.37.08-36.68,15.69,0,58.53-.17,62.99-.17,3.43-3.6,25.63-28.79,34.44-39.63l8.81-10.85,7.37-6.83c15.62-14.47,30.69-29.51,45.21-45.11,0-25.46-1.71-83.4-1.71-104.66v-14.55l-7.47-10.39c-10.03-13.97-35.05-48.77-45.26-62.99l-6.38-8.91-14.44-7.55c-11.31-5.91-65.65-35.14-74.04-39.57l-11.99-6.31-14.49,1.5c-29.08,3-156.22,17-178.09,19.54l-11.42,1.33-11.57,11.34c-19.78,19.37-40.75,40.58-59.81,59.81l-11.52,11.62-.4,9.91c-.34,8.39-1.29,37.03-1.71,49.71l-.55,16.35,6.1,10.45,32.31,55.31c.4.82.98,1.54,1.7,2.11,1.1.48,2.28.73,3.48.72,19.39,3.3,30.28,5.1,51.47,6.95,6.26,10.92,12.53,21.85,18.79,32.77.55,1.09,1.26,2.09,2.1,2.97,1.69,1.37,3.71,2.27,5.86,2.61,27.41,6.67,63.8,15.55,85.55,18.98,5.55,12.06,26.9,57.49,32.83,71.31,2.7,10.87,7.61,31.74,10.01,43.74"/>
  <path class="st2" d="M182.23,92.06c0,35.23.1,81.06.09,114.53,27.58-.25,81.91-.39,114.81-.52,0-33.27-.22-78.95-.2-114.32-4.08,0-88.14.09-114.7.31h0Z"/>
  <path class="st1" d="M1.71,120.74c-.67,16.56-1.15,33.14-1.71,49.71,0,3.97,3.23,7.19,7.2,7.19s7.19-3.22,7.19-7.19c.56-16.57,1.04-33.14,1.71-49.71,0-3.97-3.22-7.2-7.19-7.2s-7.2,3.22-7.2,7.19h0Z"/>
  <path class="st1" d="M6.53,200.88c10.52,18.01,20.98,36.06,31.56,54.03,2.06,4.27,6.22,7.14,10.94,7.56,4.34.65,8.66,1.46,13,2.16,8.72,1.41,17.48,2.63,26.26,3.6,3.96-.02,7.17-3.23,7.19-7.19-.09-3.94-3.26-7.11-7.19-7.19-6.31-.7-12.61-1.54-18.88-2.52-3.26-.51-6.52-1.04-9.78-1.59-3.71-.29-7.38-.96-10.96-1.99l3.17,1.85c-1.41-1.79-2.62-3.74-3.58-5.8l-3.76-6.43-8.64-14.79-16.91-28.95c-4.67-7.99-17.11-.76-12.43,7.26h.01Z"/>
  <path class="st1" d="M99.67,273.25c4.87,8.5,9.59,17.09,14.62,25.5,2.08,3.82,5.52,6.73,9.64,8.13,3.8,1.32,7.89,2.04,11.79,3,17.15,4.16,34.3,8.29,51.56,11.99,9.03,1.94,12.89-11.93,3.82-13.87-15.97-3.43-31.87-7.22-47.75-11.06l-11.19-2.72c-1.44-.16-2.86-.53-4.2-1.09-1.03-1-1.83-2.2-2.37-3.53l-13.52-23.59c-4.6-8.03-17.04-.79-12.43,7.26h0l.03-.02Z"/>
  <path class="st1" d="M208.91,325.69c6.33,13.67,12.72,27.31,19.05,40.98,3.15,6.81,6.29,13.62,9.37,20.46.6,1.33,1.2,2.66,1.8,4,.24.53.47,1.07.71,1.6.14.33.6,1.76.45,1.18.65,2.64,1.83,7.96,2.7,11.59,2.45,10.34,4.86,20.71,6.96,31.13,1.09,3.81,5.02,6.04,8.85,5.03,3.78-1.12,6-5.03,5.02-8.85-1.88-9.33-4.01-18.61-6.19-27.88-1.45-7.5-3.61-14.84-6.45-21.93-6.46-14.52-13.22-28.91-19.93-43.32-3.3-7.09-6.59-14.17-9.89-21.26-2.03-3.4-6.41-4.55-9.84-2.58-3.36,2.06-4.49,6.4-2.58,9.84h-.03Z"/>
  <path class="st1" d="M417.38,310.82c11.1-10.3,21.93-20.88,32.49-31.74,2.64-2.72,5.26-5.45,7.86-8.2,2.81-2.97,6.67-5.92,6.96-10.27.28-4.12-.04-8.39-.09-12.51-.26-21.21-.81-42.43-1.22-63.64-.19-9.5-.39-19-.4-28.5,0-9.26-14.39-9.27-14.39,0,.02,34.89,1.7,69.77,1.71,104.66l2.1-5.1c-14.52,15.59-29.59,30.63-45.21,45.11-6.8,6.31,3.39,16.49,10.17,10.19h.02Z"/>
  <path class="st1" d="M103.64,33.92c20.44-2.37,40.91-4.59,61.36-6.85,28.49-3.15,56.99-6.27,85.49-9.36,10.41-1.13,20.82-2.26,31.24-3.33,3.93-.11,7.09-3.27,7.19-7.19-.03-3.96-3.23-7.17-7.19-7.19-22.18,2.28-44.34,4.75-66.5,7.17-28.02,3.07-56.04,6.16-84.05,9.27-9.18,1.03-18.35,2.04-27.53,3.1-3.92.11-7.08,3.27-7.19,7.19.02,3.96,3.23,7.17,7.19,7.19h0Z"/>
  <path class="st1" d="M401.2,318.32c-2.82-2.78-7.35-2.78-10.17,0-10.42,12.78-21.21,25.47-32.48,37.54-19.94.02-39.9.16-59.85.16-2.21,0-3.89.83-5.05,2.08-1.28,1.16-2.13,2.86-2.13,5.1h-.03c0,11.6-.08,23.21-.08,34.81,0,13.37,9.26,24.28,17.39,34.1,2.82,2.79,7.37,2.79,10.19,0,2.72-2.85,2.72-7.33,0-10.17-3.82-4.66-7.34-9.56-10.55-14.66-1.14-1.75-1.96-3.69-2.4-5.73-.09-.4-.16-.8-.22-1.21.01-.03.01-.2.01-.46v-5.43c0-8.02.04-16.04.06-24.06,14.59-.02,29.18-.08,43.77-.13,5.44-.02,13.53,1.39,17.66-2.74,4.96-4.95,9.41-10.52,14.02-15.79,6.71-7.66,13.42-15.34,19.86-23.24,2.7-2.85,2.7-7.32,0-10.17Z"/>
  <path class="st1" d="M304.57,18.22c24.75,13.06,49.25,26.59,74.04,39.57,8.2,4.29,15.48-8.12,7.26-12.42-24.8-12.98-49.3-26.51-74.04-39.57-8.18-4.32-15.46,8.09-7.26,12.42h0Z"/>
  <path class="st1" d="M396.86,71.66c15.06,21.01,30.15,42.01,45.26,62.99,2.07,3.34,6.4,4.47,9.84,2.58,3.4-2.02,4.55-6.41,2.58-9.84-15.08-21.01-30.17-42-45.26-63-2.08-3.34-6.4-4.47-9.84-2.58-3.4,2.03-4.55,6.41-2.58,9.84h0Z"/>
  <path class="st1" d="M420.47,231.4h-40.65c-2.05-2.67-5.25-4.42-8.88-4.47h-.4c-6.29-.13-11.49,4.87-11.62,11.16v.39c-.31,6.18,4.44,11.44,10.62,11.76.33.02.66.02,1,0,3.84.19,7.31-1.6,9.45-4.46h40.48c3.97,0,7.19-3.22,7.19-7.19s-3.22-7.19-7.19-7.19Z"/>
  <path class="st1" d="M323.23,324.12v-51.6c0-3.97-3.22-7.19-7.19-7.19s-7.19,3.22-7.19,7.19h0v51.6c0,3.97,3.22,7.19,7.19,7.19s7.19-3.22,7.19-7.19Z"/>
  <path class="st1" d="M353.4,324.12v-51.6c0-3.97-3.22-7.19-7.19-7.19s-7.19,3.22-7.19,7.19h0v51.6c0,3.97,3.22,7.19,7.19,7.19s7.19-3.22,7.19-7.19Z"/>
  <path class="st1" d="M293.05,324.12v-51.6c0-3.97-3.22-7.19-7.19-7.19s-7.19,3.22-7.19,7.19h0v51.6c0,3.97,3.22,7.19,7.19,7.19s7.19-3.22,7.19-7.19Z"/>
  <path class="st1" d="M393.12,82.07c-2.79-2.83-7.34-2.87-10.17-.08l-.08.08-21.8,21.8c-.9.91-1.5,2-1.81,3.15-.22.7-.35,1.44-.35,2.21v38.09c0,3.97,3.22,7.19,7.19,7.19s7.19-3.22,7.19-7.19v-35.33l19.75-19.75c2.83-2.79,2.87-7.34.08-10.17Z"/>
  <path class="st1" d="M383.14,179.63l18.67-18.67c2.83-2.79,2.87-7.34.08-10.17s-7.34-2.87-10.17-.08c-.03.03-.06.06-.08.08l-18.67,18.67c-2.79,2.83-2.75,7.39.08,10.17,2.8,2.75,7.29,2.75,10.09,0h0Z"/>
  <path class="st1" d="M25.92,104.29c19.85-20.02,39.66-40.08,59.81-59.81,6.63-6.49-3.55-16.66-10.17-10.17-20.15,19.72-39.96,39.79-59.81,59.81-6.53,6.59,3.65,16.76,10.18,10.17h-.01Z"/>
  <g>
    <polygon class="st1" points="77.99 159.67 77.99 159.67 78 159.68 77.99 159.67"/>
    <path class="st1" d="M80.16,196.4v-31.35c0-.27-.02-.54-.05-.8-.13-1.63-.8-3.22-2.04-4.48-.03-.03-.06-.06-.08-.08v-.02l-19.32-19.32c-2.81-2.81-7.37-2.81-10.18,0s-2.81,7.37,0,10.18l17.29,17.29v28.32c-2.57,1.97-4.25,5.05-4.3,8.54v.39h.01c-.12,6.06,4.69,11.06,10.75,11.19h.37c5.95.3,11.02-4.28,11.32-10.24.02-.32.02-.63,0-.95.17-3.45-1.32-6.59-3.77-8.67Z"/>
  </g>
  <path class="st1" d="M110.31,71.5c-.4-.02-.8-.02-1.19,0-6.05-.09-11.03,4.74-11.12,10.8v.38c-.07,3.51,1.52,6.65,4.04,8.71v42.5c0,3.97,3.22,7.19,7.19,7.19s7.19-3.22,7.19-7.19v-42.4c2.31-1.86,3.86-4.65,4.02-7.85.02-.32.02-.64,0-.95.29-5.89-4.24-10.9-10.13-11.19Z"/>
  <g>
    <path class="st1" d="M206.05,118.7c0,19.12.05,42.77.05,61.08,0,1.64,1.32,2.97,2.96,2.97h.04c15.94-.13,43-.2,61.22-.27,1.64,0,2.97-1.32,2.98-2.96v-.02c0-18.2-.11-41.79-.12-60.97,0-1.64-1.32-2.97-2.95-2.98h-.03c-10.56,0-45.58.06-61.2.15-1.64,0-2.96,1.34-2.96,2.98v.02Z"/>
    <path class="st1" d="M331.92,157.97c4.14,0,7.5-3.36,7.5-7.5s-3.36-7.5-7.5-7.5h-27.73c-.02-6.64-.03-13.28-.05-19.92h27.78c4.14,0,7.5-3.36,7.5-7.5s-3.36-7.5-7.5-7.5h-27.8c0-5.43-.02-10.87-.02-16.3-.06-3.95-3.24-7.14-7.19-7.19-4.94,0-9.88.01-14.83.01v-26.92c0-4.14-3.36-7.5-7.5-7.5s-7.5,3.36-7.5,7.5v26.94c-6.64,0-13.28.01-19.92.03v-26.97c0-4.14-3.36-7.5-7.5-7.5s-7.5,3.36-7.5,7.5v27.01c-6.64.02-13.28.03-19.92.06v-27.07c0-4.14-3.36-7.5-7.5-7.5s-7.5,3.36-7.5,7.5v27.13c-5.02.02-10.03.04-15.05.07-2.12.02-3.76.79-4.91,1.97-1.36,1.16-2.26,2.9-2.26,5.22h0c0,5.34.01,10.67.01,16h-27.61c-4.14,0-7.5,3.36-7.5,7.5s3.36,7.5,7.5,7.5h27.62c0,6.64,0,13.28.02,19.92h-27.64c-4.14,0-7.5,3.36-7.5,7.5s3.36,7.5,7.5,7.5h27.65c0,6.64,0,13.28.01,19.92h-27.66c-4.14,0-7.5,3.36-7.5,7.5s3.36,7.5,7.5,7.5h27.67c0,4.56.01,9.13,0,13.69.05,3.95,3.24,7.14,7.19,7.19,4.55-.04,9.09-.07,13.64-.1v26.7c0,4.14,3.36,7.5,7.5,7.5s7.5-3.36,7.5-7.5v-26.81c6.64-.04,13.28-.06,19.92-.09v26.89c0,4.14,3.36,7.5,7.5,7.5s7.5-3.36,7.5-7.5v-26.95c6.64-.02,13.28-.04,19.92-.06v27.02c0,4.14,3.36,7.5,7.5,7.5s7.5-3.36,7.5-7.5v-27.06c5.44-.02,10.88-.03,16.32-.05,3.95-.06,7.14-3.24,7.19-7.19,0-4.39-.01-8.78-.02-13.17h27.63c4.14,0,7.5-3.36,7.5-7.5s-3.36-7.5-7.5-7.5h-27.65c-.01-6.64-.03-13.28-.05-19.92h27.69ZM289.74,98.95c.02,33.32.16,66.63.18,99.94-33.48.11-66.96.17-100.43.44-.01-33.38-.08-66.75-.08-100.13,31.58-.21,63.17-.21,94.75-.26h5.57Z"/>
  </g>
</svg>