<?xml version="1.0" encoding="UTF-8"?>
<svg id="Warstwa_1" xmlns="http://www.w3.org/2000/svg" version="1.1" viewBox="0 0 708.65 798.52">
  <!-- Generator: Adobe Illustrator 30.2.1, SVG Export Plug-In . SVG Version: 2.1.1 Build 1)  -->
  <defs>
    <style>
      .st0 {
        fill: #539e43;
      }
    </style>
  </defs>
  <path class="st0" d="M354.33,798.52c-11,0-21.27-2.93-30.81-8.07l-97.57-57.95c-14.67-8.07-7.34-11-2.93-12.47,19.81-6.6,23.47-8.07,44.02-19.81,2.2-1.47,5.14-.73,7.34.73l74.83,44.75c2.93,1.47,6.6,1.47,8.8,0l292.7-169.46c2.93-1.47,4.4-4.4,4.4-8.07V229.98c0-3.67-1.47-6.6-4.4-8.07L357.99,53.19c-2.93-1.47-6.6-1.47-8.8,0L56.49,221.91c-2.93,1.47-4.4,5.14-4.4,8.07v338.19c0,2.93,1.47,6.6,4.4,8.07l79.96,46.22c43.28,22.01,70.42-3.67,70.42-29.34v-333.78c0-4.4,3.67-8.8,8.8-8.8h37.41c4.4,0,8.8,3.67,8.8,8.8v333.78c0,57.95-31.54,91.7-86.56,91.7-16.87,0-30.08,0-67.49-18.34l-77.03-44.02c-19.07-11-30.81-31.54-30.81-53.55V230.71c0-22.01,11.74-42.55,30.81-53.55L323.51,7.7c18.34-10.27,43.28-10.27,61.62,0l292.7,169.46c19.07,11,30.81,31.54,30.81,53.55v338.19c0,22.01-11.74,42.55-30.81,53.55l-292.7,169.46c-9.54,4.4-20.54,6.6-30.81,6.6h0ZM444.56,565.97c-128.38,0-154.79-58.69-154.79-108.57,0-4.4,3.67-8.8,8.8-8.8h38.15c4.4,0,8.07,2.93,8.07,7.34,5.87,38.88,22.74,57.95,100.5,57.95,61.62,0,88.03-13.94,88.03-46.95,0-19.07-7.34-33.01-103.44-42.55-79.96-8.07-129.85-25.68-129.85-89.5,0-59.42,49.88-94.63,133.51-94.63,93.9,0,140.12,32.28,145.98,102.7,0,2.2-.73,4.4-2.2,6.6-1.47,1.47-3.67,2.93-5.87,2.93h-38.15c-3.67,0-7.34-2.93-8.07-6.6-8.8-40.35-31.54-53.55-91.7-53.55-67.49,0-75.56,23.47-75.56,41.08,0,21.27,9.54,27.88,100.5,39.61,90.23,11.74,132.78,28.61,132.78,91.7-.73,64.56-53.55,101.24-146.72,101.24h0Z"/>
</svg>