<?xml version="1.0" encoding="UTF-8"?>
<svg id="Warstwa_1" xmlns="http://www.w3.org/2000/svg" version="1.1" viewBox="0 0 117.26 104.86">
  <!-- Generator: Adobe Illustrator 30.2.1, SVG Export Plug-In . SVG Version: 2.1.1 Build 1)  -->
  <defs>
    <style>
      .st0 {
        fill: #ffd94c;
      }

      .st0, .st1 {
        fill-rule: evenodd;
      }

      .st1 {
        fill: #ef4658;
      }

      .st2 {
        fill: #092d4b;
      }
    </style>
  </defs>
  <path class="st2" d="M92.75,31.68c1.9-9.23,2.32-16.32,1.08-21.48-.73-3.05-2.08-5.57-4.1-7.36C87.57.94,84.84,0,81.79,0c-5.07,0-10.37,2.29-16.03,6.65-2.32,1.79-4.72,3.93-7.21,6.45-.21-.26-.41-.5-.67-.73-7.03-6.24-12.98-10.14-18.05-11.66-3.02-.88-5.86-.97-8.44-.12-2.73.91-4.89,2.81-6.42,5.45-2.52,4.37-3.19,10.11-2.26,17.2.38,2.9,1.03,6.04,1.96,9.47-.35.03-.7.12-1.05.23-8.94,2.96-15.27,6.15-19.11,9.79-2.29,2.17-3.78,4.57-4.31,7.24-.56,2.81,0,5.63,1.52,8.29,2.52,4.37,7.15,7.82,13.77,10.55,2.64,1.08,5.66,2.08,9,2.99-.15.35-.26.7-.35,1.08-1.9,9.23-2.32,16.32-1.08,21.48.73,3.05,2.08,5.57,4.1,7.36,2.14,1.9,4.86,2.84,7.94,2.84,5.04,0,10.34-2.29,16.03-6.65,2.34-1.79,4.78-3.99,7.3-6.53.26.41.59.79.97,1.11,7.03,6.27,12.98,10.17,18.05,11.66,3.02.88,5.86.97,8.44.12,2.73-.91,4.89-2.81,6.42-5.45,2.52-4.37,3.19-10.11,2.26-17.2-.41-2.99-1.08-6.27-2.08-9.82.38-.03.76-.12,1.14-.23,8.94-2.96,15.27-6.15,19.11-9.79,2.29-2.17,3.78-4.57,4.31-7.24.56-2.81,0-5.63-1.52-8.29-2.52-4.37-7.15-7.82-13.77-10.55-2.73-1.11-5.83-2.14-9.32-3.05.12-.29.23-.62.29-.97h.03Z"/>
  <path class="st0" d="M49.65,33.32h18.02c1.11,0,2.14.59,2.67,1.55l9.03,15.74c.56.94.56,2.11,0,3.08l-9.03,15.74c-.56.97-1.58,1.55-2.67,1.55h-18.02c-1.11,0-2.14-.59-2.67-1.55l-9.03-15.74c-.56-.94-.56-2.11,0-3.08l9.03-15.74c.56-.97,1.58-1.55,2.67-1.55ZM65.41,37.19c1.11,0,2.14.59,2.67,1.55l6.8,11.87c.56.94.56,2.11,0,3.08l-6.8,11.87c-.56.97-1.58,1.55-2.67,1.55h-13.57c-1.11,0-2.14-.59-2.67-1.55l-6.8-11.87c-.56-.94-.56-2.11,0-3.08l6.8-11.87c.56-.97,1.58-1.55,2.67-1.55,0,0,13.57,0,13.57,0ZM63.01,41.44h-8.73c-1.11,0-2.14.59-2.67,1.55h0l-4.37,7.62c-.56.94-.56,2.11,0,3.08h0l4.37,7.62c.56.97,1.58,1.55,2.67,1.55h8.73c1.11,0,2.14-.59,2.67-1.55h0l4.37-7.62c.56-.94.56-2.11,0-3.08h0l-4.37-7.62c-.56-.97-1.58-1.55-2.67-1.55h0ZM60.69,45.49c1.11,0,2.11.59,2.67,1.55l2.05,3.58c.56.97.56,2.14,0,3.08l-2.05,3.58c-.56.97-1.58,1.55-2.67,1.55h-4.1c-1.11,0-2.11-.59-2.67-1.55l-2.05-3.58c-.56-.97-.56-2.14,0-3.08l2.05-3.58c.56-.97,1.58-1.55,2.67-1.55,0,0,4.1,0,4.1,0ZM58.64,49.47c-.97,0-1.85.5-2.32,1.32-.47.82-.47,1.85,0,2.67s1.35,1.32,2.32,1.32h0c.97,0,1.85-.5,2.32-1.32.47-.82.47-1.85,0-2.67s-1.35-1.32-2.32-1.32h0ZM37.05,52.14h4.81"/>
  <path class="st1" d="M33.88,60.69c.82-.47,1.85-.18,2.29.64h0l.29.53c2.34,4.16,4.81,8.12,7.33,11.84,2.99,4.42,6.39,8.88,10.14,13.39.59.7.5,1.76-.18,2.37h0l-.38.32c-12.4,10.84-20.45,13.01-24.18,6.51-3.63-6.36-2.32-17.93,3.96-34.73.15-.38.41-.67.73-.88ZM86.75,73.44c.91-.15,1.76.44,1.93,1.32h0l.09.5c3.08,16.06.91,24.06-6.48,24.06s-16.41-6.83-27.57-20.51c-.23-.29-.38-.67-.38-1.08,0-.94.76-1.67,1.67-1.67h.59c4.69.03,9.26-.15,13.71-.5,5.25-.41,10.73-1.11,16.41-2.14l.03.03ZM90.97,39.36c.32-.88,1.29-1.32,2.2-1.03h0l.5.18c15.94,5.42,22.01,11.4,18.17,17.9-3.75,6.36-14.62,10.99-32.64,13.89-.41.06-.82,0-1.17-.21-.82-.47-1.08-1.52-.62-2.32h0l.32-.53c2.46-4.13,4.69-8.23,6.68-12.34,2.34-4.84,4.54-10.02,6.59-15.56h-.03ZM38.13,34.58c.41-.06.82,0,1.17.21.82.47,1.08,1.52.62,2.32h0l-.32.53c-2.46,4.13-4.69,8.23-6.68,12.34-2.34,4.84-4.54,10.02-6.59,15.56-.32.88-1.29,1.32-2.2,1.03h0l-.5-.18C7.68,60.96,1.62,54.98,5.46,48.47c3.75-6.36,14.62-10.99,32.64-13.89h.03ZM63.92,15.1c12.4-10.84,20.45-13.01,24.18-6.51,3.63,6.36,2.32,17.93-3.96,34.73-.15.38-.41.67-.73.88-.82.47-1.85.18-2.29-.64h0l-.29-.53c-2.34-4.16-4.81-8.12-7.33-11.84-2.99-4.42-6.39-8.88-10.14-13.39-.59-.7-.5-1.76.18-2.37h0s.38-.32.38-.32ZM35.61,4.93c7.21,0,16.41,6.83,27.57,20.51.23.29.38.67.38,1.08,0,.94-.76,1.67-1.67,1.67h-.59c-4.69-.03-9.26.15-13.71.5-5.25.41-10.73,1.11-16.41,2.14-.91.15-1.76-.44-1.93-1.32h0l-.09-.5c-3.08-16.06-.91-24.06,6.48-24.06l-.03-.03Z"/>
</svg>