<?xml version="1.0" encoding="UTF-8"?>
<svg id="Warstwa_1" xmlns="http://www.w3.org/2000/svg" version="1.1" viewBox="0 0 699.25 630.97">
  <!-- Generator: Adobe Illustrator 30.2.1, SVG Export Plug-In . SVG Version: 2.1.1 Build 1)  -->
  <defs>
    <style>
      .st0 {
        fill: #633;
      }

      .st1 {
        fill: #b88d5b;
      }
    </style>
  </defs>
  <path class="st0" d="M699.06,587.06h.16c0,24.22-19.69,43.91-43.91,43.91h-29.92c-11.17,0-21.72-4.84-28.98-13.36-.55-.62-1.02-1.25-1.56-1.95h-21.17c-11.17,0-21.72-4.84-28.98-13.36-7.27-8.52-10.39-19.77-8.59-30.86,2.66-16.87,17.03-29.92,34.14-31.72l-.08-29.84-81.41-102.03-157.03,20.55c0,37.34-.08,115.23-.08,115.23v28.12c0,24.22-19.69,43.91-43.91,43.91h-10.39c-8.05,9.3-19.92,15.23-33.2,15.23h-29.84c-11.17,0-21.72-4.92-28.98-13.36-7.27-8.52-10.39-19.77-8.59-30.86,2.66-16.87,17.03-29.92,34.14-31.72v-129.69c-33.28-14.92-58.91-43.2-71.02-78.98-.08-.31-46.33-148.28-46.33-148.28C41.17,193.55,0,149.56,0,96.13c0-7.81,6.33-14.14,14.14-14.14h66.41l43.67-35.39c.55-5.47,2.03-10.94,4.61-16.33C136.95,12.92,153.91,1.28,172.97.03c4.38-.31,8.59,1.72,11.17,5.31,1.48,2.03,2.81,4.22,3.98,6.48,6.56-2.81,13.67-4.37,20.94-4.37,4.92,0,9.45,2.42,12.03,6.56,10.47,16.56,11.17,37.58,1.72,54.84-.78,1.41-1.56,2.73-2.42,4.06l81.17,101.33s306.41,49.22,307.27,49.38c5.78,1.02,11.41-1.41,14.22-6.09,28.98-48.2,36.41-94.77,36.25-112.58-.08-7.58,5.86-13.83,13.44-14.3,7.5-.39,14.14,5.23,14.84,12.73.39,4.06,9.53,99.45-12.19,155.23-4.3,11.02-6.09,22.11-5.39,33.12.08,1.56.16,131.48.16,131.48l27.97,66.33c.7,1.72,1.09,3.59,1.09,5.47.08,0,0,91.33-.16,92.03h0Z"/>
  <path class="st1" d="M671.09,587.06h-.16c0,8.59-7.03,15.62-15.62,15.62h-29.92c-2.89,0-5.55-1.25-7.42-3.44-1.09-1.33-2.81-4.06-2.19-8.05.7-4.61,5.16-8.13,10.31-8.13l10.23-.16c7.73-.16,13.91-6.41,13.91-14.14v-56.02c-.08-2.89-1.02-5.86-2.89-8.36l-76.56-100.08c0-.08-.08-.08-.08-.16-15.62-19.92-41.02-30.23-66.09-26.95l-232.42,30.47c-7.11.94-12.34,7.03-12.34,14.06,0,25.31-.08,135.55-.08,137.19v28.12c0,8.59-7.03,15.62-15.62,15.62h-29.84c-2.89,0-5.63-1.25-7.42-3.44-1.09-1.33-2.81-4.06-2.19-8.05.7-4.61,5.16-8.13,10.31-8.13l10.23-.16c7.73-.16,13.91-6.41,13.91-14.14v-153.12c0-6.17-3.91-11.41-9.38-13.36-29.84-10.62-52.89-34.61-63.28-65.78-.08-.16-.08-.31-.16-.39l-48.75-156.17c-1.87-5.94-7.34-9.92-13.52-9.92h-1.87c-35.86,0-65.86-25.7-72.42-59.69h55.94c3.28,0,6.41-1.09,8.91-3.12l48.52-39.3h17.03c11.41.63,22.11-6.25,26.25-17.03.39-1.02.62-1.48.62-1.48,3.05-5.62,7.97-9.77,13.75-11.95,1.33,6.02.47,12.42-2.5,17.97-.62,1.09-1.25,2.03-1.87,2.97-6.72,9.14-6.41,21.64.7,30.55l86.02,107.42c2.19,2.73,5.31,4.61,8.83,5.16,0,0,311.8,50.08,312.34,50.16,17.34,2.97,34.38-4.69,43.28-19.45,3.83-6.33,7.27-12.5,10.39-18.59-1.88,12.66-4.69,24.61-8.67,34.84-5.78,14.84-8.2,30-7.27,45.08.08.94.08,132.58.08,132.58,0,1.88.39,3.75,1.09,5.47l27.97,66.33c-.23,0-.16,88.44-.08,89.14h0Z"/>
  <path class="st1" d="M621.95,517.77v37.19c-17.19,1.88-31.48,14.84-34.14,31.72,0,.23-.08.39-.08.62h-13.98c-2.89,0-5.55-1.25-7.42-3.44-1.09-1.33-2.81-4.06-2.19-8.05.7-4.61,5.16-8.13,10.31-8.13l10.23-.16c7.73-.16,13.91-6.41,13.91-14.14l-.08-48.52c0-3.2-1.09-6.25-3.05-8.75l-71.88-90.08c9.61,2.19,18.44,7.58,24.77,15.55l73.59,96.17h0ZM288.12,434.09l15.31-2.03c0,38.75-.08,111.56-.08,111.56v28.12c0,8.52-6.8,15.39-15.31,15.55v-76.56c.08-26.41.08-57.58.08-76.64h0Z"/>
  <path class="st0" d="M251.87,340.34c7.34,2.66,11.17,10.7,8.59,18.13-2.03,5.78-7.5,9.38-13.36,9.38-1.56,0-3.2-.23-4.77-.86-18.98-6.8-33.67-22.19-40.39-42.34l-.08-.16c0-.08-.08-.16-.08-.23l-12.97-41.56c-2.34-7.5,1.8-15.39,9.3-17.73s15.39,1.8,17.73,9.3l12.97,41.48c3.98,11.88,12.34,20.86,23.05,24.61h0Z"/>
  <path class="st1" d="M167.03,27.22l.23.7c-1.95,2.5-3.75,5.16-5.31,7.97-.62,1.09-1.17,2.34-1.72,3.67h-7.5c3.2-5.78,8.28-10.16,14.3-12.34h0Z"/>
  <path class="st0" d="M121.17,100.89c7.73,0,13.98,6.25,13.98,13.98s-6.25,13.98-13.98,13.98-13.98-6.25-13.98-13.98,6.25-13.98,13.98-13.98Z"/>
</svg>