<?xml version="1.0" encoding="UTF-8"?>
<svg id="contact-book" xmlns="http://www.w3.org/2000/svg" version="1.1" viewBox="0 0 666.67 666.67">
  <!-- Generator: Adobe Illustrator 30.2.1, SVG Export Plug-In . SVG Version: 2.1.1 Build 1)  -->
  <defs>
    <style>
      .st0 {
        fill: #4b5c9b;
      }

      .st1 {
        fill: #fff;
      }

      .st2 {
        fill: #2ca9bc;
      }
    </style>
  </defs>
  <rect class="st1" x="154.33" y="160.22" width="302" height="366"/>
  <path id="secondary" class="st2" d="M533.33,33.33H66.67c-18.41,0-33.33,14.92-33.33,33.33v533.33c0,18.41,14.92,33.33,33.33,33.33h466.67c18.41,0,33.33-14.92,33.33-33.33V66.67c0-18.41-14.92-33.33-33.33-33.33h-.01ZM400,466.67h-200v-33.33c0-55.23,44.77-100,100-100-36.82,0-66.67-29.85-66.67-66.67s29.85-66.67,66.67-66.67,66.67,29.85,66.67,66.67-29.85,66.67-66.67,66.67c55.23,0,100,44.77,100,100v33.33h0Z"/>
  <path class="st0" d="M533.34,658.33H66.67c-32.16,0-58.33-26.17-58.33-58.33V66.67c0-32.16,26.17-58.33,58.33-58.33h466.67c32.16,0,58.33,26.17,58.33,58.33v74.99h41.66c13.81,0,25,11.19,25,25v66.67c0,13.81-11.19,25-25,25h-41.66v83.34h41.66c13.81,0,25,11.19,25,25v66.67c0,13.81-11.19,25-25,25h-41.66v141.66c0,32.16-26.17,58.33-58.33,58.33ZM66.67,58.34c-4.59,0-8.33,3.74-8.33,8.33v533.33c0,4.59,3.74,8.33,8.33,8.33h466.67c4.59,0,8.33-3.74,8.33-8.33v-165.95c0-.23,0-.47,0-.71v-66.67c0-.24,0-.47,0-.71v-131.93c0-.23,0-.47,0-.71v-66.67c0-.24,0-.47,0-.71v-99.28c0-4.59-3.74-8.33-8.33-8.33H66.67ZM591.67,408.34h16.66v-16.67h-16.66v16.67ZM591.67,208.33h16.66v-16.67h-16.66v16.67ZM400,491.66h-200c-13.81,0-25-11.19-25-25v-33.33c0-43.97,22.82-82.7,57.23-104.99-14.84-16.29-23.9-37.94-23.9-61.67,0-50.55,41.12-91.67,91.67-91.67s91.67,41.12,91.67,91.67c0,23.72-9.06,45.37-23.9,61.67,34.41,22.29,57.23,61.03,57.23,104.99v33.33c0,13.81-11.19,25-25,25ZM225,441.66h150v-8.33c0-41.04-33.14-74.5-74.07-75-.62,0-1.24,0-1.86,0-40.93.5-74.07,33.95-74.07,75v8.33ZM300,308.33c.27,0,.54,0,.81,0,22.6-.43,40.86-18.96,40.86-41.66s-18.69-41.67-41.67-41.67-41.67,18.69-41.67,41.67,18.26,41.23,40.86,41.66c.27,0,.54,0,.81,0Z"/>
</svg>