<?xml version="1.0" encoding="UTF-8"?>
<svg id="Warstwa_1" xmlns="http://www.w3.org/2000/svg" version="1.1" viewBox="0 0 700 682.5">
  <!-- Generator: Adobe Illustrator 30.2.1, SVG Export Plug-In . SVG Version: 2.1.1 Build 1)  -->
  <defs>
    <style>
      .st0 {
        fill: #0c0824;
      }

      .st1 {
        fill: #31c5f0;
      }
    </style>
  </defs>
  <path class="st0" d="M29.18,29.18h641.65v624.15H29.18V29.18Z"/>
  <path class="st1" d="M29.18,29.18h641.65v624.15H29.18V29.18ZM0,682.5h700V0H0v682.5ZM471.93,280c-23.05,0-30.92,11.68-30.92,21.3,0,10.5,5.25,17.8,36.18,33.82,45.8,22.17,60,43.45,60,74.67,0,46.68-35.58,71.75-83.7,71.75-20.65.77-41.18-3.53-59.8-12.5-2.05-.87-2.33-2.33-2.33-4.68v-42.92c0-2.93,1.45-3.8,3.5-2.33,17.48,11.24,37.84,17.21,58.62,17.2,23.05,0,32.67-9.63,32.67-22.75,0-10.5-6.7-19.82-36.18-35-41.42-19.82-58.62-40-58.62-73.5,0-37.63,29.45-68.83,80.5-68.83,17.77-.76,35.51,2.02,52.2,8.17,1.96,1.27,3.07,3.5,2.93,5.82v40c0,2.33-1.45,3.8-4.37,2.92-15.42-8.88-32.96-13.41-50.75-13.12l.08-.05ZM221.08,314.7c6.7.57,11.95.57,23.62.57,34.12,0,66.2-11.95,66.2-58.33,0-37.05-23.05-55.7-61.83-55.7-11.68,0-22.75.57-28,.87v112.58ZM169.15,159.7c0-2.05,4.08-3.5,6.42-3.5,18.67-.87,46.37-1.45,75.25-1.45,80.8,0,112.3,44.32,112.3,100.92,0,74.08-53.68,105.88-119.57,105.88-11.07,0-14.88-.58-22.75-.58v112c0,2.33-.87,3.5-3.5,3.5h-44.63c-2.33,0-3.5-.87-3.5-3.5V159.83l-.02-.13Z"/>
</svg>