<?xml version="1.0" encoding="UTF-8"?>
<svg id="Warstwa_1" xmlns="http://www.w3.org/2000/svg" version="1.1" viewBox="0 0 800 649.86">
  <!-- Generator: Adobe Illustrator 30.2.1, SVG Export Plug-In . SVG Version: 2.1.1 Build 1)  -->
  <defs>
    <style>
      .st0 {
        fill: #fff;
      }

      .st1 {
        fill: #265787;
      }

      .st2 {
        fill: #ea7600;
      }
    </style>
  </defs>
  <path class="st0" d="M313.84,359.98c2.91-51.89,28.32-97.61,66.65-130.02,37.59-31.83,88.2-51.29,143.41-51.29s105.76,19.46,143.38,51.29c38.31,32.41,63.72,78.13,66.65,129.96,2.91,53.32-18.52,102.85-56.12,139.57-38.34,37.35-92.86,60.78-153.92,60.78s-115.69-23.43-154-60.78c-37.62-36.72-59-86.25-56.06-139.51Z"/>
  <path class="st1" d="M416.15,364.61c1.49-26.63,14.53-50.08,34.2-66.71,19.29-16.33,45.25-26.32,73.58-26.32s54.27,9.98,73.57,26.32c19.66,16.63,32.69,40.09,34.2,66.68,1.49,27.36-9.5,52.77-28.79,71.61-19.67,19.16-47.65,31.19-78.98,31.19s-59.36-12.02-79.02-31.19c-19.3-18.84-30.27-44.25-28.77-71.58Z"/>
  <path class="st2" d="M245.03,419.31c.18,10.44,3.51,30.73,8.51,46.58,10.5,33.54,28.31,64.57,53.08,91.92,25.43,28.11,56.74,50.68,92.9,66.71,38.01,16.83,79.2,25.41,121.98,25.34,42.71-.06,83.9-8.81,121.91-25.77,36.17-16.18,67.45-38.86,92.83-66.98,24.76-27.46,42.54-58.54,53.07-92.08,5.29-16.95,8.64-34.15,9.98-51.4,1.31-17,.76-34.03-1.65-51.05-4.71-33.16-16.18-64.27-33.85-92.64-16.16-26.06-36.98-48.88-61.75-68.08l.06-.04L452.2,9.92c-.23-.17-.41-.35-.65-.51-16.4-12.59-43.97-12.54-62,.07-18.23,12.76-20.32,33.85-4.09,47.16l-.07.07,104.23,84.76-317.7.34h-.42c-26.26.03-51.5,17.26-56.5,39.03-5.14,22.18,12.7,40.58,40,40.68l-.04.1,161.03-.31L28.65,441.87c-.37.27-.76.55-1.1.82-27.11,20.76-35.87,55.27-18.8,77.11,17.33,22.21,54.17,22.25,81.56.13l156.82-128.35s-2.29,17.33-2.1,27.73ZM648.01,477.33c-32.31,32.92-77.55,51.59-126.5,51.69-49.02.08-94.26-18.41-126.57-51.28-15.79-16.02-27.39-34.44-34.54-54.07-7.01-19.29-9.74-39.76-7.93-60.42,1.71-20.19,7.72-39.45,17.31-56.88,9.43-17.13,22.41-32.61,38.44-45.7,31.41-25.6,71.4-39.45,113.22-39.51,41.87-.06,81.83,13.67,113.26,39.18,16,13.04,28.97,28.46,38.39,45.56,9.64,17.41,15.61,36.6,17.38,56.85,1.78,20.63-.95,41.08-7.96,60.38-7.17,19.68-18.72,38.11-34.51,54.2Z"/>
</svg>