<?xml version="1.0" encoding="UTF-8"?>
<svg id="Warstwa_1" xmlns="http://www.w3.org/2000/svg" version="1.1" viewBox="0 0 688.31 799.86">
  <!-- Generator: Adobe Illustrator 30.2.1, SVG Export Plug-In . SVG Version: 2.1.1 Build 1)  -->
  <defs>
    <style>
      .st0 {
        fill: #ffd3b6;
      }

      .st1 {
        fill: #edc0a2;
      }
    </style>
  </defs>
  <path class="st0" d="M681.72,566.41c-10.78-40.31-46.56-75.31-101.56-90.78-41.25-11.56-115.94-27.03-185.31-8.59-42.03,11.09-85.47,37.34-122.03,61.56v-5.16c0-8.91.31-38.59,1.41-56.87.62-19.53,1.25-39.53,2.5-59.38.78-20.16,2.34-40,4.06-59.69,1.25-20,4.53-38.44,6.87-57.03,2.97-17.03,8.44-33.59,14.37-48.91,20,12.66,48.28,21.88,84.06,21.88,47.81,0,70.47-14.69,80-25.47,4.69-5.31,12.81-15.31,5.94-34.22-6.56-17.66-15.94-14.53-15.94-21.25,0-8.91,3.44-8.59,17.19-15.62,31.25-15.78,27.97-42.81,27.81-68.28.16-1.88.16-3.59.16-5.47C501.25,41.88,451.41.31,390.16.31c-1.25,0-2.5,0-3.75.16l-.31-.47c-51.25,0-83.75,15.16-103.28,37.81-.94.62-1.72,1.25-2.66,2.03-2.5,2.5-5.16,5-7.97,7.81-10.47,10.62-26.25,27.66-32.5,38.44-9.06,12.5-18.44,26.41-27.19,40.94-10,14.69-18.44,30.47-28.91,46.88-10.31,16.41-19.22,34.22-30,52.19-19.53,36.41-41.72,75-60.78,115.16-18.91,40.16-37.34,81.09-51.41,121.25-7.03,20.16-13.12,40-18.28,59.22-4.84,19.69-10.16,37.66-12.34,56.09-.31,2.34-.63,4.69-.78,7.03-12.19,77.97-13.44,166.41-2.66,180,12.34,15.78,45.78,20.47,77.34,18.28,21.56-1.41,121.72,16.41,219.53,16.41,5.63.16,11.25.31,17.03.31,74.84.31,157.66-5.16,206.56-26.88,143.13-63.28,176.88-120.31,153.91-206.56Z"/>
  <path class="st1" d="M416.72,678.28c-3.28,0-6.56-.16-10-.31-43.59-2.66-83.44-22.03-112.34-54.69-5.31-5.94-4.84-15.16,1.25-20.47,5.94-5.31,15.16-4.84,20.47,1.25,23.75,26.88,56.56,42.81,92.34,44.84,35.78,2.19,70.31-9.84,97.03-33.59,5.94-5.31,15.16-4.84,20.47,1.25,5.31,5.94,4.84,15.16-1.25,20.47-30,26.72-67.97,41.25-107.97,41.25h0Z"/>
</svg>