<?xml version="1.0" encoding="UTF-8"?>
<svg id="Warstwa_1" xmlns="http://www.w3.org/2000/svg" version="1.1" viewBox="0 0 400 450.13">
  <!-- Generator: Adobe Illustrator 30.2.1, SVG Export Plug-In . SVG Version: 2.1.1 Build 1)  -->
  <defs>
    <style>
      .st0 {
        fill: #659ad2;
      }

      .st1 {
        fill: #fff;
      }

      .st2 {
        fill: #00599c;
      }

      .st3 {
        fill: #004482;
      }
    </style>
  </defs>
  <path class="st2" d="M394.91,337.6c3.14-5.44,5.09-11.56,5.09-17.06v-190.95c0-5.5-1.95-11.63-5.09-17.05l-194.91,112.53,194.91,112.54h0Z"/>
  <path class="st3" d="M217.32,446l165.35-95.46c4.76-2.75,9.1-7.5,12.24-12.94l-194.91-112.54L5.09,337.6c3.14,5.44,7.47,10.19,12.24,12.94l165.35,95.46c9.52,5.5,25.12,5.5,34.65,0h0Z"/>
  <path class="st0" d="M394.91,112.54c-3.14-5.45-7.47-10.19-12.24-12.94L217.32,4.12c-9.53-5.5-25.13-5.5-34.65,0L17.32,99.6C7.8,105.1,0,118.6,0,129.6v190.94c0,5.5,1.95,11.63,5.09,17.06l194.91-112.54,194.91-112.52h0Z"/>
  <path class="st1" d="M200,358.4c-73.52,0-133.34-59.81-133.34-133.34S126.47,91.72,200,91.72c47.44,0,91.69,25.54,115.46,66.62l-57.7,33.4c-11.95-20.6-33.95-33.3-57.76-33.35-36.8.05-66.61,29.87-66.66,66.66.03,36.81,29.86,66.64,66.66,66.69,23.82-.05,45.81-12.76,57.76-33.36l57.7,33.39c-23.9,41.16-67.87,66.52-115.46,66.61h0Z"/>
  <path class="st1" d="M333.34,217.66h-14.84v-14.83h-14.81v14.83h-14.81v14.81h14.81v14.81h14.81v-14.81h14.83v-14.81h.01ZM388.89,217.66h-14.81v-14.83h-14.82v14.83h-14.81v14.81h14.81v14.81h14.81v-14.81h14.81v-14.81h.01Z"/>
</svg>