<?xml version="1.0" encoding="UTF-8"?>
<svg id="Layer_1" xmlns="http://www.w3.org/2000/svg" version="1.1" viewBox="0 0 375.86 456">
  <!-- Generator: Adobe Illustrator 30.2.1, SVG Export Plug-In . SVG Version: 2.1.1 Build 1)  -->
  <defs>
    <style>
      .st0 {
        fill: #ff7d00;
      }

      .st1 {
        fill: #f90;
      }

      .st2 {
        fill: #fff8ef;
      }

      .st3 {
        fill: #42210b;
      }

      .st4 {
        fill: #ee5656;
      }

      .st5 {
        fill: #d9cdc1;
      }
    </style>
  </defs>
  <g>
    <rect class="st4" x="220.31" y="272" width="16" height="8"/>
    <rect class="st4" x="212.31" y="248" width="32" height="8"/>
  </g>
  <path class="st5" d="M329.81,72.9c-29.1-37.4-70.2-59.4-115.6-61.9h-9.9c-30.2,0-59.9,8.6-85.8,24.7-40.2,23.9-67.6,66.3-75.1,116.4-.1.7-.2,1.4-.3,2.1-.7,5.2-1.5,11.1-3.5,17l-27,88,33.6-3c2.6.1,3.4,2,3.7,3l8.2,76.7,3.8,3.8,92.1-12.3c.5-.1,1-.1,1.5-.1,3.7,0,7.9,1.7,11.3,4.6,5.4,4.8,8.6,12.3,8.6,20.2v93h162v-77c0-22.7,2.3-42.1,7.9-66.9l17.6-90.6c9.1-49.3-2.9-99.4-33.1-137.7Z"/>
  <path class="st2" d="M196.31,424v-72c0-13.6-5.6-27.2-16-36-7.2-6.4-15.2-9.6-24.8-9.6h-4.8l-73.6,9.6-6.4-59.2c-.8-12-11.2-21.6-24-21.6h-5.6l18.4-59.2c2.4-7.2,3.2-14.4,4.8-23.2,6.4-43.2,30.4-80,65.6-101.6,22.4-12,48-19.2,74.4-19.2h8.8c40,2.4,75.2,21.6,100,53.6,26.4,34.4,36.8,78.4,28.8,120.8l-17.6,90.4c-5.6,26.4-8,46.4-8,71.2v56h-120Z"/>
  <path class="st1" d="M277.41,70.8c-12.4-12.4-28.8-19.3-46.2-19.3-1.9,0-3.8.1-5.6.2-37,1-67.9,33.3-68.7,72.1v.1c0,19.3,7.2,38,19.7,51.4,13.9,15.4,22,35.1,23.5,57l10-.3v-101h-18v8h-6v-11c0-1.2,1.8-3,3-3h80c1.2,0,3,1.8,3,3v11h-6v-8h-18v101l10,.4c1.6-21.7,10-42,24.4-58.7l.1-.1c11.6-14.2,17.9-31.5,17.9-48.8,0-20.5-8.4-40.1-23.1-54Z"/>
  <path class="st0" d="M275.51,105.6c-2.4-.8-92.8-.8-95.2,0,7.2-18.4,24.8-32,45.6-32.8h2.4c12.8,0,24.8,4.8,34.4,14.4,6.4,4,10.4,11.2,12.8,18.4Z"/>
  <rect class="st1" x="220.31" y="136" width="16" height="96"/>
  <path class="st3" d="M337.91,66.4c32,41.6,44.8,95.2,34.4,146.4l-17.6,90.4c-4.8,24-6.4,42.4-6.4,64.8v80c0,4-3.2,8-8,8h-168c-4,0-8-4-8-8v-96c0-4.8-1.6-9.6-4.8-12-1.6-1.6-3.2-1.6-4-1.6l-89.6,12c-4.8.8-8.8-.8-12.8-3.2-3.2-2.4-5.6-7.2-6.4-11.2l-7.2-67.2-30.4,3.2c-2.4,0-5.6-.8-7.2-3.2-1.6-2.4-2.4-4.8-1.6-7.2l28.8-93.6c1.6-6.4,3.2-12.8,4-18.4,8-52.8,37.6-98.4,80.8-124.8C141.11,8.8,172.31,0,204.31,0h10.4c48.8,3.2,92.8,26.4,123.2,66.4ZM357.11,210.4c9.6-47.2-2.4-96-32-133.6-28-36-68-57.6-112-60h-9.6c-28.8,0-57.6,8-82.4,23.2-39.2,24-66.4,65.6-72.8,112.8-.8,5.6-2.4,12.8-4,20l-24.8,81.6,26.4-2.4c4.8,0,8,2.4,8.8,7.2l8,75.2.8.8,89.6-12c6.4-.8,12,.8,16.8,5.6,6.4,5.6,10.4,14.4,10.4,24v88h152v-72c0-23.2,2.4-43.2,7.2-68l17.6-90.4ZM311.51,124.8c0,20.8-7.2,40.8-20.8,56-14.4,16.8-22.4,37.6-22.4,59.2,0,4-4,8-8,8v16c0,4-4,8-8,8v16c0,4-4,8-8,8h-32c-4,0-8-4-8-8v-16c-4,0-8-4-8-8v-16c-4,0-8-4-8-8,0-22.4-7.2-43.2-20.8-57.6-14.4-16-22.4-36.8-22.4-59.2.8-44,36.8-81.6,80-83.2,22.4-.8,44,7.2,60,23.2,16.8,16,26.4,38.4,26.4,61.6ZM295.51,124.8c0-19.2-7.2-36.8-21.6-50.4-12.8-12.8-30.4-19.2-48.8-18.4-35.2,1.6-64,32-64,67.2,0,17.6,6.4,35.2,18.4,48,14.4,16,23.2,36.8,24.8,60h0v-95.2h-8v8h-16v-16c0-4,4-8,8-8h80c4,0,8,4,8,8v16h-16v-8h-8v96h0c1.6-22.4,10.4-44,25.6-61.6,11.2-12.8,17.6-28.8,17.6-45.6ZM244.31,256v-8h-32v8h32ZM236.31,280v-8h-16v8h16ZM236.31,232v-96h-16v96h16Z"/>
</svg>