<?xml version="1.0" encoding="iso-8859-1"?>
<!-- Uploaded to: SVG Repo, www.svgrepo.com, Generator: SVG Repo Mixer Tools -->
<svg version="1.1" id="Layer_1" xmlns="http://www.w3.org/2000/svg" xmlns:xlink="http://www.w3.org/1999/xlink" 
	 viewBox="0 0 512 512" xml:space="preserve">
<path style="fill:#38ABEC;" d="M380.343,238.237c18.148-13.611,65.132-41.448,94.738-71.053c41.448-41.448,35.971-94.293,0-130.264
	s-88.817-41.448-130.264,0c-29.605,29.605-57.443,76.59-71.053,94.738c-17.553,23.404-118.702,124.553-142.106,142.106
	c-18.148,13.611-65.132,41.448-94.738,71.053c-41.448,41.448-35.971,94.293,0,130.264s88.817,41.448,130.264,0
	c29.605-29.605,57.442-76.59,71.053-94.738C255.79,356.939,356.939,255.79,380.343,238.237z"/>
<path style="fill:#3E92DD;" d="M56.728,364.626c29.605-29.605,76.59-57.442,94.738-71.053
	c23.404-17.553,124.553-118.702,142.106-142.106c13.611-18.148,41.448-65.133,71.053-94.738
	c37.568-37.568,84.499-36.586,119.742-9.286c-2.82-3.64-5.919-7.155-9.286-10.523c-35.971-35.971-88.817-41.448-130.264,0
	c-29.605,29.605-57.442,76.59-71.053,94.738c-17.553,23.404-118.702,124.553-142.107,142.106
	c-18.148,13.611-65.132,41.448-94.738,71.053c-41.448,41.448-35.971,94.293,0,130.264c3.367,3.367,6.883,6.467,10.523,9.286
	C20.144,449.124,19.161,402.194,56.728,364.626z"/>
<path style="fill:#FDD349;" d="M342.784,174.716c0-18.812-15.507-34.001-34.436-33.482c-18.244,0.5-32.554,15.928-32.554,34.178
	v49.545h66.99V174.716z"/>
<g>
	<path style="fill:#FF8B1B;" d="M275.795,224.958v8.374c0,9.249,7.499,16.747,16.747,16.747h33.495
		c9.249,0,16.747-7.499,16.747-16.747v-8.374H275.795z"/>
	<rect x="275.798" y="174.717" style="fill:#FF8B1B;" width="66.99" height="25.121"/>
</g>
<path style="fill:#FDD349;" d="M236.205,281.295c0-18.811-15.507-34.001-34.436-33.482c-18.244,0.5-32.554,15.928-32.554,34.178
	v49.545h66.99V281.295z"/>
<g>
	<path style="fill:#FF8B1B;" d="M169.215,331.538v8.374c0,9.249,7.499,16.747,16.747,16.747h33.495
		c9.249,0,16.747-7.499,16.747-16.747v-8.374H169.215z"/>
	<rect x="169.211" y="281.293" style="fill:#FF8B1B;" width="66.99" height="25.121"/>
</g>
<g>
	<path style="fill:#CED7D9;" d="M384.961,11.681l71.385,172.338c6.669-5.487,13.026-11.128,18.735-16.836
		c2.603-2.603,5.021-5.251,7.258-7.938L419.904,8.515C408.384,7.045,396.582,8.013,384.961,11.681z"/>
	<path style="fill:#CED7D9;" d="M84.427,306.214l73.424,177.26c3.164-2.55,6.28-5.341,9.332-8.394
		c5.443-5.443,10.824-11.475,16.07-17.806l-70.571-170.374C104.259,292.559,94.503,299.088,84.427,306.214z"/>
	<path style="fill:#CED7D9;" d="M57.044,326.845c-7.175,5.844-14.023,11.869-20.125,17.971c-2.127,2.127-4.123,4.285-6.006,6.469
		l63.138,152.426c11.442,1.183,23.133-0.041,34.627-3.928L57.044,326.845z"/>
	<path style="fill:#CED7D9;" d="M357.625,25.84c-4.365,3.233-8.645,6.916-12.809,11.079c-4.385,4.385-8.729,9.156-12.994,14.153
		l71.085,171.616c8.582-5.765,18.299-12.325,28.208-19.426L357.625,25.84z"/>
</g>
<g>
	<path style="fill:#B6C4C6;" d="M419.904,8.515c-11.52-1.47-23.322-0.502-34.942,3.166l9.803,23.667
		c10.874-4.977,22.031-7.458,33.077-7.67L419.904,8.515z"/>
	<path style="fill:#B6C4C6;" d="M112.682,286.901c-8.423,5.659-18.179,12.188-28.255,19.314l10.869,26.241
		c9.679-7.093,19.343-13.716,28.12-19.641L112.682,286.901z"/>
	<path style="fill:#B6C4C6;" d="M68.252,353.9l-11.206-27.054c-7.175,5.844-14.022,11.869-20.125,17.971
		c-2.127,2.127-4.123,4.285-6.006,6.469l12.269,29.619c3.783-5.572,8.285-11.017,13.547-16.278
		C60.338,361.016,64.209,357.434,68.252,353.9z"/>
	<path style="fill:#B6C4C6;" d="M368.779,52.769L357.625,25.84c-4.365,3.233-8.646,6.916-12.809,11.078
		c-4.385,4.385-8.729,9.157-12.994,14.153l12.091,29.189c6.693-8.413,13.651-16.469,20.713-23.531
		C365.998,55.356,367.383,54.04,368.779,52.769z"/>
</g>
<path d="M511.96,99.763c-0.737-24.64-11.863-48.93-31.328-68.395c-19.466-19.465-43.756-30.59-68.395-31.328
	c-26.451-0.782-51.685,10.043-72.973,31.328c-21.953,21.954-42.623,52.73-57.716,75.202c-5.593,8.327-10.422,15.519-14.066,20.377
	c-4.164,5.551-14.185,16.752-28.215,31.54c-2.985,3.145-2.854,8.114,0.291,11.098c3.143,2.985,8.114,2.853,11.098-0.291
	c10.212-10.761,23.599-25.209,29.386-32.925c3.89-5.185,8.825-12.534,14.54-21.043c9.743-14.505,21.871-32.545,35-49.144
	l63.613,153.576c-7.029,4.727-13.101,8.853-17.564,12.2c-23.787,17.84-125.837,119.89-143.677,143.677
	c-3.89,5.185-8.825,12.534-14.54,21.043c-8.995,13.394-20.026,29.804-31.999,45.31l-63.027-152.16
	c5.506-3.722,10.294-7.02,13.977-9.783c14.541-10.906,56.229-51.282,89.896-85.53c3.039-3.092,2.997-8.063-0.095-11.101
	c-3.093-3.039-8.063-2.998-11.101,0.095c-38.148,38.809-76.032,74.911-88.119,83.977c-4.859,3.644-12.051,8.474-20.377,14.066
	c-22.472,15.093-53.248,35.763-75.202,57.717C10.082,360.551-0.751,385.785,0.04,412.237c0.737,24.64,11.863,48.93,31.328,68.395
	c19.466,19.465,43.756,30.591,68.395,31.328c0.902,0.026,1.801,0.04,2.701,0.04c25.466,0,49.71-10.808,70.272-31.368
	c21.953-21.954,42.623-52.73,57.716-75.202c5.593-8.327,10.422-15.519,14.066-20.377c16.888-22.516,118.021-123.649,140.537-140.537
	c4.859-3.644,12.051-8.474,20.377-14.066c22.472-15.093,53.248-35.763,75.202-57.717C501.918,151.449,512.751,126.215,511.96,99.763
	z M133.007,489.722L66.554,329.289c4.731-3.734,9.568-7.381,14.412-10.918l67.325,162.535
	C143.244,484.52,138.135,487.439,133.007,489.722z M28.894,366.923l52.248,126.135c-14.54-4.311-27.851-12.708-38.671-23.528
	C16.715,443.774,4.661,403.921,28.894,366.923z M99.426,496.174L40.061,352.858c0.785-0.832,1.583-1.663,2.41-2.49
	c3.565-3.565,7.413-7.107,11.427-10.608l64.149,154.868c-5.13,1.103-10.238,1.63-15.278,1.63
	C101.65,496.259,100.536,496.225,99.426,496.174z M161.633,469.53c-0.251,0.251-0.503,0.492-0.756,0.74L94.09,309.028
	c5.183-3.606,10.23-7.035,15.012-10.259l65.072,157.097C170.047,460.697,165.856,465.306,161.633,469.53z M484.235,143.313
	L432.994,19.605c13.707,4.478,26.246,12.577,36.535,22.866C494.875,67.816,506.953,106.817,484.235,143.313z M434.551,191.043
	L367.288,28.656c4.398-2.85,8.834-5.194,13.283-7.059l66.278,160.009C442.816,184.816,438.696,187.967,434.551,191.043z
	 M350.366,42.471c1.343-1.343,2.694-2.627,4.052-3.859l67.049,161.87c-5.132,3.61-10.17,7.065-14.985,10.327L340.936,52.562
	C344.054,49.033,347.2,45.638,350.366,42.471z M459.466,171.039L395.671,17.026c6.34-1.205,12.637-1.536,18.808-1.093
	l58.748,141.828c-1.182,1.297-2.415,2.587-3.698,3.871C466.371,164.791,462.984,167.929,459.466,171.039z"/>
<path d="M326.038,257.929c13.563,0,24.598-11.034,24.598-24.598v-58.616c0-11.258-4.444-21.783-12.516-29.636
	c-8.068-7.85-18.716-12.019-29.985-11.694c-21.708,0.595-39.439,18.7-40.155,40.65c-0.019,0.224-0.035,59.295-0.035,59.295
	c0,13.563,11.034,24.598,24.598,24.598H326.038z M283.646,207.686h51.289v9.42h-51.289V207.686z M283.646,182.565h51.289v9.42
	h-51.289V182.565z M308.564,149.081c6.997-0.181,13.603,2.383,18.606,7.253c3.064,2.981,5.281,6.585,6.543,10.532h-48.652
	C288.479,156.8,297.721,149.378,308.564,149.081z M283.646,233.331v-0.523h51.289v0.523c0,4.906-3.991,8.897-8.897,8.897h-33.495
	C287.637,242.228,283.646,238.237,283.646,233.331z"/>
<path d="M201.552,239.966c-21.708,0.596-39.439,18.702-40.154,40.651c-0.019,0.224-0.035,59.294-0.035,59.294
	c0,13.563,11.034,24.598,24.598,24.598h33.495c13.563,0,24.598-11.034,24.598-24.598v-58.616c0-11.259-4.444-21.784-12.516-29.636
	C223.471,243.81,212.824,239.64,201.552,239.966z M177.066,314.268h51.289v9.42h-51.289V314.268z M228.354,298.567h-51.289v-9.42
	h51.289V298.567z M228.354,339.912c0,4.906-3.991,8.897-8.897,8.897h-33.495c-4.906,0-8.897-3.991-8.897-8.897v-0.523h51.289
	V339.912z M227.134,273.446h-48.653c3.418-10.065,12.66-17.487,23.504-17.785c6.987-0.177,13.603,2.383,18.606,7.253
	C223.655,265.894,225.872,269.498,227.134,273.446z"/>
<path d="M41.106,135.946c3.025,3.024,8.077,3.024,11.102,0l22.823-22.823h22.392v22.392l-22.822,22.823
	c-2.858,2.859-3.048,7.579-0.417,10.652c2.935,3.429,8.327,3.642,11.52,0.451l19.569-19.569l19.569,19.569
	c3.194,3.191,8.584,2.979,11.52-0.451c2.63-3.073,2.441-7.794-0.417-10.652l-22.823-22.823v-22.392h22.392l22.822,22.822
	c3.194,3.191,8.584,2.979,11.52-0.451c2.63-3.073,2.441-7.794-0.417-10.652l-19.569-19.569l19.569-19.569
	c3.066-3.067,3.066-8.037,0-11.102c-3.067-3.065-8.037-3.065-11.102,0l-22.822,22.823h-22.392V75.031l22.823-22.823
	c3.066-3.067,3.066-8.037,0-11.102c-3.067-3.065-8.037-3.065-11.102,0l-19.569,19.569L85.703,41.107
	c-3.067-3.065-8.037-3.065-11.102,0c-3.066,3.067-3.066,8.037,0,11.102l22.822,22.823v22.392H75.031L52.209,74.601
	c-3.067-3.065-8.037-3.065-11.102,0c-3.066,3.067-3.066,8.037,0,11.102l19.569,19.569l-19.569,19.569
	C38.04,127.91,38.04,132.88,41.106,135.946z"/>
<path d="M487.641,309.065c-3.067-3.065-8.037-3.065-11.102,0l-14.449,14.449h-5.645v-5.645l14.449-14.449
	c3.066-3.067,3.066-8.037,0-11.102c-3.067-3.065-8.037-3.065-11.102,0l-11.196,11.196l-11.196-11.196
	c-3.067-3.065-8.037-3.065-11.102,0c-3.066,3.067-3.066,8.037,0,11.102l14.449,14.449v5.645h-5.645l-14.449-14.449
	c-3.067-3.065-8.037-3.065-11.102,0c-3.066,3.067-3.066,8.037,0,11.102l11.196,11.196l-11.196,11.196
	c-2.858,2.859-3.048,7.579-0.417,10.652c2.935,3.429,8.327,3.642,11.52,0.451l14.449-14.449h5.645v5.645l-14.449,14.449
	c-2.858,2.859-3.048,7.579-0.417,10.652c2.935,3.429,8.327,3.642,11.52,0.451l11.196-11.196l11.196,11.196
	c3.194,3.191,8.584,2.979,11.52-0.451c2.63-3.073,2.441-7.794-0.417-10.652l-14.449-14.449v-5.645h5.645l14.449,14.449
	c3.194,3.191,8.584,2.979,11.52-0.451c2.63-3.073,2.441-7.794-0.417-10.652l-11.196-11.196l11.196-11.196
	C490.706,317.101,490.706,312.132,487.641,309.065z"/>
<path d="M362.035,426.296c-3.067-3.065-8.037-3.065-11.102,0l-14.449,14.449h-5.645V435.1l14.449-14.449
	c3.066-3.067,3.066-8.037,0-11.102c-3.067-3.065-8.037-3.065-11.102,0l-11.196,11.196l-11.196-11.196
	c-3.067-3.065-8.037-3.065-11.102,0c-3.066,3.067-3.066,8.037,0,11.102L315.14,435.1v5.645h-5.645l-14.449-14.449
	c-3.067-3.065-8.037-3.065-11.102,0c-3.066,3.067-3.066,8.037,0,11.102l11.196,11.196l-11.196,11.196
	c-2.858,2.859-3.048,7.579-0.417,10.652c2.935,3.429,8.327,3.642,11.52,0.451l14.449-14.449h5.645v5.645l-14.449,14.449
	c-2.858,2.859-3.048,7.579-0.417,10.652c2.935,3.429,8.327,3.642,11.52,0.451l11.196-11.196l11.196,11.196
	c3.194,3.191,8.584,2.979,11.52-0.451c2.63-3.073,2.441-7.794-0.417-10.652l-14.449-14.449v-5.645h5.645l14.449,14.449
	c3.194,3.191,8.584,2.979,11.52-0.451c2.63-3.073,2.441-7.794-0.417-10.652l-11.196-11.196l11.196-11.196
	C365.101,434.333,365.101,429.363,362.035,426.296z"/>
</svg>