<?xml version="1.0" encoding="UTF-8"?>
<svg id="Warstwa_1" xmlns="http://www.w3.org/2000/svg" version="1.1" viewBox="0 0 634.44 700.02">
  <!-- Generator: Adobe Illustrator 30.2.1, SVG Export Plug-In . SVG Version: 2.1.1 Build 1)  -->
  <defs>
    <style>
      .st0 {
        fill: #f7e4cd;
      }

      .st1 {
        fill: #fff;
      }

      .st2 {
        fill: #ef3d3a;
      }

      .st3 {
        fill: #81b0c4;
      }

      .st4 {
        fill: none;
      }

      .st5 {
        fill: #dcd9d8;
      }

      .st6 {
        fill: #231f20;
      }

      .st7 {
        fill: #f0d6b7;
      }

      .st8 {
        fill: #49728b;
      }

      .st9 {
        fill: #d33833;
      }

      .st10 {
        fill: #6d6b6d;
      }

      .st11 {
        fill: #1d1919;
      }

      .st12 {
        fill: #335061;
      }
    </style>
  </defs>
  <path class="st4" d="M405.16,579.3c-1.7,0-3.4,0-5-.25,1.63.15,3.3.25,5,.25Z"/>
  <path class="st4" d="M390.31,577.15c3.19.97,6.48,1.61,9.8,1.9-3.32-.29-6.61-.93-9.8-1.9Z"/>
  <path class="st4" d="M419.61,637.75c-.52-3.03-1.07-5.53-1.6-7.75h0c.52,2.23,1.07,4.72,1.6,7.75Z"/>
  <path class="st7" d="M103.24,305.32c1.25-1.11,2.62-2.07,4.1-2.85-1.52.71-2.91,1.67-4.1,2.85Z"/>
  <path class="st7" d="M177.64,406.3c1.5,10.52,6,104.1,69.15,156.25,12.83,2,25.76,3.35,38.72,4.05,7-15,32.8-13.85,49.63-10-21.09-10.77-39.64-25.93-54.4-44.45-19.65-17.16-32.67-40.65-36.8-66.4,33.7,46.75,61.55,87.5,122.83,108.15,46.37,15.55,100.52-7.12,136.15-32.15,13.73-11.91,25.28-26.12,34.12-42,40.4-64.29,59.19-139.8,53.63-215.53,1.14-29.24-3.1-58.44-12.5-86.15-11.32-22.7-49.6-43-72-22.5-.37-2.03-.5-4.09-.4-6.15-3.57,3.35-5.75,5.8-5.75,5.8-1.86-3.8-2.9-7.95-3.05-12.17.66-20.43,17.07-36.84,37.5-37.5-10.66-14.51-23.08-27.64-36.98-39.08-48.75-16.66-101.33-18.59-151.18-5.55-70.32,15.12-127.25,66.57-149.38,135-4.77,18.56-8.01,37.48-9.7,56.58-.78,22.1,10.4,41.37,11.25,65.43-5.98,9.85-24.22,11.07-36.85,10.4-.92-4.68-2.05-9.47-3.4-14.15-9.94-5.54-20.58-9.75-31.63-12.5,20.05,8.2,30.86,30.04,25.22,50.95-9.33-5.33-11.55-28.75-22.5-29.43-15.65-.95-12.8,30.4-12.72,48.75-11.01-16.39-12.81-37.3-4.75-55.33-7.1-3.47-11.1,1.52-15,5.43-5.55,25.9-13.67,46.82,1.55,73,8.81,10.23,21.87,15.78,35.35,15,14.18-1.4,17.65-15.6,33.1-15.45,5.87.93,10.33,5.77,10.77,11.7ZM338.86,454.97l-7.5-1.53s-7.85-27.5-4.08-32.65c2-2.68,13-6.7,28.4.7-.1.02-18.35,3.07-16.83,33.48ZM481.51,488.5c-27.79,9.43-57.94,9.3-85.65-.35-13.04-9.55-23.96-21.7-32.07-35.68-3.88-5-23.18-17.7-.3-17.72h0c17.92,45,79.5,39.8,131.42,38.57-2.39,6.57-7.18,12-13.4,15.2v-.02ZM489.01,448.5c-1.18-8.82-1.18-17.76,0-26.57,26.31-5.14,51.41-15.19,74-29.62h0c-11.49,31.64-40.46,53.61-74.03,56.15l.02.05ZM557.91,246.67c-4.58,1.52-34.25,19.05-31.95-3.05,2.38-13.31,12.47-23.91,25.65-26.92-.22-3.33-.22-6.67,0-10h1.98c8.32,19.79,18.11,38.93,29.3,57.25-7.92,18.45-60,34.75-59.15,1.65,11.25-5,30.67-1,40.65-7.28-2.35-6.42-5-12.5-7.5-18.9l1.02,7.25ZM428.24,365.42c.45.8.83,1.64,1.15,2.5,2.27-12.67,6.48-27.5,13.7-25.33,7.21,2.01,12.27,8.47,12.5,15.95-8.42,5.45-16.35,11.62-23.7,18.45,1.63,7.5,3.6,15,13.08,16.7,27.65,4.72,59.82-16.93,79.72-24.48,12.33-20.8-1.07-28.45-12.17-41.83-22.75-27.5-53.25-61.4-52.15-102.5,9.2-6.68,10,10.17,11.3,13.25,16.88,31.96,38.3,61.31,63.57,87.15,5.35,5.85,14.17,11.47,15.15,15.35,2.83,11.27-7.35,24.78-6.17,32.25h0c-31.68,24.94-71.4,37.39-111.65,35-11.68-11.2-13.53-29.21-4.37-42.55l.05.08ZM477.19,423.45c1.59,8.75,2.22,17.64,1.9,26.53-45.28,2.25-98.8-8.95-110.68-40.72,34.81,12.47,71.91,17.29,108.75,14.13l.02.07ZM370.79,207.25c5.81,16.38,14.04,31.79,24.42,45.72,5.7,5.55,16.75,12.3,11.28,27.73-3.87,5.97-9.47,10.63-16.05,13.35-19.75,5.82-65.78,1.2-50.2-23.43,16.32.75,38.3,10.6,50.5-1.25-2.37-3.8-5.22-8.52-8.05-13.77-12.5,7.9-46.85,8.25-46.85-11.98,0-21.3,33.48-25.85,33.48-25.85l.25.6c-.37-3.78.04-7.59,1.2-11.2l.02.07ZM290.19,134.05c29.87-20.38,45-8.75,52.5,4.7,7.29,2.88,10.87,11.13,8,18.42-.31.79-.7,1.55-1.15,2.28-41.45-9.65-62.05,17.35-74.62,45.35-3.22,5.85-3.4,1.7-5.25-3.4-.72-1.03-1.24-2.18-1.52-3.4-.62-1.11-1.4-2.13-2.3-3.03-6-6.17-9.12-38.1,24.35-60.93Z"/>
  <path class="st12" d="M74.41,681.97h218.83c-1-3.38-1.98-6.7-2.95-9.85-5.3-15.88-9.28-32.17-11.9-48.7-26.83-11.63-52.64-25.47-77.17-41.38-2.16-1.99-4.16-4.14-6-6.42l-131.65,58.82s4.73,18.85,10.85,47.53Z"/>
  <path class="st10" d="M153.16,124.97c3.8-1.17,7.71-1.91,11.68-2.2,6.19.85,12.44,1.09,18.67.72,12.35-3.08,22.8-30.77,32.12-41.1,7.49-6.88,15.34-13.36,23.52-19.4-34.14,11.76-64.05,33.31-86,61.98Z"/>
  <path class="st10" d="M96.76,264.62c26.21-13.85,58.68-3.84,72.54,22.37,3.49,6.6,5.56,13.86,6.09,21.3,17.35-.45,6.47-21.65,3.35-35.33-9.23-40.2,12.18-83.5,4.8-121.53-96.65,14.45-91.2,88.67-86.78,113.18Z"/>
  <path class="st5" d="M248.56,46.25c-45.5,12.9-103.8,45.95-122.5,86.83,9.23-2,18.29-4.71,27.1-8.1,21.95-28.66,51.86-50.22,86-61.98,1.42-1.29,2.75-2.68,3.98-4.15,4.8-2.32,11.9-2.15,12.17-9.38-2.07-2.22-4.27-3.93-6.75-3.22Z"/>
  <path class="st5" d="M104.84,174.6c-20,22.13-15.9,63.55-13.45,93.02,1.76-1.1,3.58-2.1,5.45-3-4.5-24.48-9.85-98.73,86.78-113.17-.81-4.21-1.99-8.33-3.55-12.33-28.75,1.55-55.74,14.28-75.22,35.47Z"/>
  <path class="st0" d="M177.64,406.3c-.42-5.84-4.74-10.65-10.5-11.7,8.38,16.7-12.9,21.95-15,33.87.28,7.03,1.32,14,3.12,20.8,7.41,29.81,19.61,58.22,36.12,84.12,13.73,16.91,33.79,27.44,55.5,29.15-63.25-52.13-67.75-145.73-69.25-156.25Z"/>
  <path class="st0" d="M455.46,358.42c-.23-7.48-5.29-13.94-12.5-15.95-7.22-2.05-11.43,12.65-13.7,25.33,1.07,2.95,1.91,5.99,2.5,9.08,7.35-6.83,15.28-13,23.7-18.45Z"/>
  <path class="st0" d="M525.94,243.57c-2.3,22.1,27.5,4.57,31.95,3.05l-1.07-7.15c-2.84-7.31-4.6-15-5.22-22.83-13.18,3.02-23.27,13.62-25.65,26.93Z"/>
  <path class="st0" d="M335.81,243.57c0,20.23,34.28,19.88,46.85,11.98-6.77-11.43-11.23-24.08-13.12-37.23l-.25-.6s-33.48,4.55-33.48,25.85Z"/>
  <path class="st0" d="M97.14,322.1c-.94,1.01-1.99,1.93-3.12,2.73.6-7.42,3.89-14.36,9.25-19.53,1.19-1.17,2.56-2.12,4.08-2.82,6.12-2.97,13.21-3.26,19.55-.8,11.05,2.75,21.68,6.96,31.63,12.5-4.82-16.6-13.1-31.58-30.2-33.45-27.99-2.31-52.55,18.51-54.85,46.5-.07.86-.12,1.71-.15,2.57,0,24.13,9.06,47.39,25.37,65.17-15.25-26.05-7.1-46.97-1.55-72.87Z"/>
  <path class="st0" d="M346.46,61.05c49.84-13.04,102.42-11.11,151.18,5.55-3.88-3.03-7.98-5.78-12.25-8.22-47.22-26.65-127.15-46.68-177.5-21.65-40.53,20.2-95.32,53.65-114,96.02,7.67,20.25,8.75,42.4,3.08,63.3,22.15-68.47,79.14-119.92,149.5-135Z"/>
  <path class="st0" d="M497.04,143.17c.15,4.23,1.19,8.37,3.05,12.17,0,0,2.17-2.5,5.75-5.8.78-18.35,21.62-28.8,45.8-21.65-5.55-7.15-11.18-14.73-17.02-22.22-20.46.62-36.91,17.04-37.58,37.5Z"/>
  <path class="st0" d="M269.64,201.42c1.85,5,2.05,9.25,5.25,3.4-2.11-.44-3.98-1.66-5.25-3.4Z"/>
  <path class="st0" d="M268.14,198.02c-.72-6.46.26-12.99,2.85-18.95,10.29-25.4,34.38-42.51,61.75-43.88,3.53.56,6.92,1.77,10,3.58-7.5-13.45-22.5-25-52.5-4.7-33.45,22.83-30.43,54.75-24.32,60.85.88.93,1.63,1.97,2.23,3.1Z"/>
  <path class="st8" d="M63.56,634.45l131.65-58.83c-9.65-11.2-26.98-32.5-30-31.42-50.53,22.46-97.72,51.78-140.25,87.13,7.66,16.51,14.42,33.41,20.25,50.65h29.2c-6.12-28.67-10.85-47.52-10.85-47.52Z"/>
  <path class="st12" d="M592.34,682.65c5.44-16.91,10.01-34.08,13.7-51.45.9-4.52,2.65-11.88,3.9-18.9l-72.15-53.6c13.9,30.8,15.07,65.84,3.25,97.5,2.5,9.3,11.35,12.87,15,21.25-.85,1.5-1.7,2.97-2.5,4.48h36.9c.69.06,1.35.31,1.9.72Z"/>
  <path class="st12" d="M528.36,651.82c2.04-2.86,3.5-6.1,4.3-9.53-.8,3.42-2.26,6.66-4.3,9.53Z"/>
  <path class="st12" d="M507.76,548.62c3.95-2.08,8.4-2.99,12.85-2.65l-5.95-4.43c-2.61,2.03-4.93,4.41-6.9,7.08Z"/>
  <path class="st8" d="M611.24,596.95c-1.85-13.43-20-23.37-29.3-31.65-17.1-15.32-27.8-28.82-45.57-43.15-6.35,7.4-13.65,13.93-21.72,19.4l5.95,4.43c7.44,1.22,13.83,5.97,17.15,12.75l72.1,53.58c1.14-5.03,1.61-10.19,1.4-15.35Z"/>
  <path class="st1" d="M431.64,679.97c.02.64.09,1.27.23,1.9h11.98c0-4.6,3.73-8.33,8.33-8.33s8.33,3.73,8.33,8.33h19.35v-.75c-6.85-3.6-21.82-11.37-30-14.83-10.6-4.45-18.2,13.68-18.2,13.68Z"/>
  <path class="st5" d="M431.64,679.97s7.5-18.25,18.25-13.7c8.05,3.45,23.02,11.22,30,14.83.25-5.5.5-11,.85-16.5-15.45.97-24.03-13.98-34.85-15.12-9.45-1.03-17.5,10.87-29.75,5.73-2.83,3.1-5.38,6.48-8.25,9.53,4.45,5.43,8.54,11.15,12.23,17.12h11.9c-.18-.61-.3-1.24-.38-1.88Z"/>
  <path class="st1" d="M280.11,579.2c-19.34-.05-38.53-3.43-56.73-10-2.8,2.7-2.88,7.17-.18,9.97.19.2.39.38.6.56,17.04,7.39,35.06,12.25,53.5,14.45,1.8-4.79,2.75-9.86,2.8-14.97Z"/>
  <path class="st5" d="M276.26,601.7c.03-2.53.38-5.05,1.03-7.5-18.44-2.2-36.46-7.06-53.5-14.45,15.16,11.96,33.31,19.55,52.47,21.95Z"/>
  <path class="st9" d="M532.66,642.3c1.68-7.12,2.29-14.45,1.82-21.75-.53-11.62-2.2-23.16-5-34.45-8.42-1.02-16.95-.61-25.23,1.22-7.5,1.53-15.22,3.05-16.73,12.17s3.05,13.7-1.53,21.3-12.17,3.05-19.78,7.5c-5.18,3.1-1.9,11.12.72,15.95,20.18,4.59,40.78,7.1,61.47,7.5,2-2.85,3.44-6.06,4.23-9.45Z"/>
  <path class="st9" d="M306.39,680.45c.4,1.07.82,2.2,1.17,3.2s.73,2.33,1.05,3.47l-.22-2.93-2-3.75Z"/>
  <path class="st9" d="M406.41,648.1c.17-4.4.34-8.79.52-13.18-7.94,2.45-16.53,1.79-24-1.85-23.43-12.77-1.25-9-9.55-25.95-9.49-5.04-19.9-8.15-30.6-9.12-30.7,0-42.5-6.17-39.2,29.23,1.73,19,3.27,37.98,4.77,57,2.5,4.7,4.75,8.93,6.55,12.5,16.05-1.55,31.64-6.31,45.83-13.98,15.84-10.71,31.09-22.28,45.67-34.65Z"/>
  <path class="st9" d="M418.01,629.97c.52,2.23,1.07,4.72,1.6,7.75h0c8.52,4.57,19.12,1.37,23.7-7.14,4.57-8.52,1.37-19.12-7.14-23.7-1.82-.98-3.81-1.63-5.86-1.91,1.71,10.11-3.25,20.18-12.3,25Z"/>
  <path class="st2" d="M466.16,628.4c7.5-4.58,15.22,0,19.78-7.5s0-12.17,1.53-21.3,9.12-10.65,16.73-12.17c8.28-1.83,16.81-2.25,25.23-1.22-.98-6.26-4.05-12-8.7-16.3-18.67-10.9-51.4,20.63-66.63,27.33l-1.42.58c2.26,4.36,3.74,9.08,4.37,13.95,3.37-.83,6.83-1.19,10.3-1.05,2.32.09,4.63.37,6.9.83,1.13.23,2.23.5,3.32.8,2.09.58,4.12,1.35,6.08,2.3-6.37.26-12.71,1.1-18.92,2.5-1.78.52-3.47,1.32-5,2.37-.68,7.48-.98,14.99-.87,22.5,2.63.75,5.32,1.45,8.05,2.1-2.62-4.57-5.9-12.6-.72-15.7Z"/>
  <path class="st2" d="M308.61,687.1c1.27,4.58,2.38,8.7,6.33,9.63-1.8-3.6-4.08-7.82-6.55-12.5l.22,2.87Z"/>
  <path class="st2" d="M303.59,627.2c-3.22-35.4,8.5-29.23,39.2-29.23,10.7.98,21.11,4.08,30.6,9.12,8.3,16.95-13.88,13.18,9.55,25.95,7.47,3.64,16.06,4.3,24,1.85v-1.57c-7.2-3.62-14.93-6.06-22.9-7.25-3.07-.46-6.17-.76-9.28-.9,2.33-1.12,4.77-2.01,7.28-2.65,7.85-1.23,15.48-3.6,22.65-7.03,0-1.98.15-3.95.23-5.9-1.68-.14-3.35-.36-5-.68-1.5-.28-2.97-.65-4.43-1.1-2.55-.81-5.01-1.87-7.35-3.18-4.45-2.5-8.27-5.4-13.12-8.05-18.92-10.15-39.19-17.57-60.2-22.03-23.03-4.4-23.22,27.62-22.25,51.22,0,2.5.2,4.8.32,7,2.12,16.43,6.7,32.44,13.6,47.5l1.98,3.75c-1.57-18.85-3.15-37.85-4.87-56.85Z"/>
  <path class="st2" d="M430.34,604.97c-5.25.11-10.34,1.86-14.55,5-.36,3.43-.3,6.89.17,10.3.27,1.98.7,3.88,1.2,5.95l.78,3.28v.43h0c9.07-4.78,14.07-14.83,12.4-24.95Z"/>
  <path class="st6" d="M270.99,179.07c-2.59,5.96-3.57,12.49-2.85,18.95.29,1.22.8,2.37,1.52,3.4,1.27,1.74,3.14,2.96,5.25,3.4,12.5-28,33.17-55,74.63-45.35,4.14-6.66,2.09-15.42-4.57-19.55-.72-.45-1.49-.83-2.28-1.15-3.08-1.8-6.47-3.02-10-3.58-27.35,1.38-51.42,18.49-61.7,43.88Z"/>
  <path class="st6" d="M523.64,265.65c-.8,33.1,51.22,16.8,59.15-1.65-11.19-18.32-20.98-37.46-29.3-57.25h-1.98c-.22,3.33-.22,6.67,0,10,.63,7.82,2.39,15.51,5.22,22.83,2.37,6.4,5.12,12.5,7.5,18.9-9.92,6.18-29.4,2.25-40.6,7.18Z"/>
  <path class="st6" d="M390.69,269.3c-12.2,11.85-34.18,2-50.5,1.25-15.57,24.62,30.45,29.25,50.2,23.43,6.58-2.72,12.18-7.38,16.05-13.35,5.47-15.42-5.57-22.18-11.28-27.73-10.38-13.94-18.61-29.35-24.42-45.72-1.16,3.59-1.58,7.37-1.22,11.12,1.89,13.15,6.35,25.8,13.12,37.23,2.85,5.25,5.68,9.98,8.05,13.77Z"/>
  <path class="st6" d="M432.46,407.85c40.25,2.39,79.97-10.06,111.65-35h0c-1.18-7.5,9-21,6.17-32.25-.97-3.87-9.8-9.5-15.15-15.35-25.28-25.84-46.69-55.19-63.57-87.15-1.32-3.08-2.12-20-11.3-13.25-1.1,41.05,29.4,75,52.15,102.5,11.1,13.37,24.5,21.02,12.17,41.83-20,7.5-52.08,29.23-79.72,24.48-9.47-1.63-11.45-9.12-13.08-16.7-.59-3.09-1.43-6.12-2.5-9.08-.32-.86-.7-1.7-1.15-2.5-9.12,13.31-7.3,31.27,4.33,42.47Z"/>
  <path class="st6" d="M107.34,302.47c-1.43.77-2.76,1.7-3.97,2.78-5.36,5.16-8.65,12.11-9.25,19.53,1.13-.8,2.18-1.71,3.12-2.73,3.82-3.9,7.83-8.93,15-5.43-8.06,18.03-6.26,38.94,4.75,55.32,0-18.32-2.93-49.67,12.72-48.75,10.95.68,13.18,24.1,22.5,29.42,5.58-20.95-5.32-42.78-25.42-50.9-6.31-2.45-13.35-2.18-19.45.75Z"/>
  <path class="st6" d="M489.04,421.85c-1.18,8.82-1.18,17.76,0,26.57,33.6-2.54,62.58-24.55,74.05-56.23h0c-22.6,14.45-47.72,24.51-74.05,29.65Z"/>
  <path class="st6" d="M479.09,449.97c.33-8.93-.32-17.86-1.92-26.65-36.84,3.19-73.93-1.6-108.75-14.05,11.88,31.8,65.4,43,110.68,40.7Z"/>
  <path class="st6" d="M363.49,434.72h0c-22.88,0-3.57,12.75.3,17.72,8.12,13.99,19.05,26.14,32.1,35.7,27.71,9.65,57.86,9.78,85.65.35,6.23-3.2,11.01-8.64,13.4-15.22-51.95,1.25-113.53,6.42-131.45-38.55Z"/>
  <path class="st3" d="M541.34,681.97c-5.9-9.43-15.25-16.18-26.05-18.83-7.77-1.57-15.84-.51-22.95,3-.2,5-.45,10.38-.78,15.8l49.77.02Z"/>
  <path class="st7" d="M466.61,568.7c-17.15,1.53-37.33,9.32-56.3,10.48-1.73,0-3.45.15-5.15.15s-3.4,0-5-.25c-3.32-.29-6.61-.93-9.8-1.9-1.6-.49-3.17-1.07-4.7-1.75,0,1.3-1.77.83-2.05,1.9,2.12,1.65,4.17,3.15,6.17,4.48s3.98,2.5,5.95,3.57c3.76,2.04,7.75,3.63,11.88,4.75,6.67,1.67,13.53,2.42,20.4,2.25,2.5,0,5.3,0,8.17-.23,10.38-7.58,19.58-16.4,30.43-23.45Z"/>
  <path class="st3" d="M394.49,676.17l-8.77,5.82h13.18c-1.43-1.98-2.9-3.92-4.4-5.82Z"/>
  <path class="st6" d="M34.36,694.2v-8.37c0-2.11,1.71-3.82,3.82-3.82h7.07c-5.83-17.24-12.59-34.14-20.25-50.65,42.53-35.35,89.72-64.66,140.25-87.13,2.95-1.18,20.27,20.23,30,31.42,1.84,2.29,3.84,4.44,6,6.42,24.53,15.91,50.35,29.75,77.17,41.38,2.62,16.53,6.6,32.82,11.9,48.7.97,3.15,1.95,6.5,2.95,9.85h4.05c2.11,0,3.82,1.71,3.82,3.82v3.95h3.47c2.11,0,3.82,1.71,3.82,3.82v6.37h42.27v-6.37c0-2.11,1.71-3.82,3.82-3.82h19.5v-3.95c0-2.11,1.71-3.82,3.82-3.82h7.92l8.77-5.82c1.5,1.9,2.97,3.84,4.4,5.82h21.08c-3.69-5.97-7.77-11.69-12.23-17.12,2.87-3.05,5.42-6.4,8.25-9.53,12.3,5.15,20.3-6.75,29.75-5.73,10.83,1.15,19.4,16.1,34.85,15.12-.35,5.5-.6,11-.85,16.5v.75h11.85c.3-5.42.58-10.73.78-15.8,7.11-3.51,15.18-4.57,22.95-3,10.8,2.65,20.15,9.4,26.05,18.83h12.03c.85-1.5,1.73-2.97,2.5-4.48-3.57-8.37-12.38-11.92-15-21.25,11.82-31.66,10.65-66.7-3.25-97.5-3.32-6.78-9.71-11.53-17.15-12.75-4.45-.34-8.9.58-12.85,2.65,1.96-2.66,4.27-5.04,6.87-7.07,8.07-5.47,15.38-12,21.72-19.4,17.8,14.32,28.53,27.8,45.6,43.13,9.25,8.3,27.5,18.25,29.3,31.65.23,5.15-.22,10.32-1.35,15.35-1.28,7.03-3,14.38-3.9,18.9-3.67,17.35-8.23,34.51-13.65,51.4,1.11.68,1.79,1.88,1.8,3.18v14.15h9.2c6.45-20.2,12.77-40.88,19.15-62.23,7.26-17.35,11.31-35.88,11.95-54.68-1.95-15.43-26-31.62-38.68-43.85-7.03-6.77-39.83-31.68-41.73-41s13.37-29.45,18.28-39.65c6.38-14.46,11.57-29.4,15.53-44.7,25.8-90.67,28.42-215.28-8.48-289.8-20.3-33.12-46.58-62.18-77.5-85.7C444.36-5.18,337.79-10,268.39,15.55c-18.99,6.18-37.4,14.04-55,23.48-45.45,26.65-93.7,44.5-107.18,98.2-33.2,15-43.23,57.5-41.55,106.7,2.26,10.08,3.5,20.35,3.73,30.68-.93,4.6-7.15,10.47-8.4,13.45-12.8,38.58-7.19,80.89,15.23,114.8,12.4,18.47,31.87,31,53.83,34.63,1.03,14.52,4.82,28.71,11.17,41.8,4.25,9.32,20.13,26.07,14.28,37.98-11.38,9.61-23.94,17.73-37.37,24.15-28.95,17.37-50,28-76.65,47.25-17.3,12.5-44.33,14.05-40,42.75,5.18,21.41,11.93,42.41,20.2,62.83.63,1.95,1.32,3.88,2,5.8h11.75l-.05-5.83ZM243.14,58.85c-1.23,1.47-2.55,2.86-3.98,4.15-8.18,6.04-16.04,12.52-23.52,19.4-9.33,10.33-19.75,38.02-32.12,41.1-6.23.37-12.49.13-18.67-.72-3.96.29-7.88,1.03-11.68,2.2-8.81,3.4-17.87,6.11-27.1,8.12,18.7-40.88,77-73.92,122.5-86.83,2.5-.7,4.7,1,6.77,3.22-.28,7.18-7.4,7.03-12.2,9.35ZM183.51,151.35c7.5,38.02-14.02,81.35-4.8,121.53,3.12,13.65,14,34.85-3.35,35.33-2.09-29.57-27.75-51.85-57.32-49.76-7.45.53-14.7,2.6-21.3,6.09-1.87.9-3.69,1.9-5.45,3-2.5-29.47-6.65-70.9,13.45-93.02,19.48-21.19,46.48-33.93,75.22-35.48,1.56,4.02,2.75,8.18,3.55,12.42v-.1ZM98.69,394.97c-16.34-17.71-25.45-40.9-25.55-65,.89-28.07,24.36-50.11,52.43-49.22.86.03,1.72.08,2.57.15,17.1,1.87,25.35,16.85,30.2,33.45,1.35,4.68,2.5,9.47,3.4,14.15,12.63.68,30.87-.55,36.85-10.4-.85-24.05-12.02-43.32-11.25-65.42,1.69-19.09,4.93-38.01,9.7-56.58,5.67-20.9,4.6-43.05-3.08-63.3,18.67-42.38,73.48-75.8,114-96.03,50.23-25,130.18-5,177.5,21.65,4.27,2.45,8.37,5.19,12.25,8.22,13.9,11.44,26.32,24.57,36.98,39.08,5.85,7.5,11.47,15,17.02,22.22-24.17-7.18-45,3.3-45.8,21.65-.1,2.06.03,4.12.4,6.15,22.5-20.53,60.68-.22,72,22.5,9.4,27.71,13.64,56.91,12.5,86.15,5.56,75.72-13.23,151.24-53.63,215.53-8.85,15.88-20.4,30.09-34.12,42-35.62,25-89.77,47.7-136.15,32.15-61.28-20.57-89.13-61.4-122.83-108.15,4.13,25.75,17.15,49.24,36.8,66.4,14.76,18.52,33.31,33.68,54.4,44.45-16.83-3.95-42.5-5.2-49.62,10-12.97-.7-25.89-2.05-38.72-4.05-21.71-1.71-41.77-12.24-55.5-29.15-16.52-25.9-28.72-54.31-36.12-84.12-1.8-6.8-2.85-13.77-3.12-20.8,2.2-11.95,23.48-17.18,15-33.87-15.45-.15-18.92,14.05-33.1,15.45-13.54.73-26.63-4.91-35.4-15.25ZM417.94,629.47l-.78-3.28c-.5-2.08-.9-3.98-1.2-5.95-.48-3.41-.53-6.87-.17-10.3,4.21-3.14,9.3-4.89,14.55-5,9.57,1.34,16.25,10.18,14.91,19.75-1.34,9.57-10.18,16.25-19.75,14.91-2.05-.29-4.03-.93-5.86-1.91-.52-3.03-1.07-5.53-1.6-7.75l-.1-.47ZM223.39,569c18.19,6.57,37.38,9.95,56.73,10-.05,5.13-.99,10.2-2.8,15-.65,2.45-.99,4.97-1.03,7.5-19.18-2.42-37.34-10.05-52.5-22.05-2.95-2.54-3.29-6.99-.75-9.94.11-.13.23-.26.35-.38v-.13ZM407.56,589.97c-4.13-1.12-8.11-2.71-11.88-4.75-1.95-1.05-3.92-2.25-5.95-3.57s-4.05-2.83-6.17-4.48c.27-1.07,1.98-.6,2.05-1.9,1.53.68,3.1,1.26,4.7,1.75,3.19.97,6.48,1.61,9.8,1.9,1.67.15,3.35.23,5,.25s3.42,0,5.15-.15c18.98-1.15,39.15-8.95,56.3-10.48-10.83,7.07-20,15.9-30.45,23.45-2.87.15-5.6.23-8.17.23-6.86.21-13.71-.5-20.38-2.12v-.12ZM360.76,682.62c-14.19,7.67-29.77,12.42-45.83,13.98-3.95-.93-5-5-6.33-9.63-.32-1.15-.65-2.3-1.05-3.47s-.75-2.12-1.17-3.2c-6.9-15.06-11.48-31.07-13.6-47.5,0-2.2-.22-4.55-.32-7-.97-23.6-.78-55.63,22.25-51.22,21.01,4.46,41.28,11.87,60.2,22.03,4.85,2.65,8.68,5.63,13.12,8.05,2.34,1.3,4.8,2.37,7.35,3.18,1.45.45,2.93.82,4.43,1.1,1.65.31,3.32.54,5,.68,0,1.95-.15,3.92-.23,5.9-7.17,3.43-14.8,5.79-22.65,7.03-2.51.64-4.94,1.53-7.28,2.65,3.11.14,6.2.44,9.28.9,7.97,1.19,15.7,3.63,22.9,7.25v1.57c-.17,4.4-.34,8.79-.52,13.18-14.54,12.38-29.75,23.95-45.55,34.67v-.13ZM466.89,644.22c-2.73-.65-5.42-1.35-8.05-2.1-.1-7.51.19-15.02.87-22.5,1.53-1.05,3.22-1.85,5-2.37,6.22-1.41,12.55-2.24,18.92-2.5-1.95-.95-3.99-1.71-6.08-2.3-1.07-.3-2.2-.58-3.32-.8-2.27-.5-4.58-.82-6.9-.95-3.42-.16-6.84.16-10.17.95-.64-4.87-2.12-9.59-4.37-13.95l1.42-.58c15.22-6.7,47.95-38.22,66.62-27.33,4.65,4.3,7.72,10.04,8.7,16.3,2.8,11.29,4.47,22.83,5,34.45.47,7.3-.15,14.63-1.82,21.75-.8,3.42-2.26,6.66-4.3,9.53h0c-20.71-.39-41.33-2.91-61.52-7.5v-.1Z"/>
  <path class="st0" d="M355.59,421.52c-15.4-7.5-26.4-3.38-28.4-.7-3.8,5,4.08,32.65,4.08,32.65l7.5,1.53c-1.43-30.43,16.83-33.48,16.83-33.48Z"/>
  <path class="st11" d="M452.16,674c-4.46,0-8.12,3.52-8.33,7.98h16.65c-.2-4.45-3.87-7.97-8.33-7.98Z"/>
  <path class="st6" d="M308.39,693.6c0-2.11-1.71-3.82-3.82-3.82h-3.47v4.43c0,2.11-1.71,3.82-3.82,3.82H38.19c-2.11,0-3.82-1.71-3.82-3.82v5.77h274.02v-6.37Z"/>
  <path class="st6" d="M590.29,698.02h-212.5c-2.11,0-3.82-1.71-3.82-3.82v-4.43h-19.5c-2.11,0-3.82,1.71-3.82,3.82v6.37h243.43v-5.78c0,2.09-1.68,3.8-3.78,3.83Z"/>
  <path class="st6" d="M38.19,698.02h259.15c2.11,0,3.82-1.71,3.82-3.82v-8.37c0-2.11-1.71-3.82-3.82-3.82H38.19c-2.11,0-3.82,1.71-3.82,3.82v8.37c0,2.11,1.71,3.82,3.82,3.82Z"/>
  <path class="st6" d="M373.99,694.2c0,2.11,1.71,3.82,3.82,3.82h212.5c2.11,0,3.82-1.71,3.82-3.82v-8.37c0-1.3-.69-2.5-1.8-3.18-.6-.41-1.3-.63-2.02-.65h-212.5c-2.11,0-3.82,1.71-3.82,3.82v8.37Z"/>
</svg>