<?xml version="1.0" encoding="UTF-8"?>
<svg id="Layer_3" xmlns="http://www.w3.org/2000/svg" version="1.1" viewBox="0 0 800 800">
  <!-- Generator: Adobe Illustrator 30.2.1, SVG Export Plug-In . SVG Version: 2.1.1 Build 1)  -->
  <defs>
    <style>
      .st0 {
        fill: #fff;
      }

      .st1 {
        fill: #474747;
      }
    </style>
  </defs>
  <polygon class="st0" points="767 635.89 633.33 635.89 633.33 784.39 366 787.89 368 635.89 39 635.89 39 28.89 767 28.89 767 635.89"/>
  <path class="st1" d="M770.83,0H0v666.67h333.33v133.33h333.33v-133.33h133.33V0h-29.17ZM600,50c18.4,0,33.33,14.93,33.33,33.33s-14.93,33.33-33.33,33.33-33.33-14.93-33.33-33.33,14.93-33.33,33.33-33.33ZM100,50h400c18.4,0,33.33,14.93,33.33,33.33s-14.93,33.33-33.33,33.33H100c-18.4,0-33.33-14.93-33.33-33.33s14.93-33.33,33.33-33.33ZM500,776.57c-18.4,0-33.33-14.93-33.33-33.33s14.93-33.33,33.33-33.33,33.33,14.93,33.33,33.33-14.93,33.33-33.33,33.33ZM600,682.82h-200v-381.43h200v381.43ZM733.33,600h-66.67V234.72h-333.33v365.28H66.67V166.67h666.67v433.33ZM700,116.67c-18.4,0-33.33-14.93-33.33-33.33s14.93-33.33,33.33-33.33,33.33,14.93,33.33,33.33-14.93,33.33-33.33,33.33Z"/>
</svg>