<?xml version="1.0" encoding="UTF-8"?>
<svg id="Layer_1" xmlns="http://www.w3.org/2000/svg" version="1.1" viewBox="0 0 800 800">
  <!-- Generator: Adobe Illustrator 30.2.1, SVG Export Plug-In . SVG Version: 2.1.1 Build 1)  -->
  <defs>
    <style>
      .st0 {
        fill: #4b5c9b;
      }

      .st1 {
        fill: #fff;
      }

      .st2 {
        fill: #ffc10d;
      }

      .st3 {
        fill: #56ace0;
      }
    </style>
  </defs>
  <path class="st1" d="M322.66,345.39c0-36.67-27.54-66.5-61.4-66.5s-61.4,29.83-61.4,66.5,27.54,66.5,61.4,66.5,61.4-29.83,61.4-66.5Z"/>
  <path class="st3" d="M394.47,494.2l-18.71-39.79c-3.95-8.56-2.24-18.58,4.35-25.16,0,0,51.52-52.57,52.96-51.78-3.95-2.37-8.04-4.61-12.39-6.32-25.16-10.28-51.78-18.05-78.92-23.32l-61,111.2c-8.56,15.42-30.57,15.42-38.87,0l-61-111.2c-27.14,5.14-53.76,13.04-78.92,23.32-34.91,14.23-57.44,47.56-57.44,84.98v64.56h296.97c2.5-3.43,5.93-6.19,10.28-7.77l41.37-15.02c.26-1.05.79-2.5,1.32-3.69Z"/>
  <path class="st2" d="M719.1,536.36c-6.46-2.37-11.33-7.38-13.57-13.83-2.11-6.19-4.74-12.39-7.77-18.45-3.03-6.19-3.16-13.18-.26-19.37l16.34-35.18-26.75-26.75-35.18,16.34c-6.19,2.9-13.18,2.9-19.37-.13s-12.39-5.67-18.58-7.77c-6.46-2.24-11.46-7.11-13.83-13.57l-13.17-36.36h-37.81l-13.18,36.36c-2.37,6.32-7.38,11.33-13.83,13.57-6.19,2.11-12.25,4.61-18.45,7.77-6.19,3.03-13.18,3.16-19.37.26l-35.18-16.34-26.75,26.75,16.34,35.18c2.9,6.19,2.9,13.18-.26,19.37-3.16,6.19-5.67,12.39-7.77,18.44-2.24,6.46-7.11,11.46-13.57,13.83l-36.36,13.18v37.81l36.36,13.18c6.46,2.37,11.33,7.38,13.57,13.83,2.11,6.19,4.61,12.25,7.77,18.45,3.03,6.19,3.16,13.18.26,19.37l-16.34,35.18,26.75,26.75,35.18-16.34c6.19-2.9,13.18-2.9,19.37.26,6.19,3.16,12.39,5.67,18.45,7.77,6.46,2.24,11.46,7.11,13.83,13.57l13.18,36.36h37.81l13.18-36.36c2.37-6.32,7.38-11.33,13.83-13.57,6.19-2.11,12.25-4.61,18.45-7.77,5.93-3.03,13.18-3.16,19.37-.13l35.18,16.34,26.75-26.75-16.21-35.44c-2.9-6.19-2.9-13.18.26-19.37,3.03-6.19,5.67-12.25,7.77-18.45,2.24-6.46,7.11-11.46,13.57-13.83l36.36-13.18v-37.81l-36.36-13.17Z"/>
  <path class="st0" d="M785.24,513.04l-41.37-15.02c-.53-1.32-1.05-2.64-1.58-3.95l18.71-39.79c3.95-8.56,2.24-18.58-4.35-25.16l-48.88-48.88c-6.59-6.59-16.73-8.3-25.16-4.35l-39.79,18.58c-1.32-.66-2.64-1.05-3.95-1.58l-15.02-41.37c-3.16-8.83-11.46-14.63-20.95-14.63h-69.04c-9.35,0-17.66,5.8-20.95,14.63l-11.46,31.75c-14.63-23.45-36.23-42.03-62.19-52.7-33.73-13.83-69.3-23.71-105.93-29.51h0c-9.35-1.45-18.45,3.03-22.79,11.33l-49.14,89.59-49.14-89.59c-4.61-8.17-13.7-12.78-22.79-11.33-35.97,5.53-70.88,15.28-104.09,28.72C33.6,350.86,0,400.53,0,456.13v86.82c0,12.25,9.88,22.27,22.27,22.27h314.76v37.68c0,9.35,5.8,17.66,14.63,20.95l41.37,15.02c.53,1.32,1.05,2.64,1.58,3.95l-18.71,39.79c-3.95,8.56-2.24,18.58,4.35,25.16l48.88,48.88c6.59,6.59,16.73,8.3,25.16,4.35l39.79-18.58c1.32.66,2.64,1.05,3.95,1.58l15.02,41.37c3.16,8.83,11.46,14.63,20.95,14.63h69.04c9.35,0,17.66-5.8,20.95-14.63l15.02-41.37c1.32-.53,2.64-1.05,3.95-1.58l39.79,18.58c8.56,3.95,18.58,2.24,25.16-4.35l48.88-48.88c6.59-6.59,8.3-16.73,4.35-25.16l-18.71-39.79c.66-1.32,1.05-2.64,1.58-3.95l41.37-15.02c8.83-3.16,14.63-11.46,14.63-20.95v-69.04c-.13-9.35-5.93-17.65-14.75-20.82ZM755.47,587.35l-36.36,13.18c-6.32,2.37-11.33,7.38-13.57,13.83-2.11,6.19-4.74,12.39-7.77,18.45-3.03,6.19-3.16,13.18-.26,19.37l16.34,35.18-26.75,26.88-34.92-16.6c-6.19-2.9-13.18-2.9-19.37.13-6.19,3.16-12.39,5.67-18.45,7.77-6.46,2.24-11.46,7.11-13.83,13.57l-13.18,36.36h-37.81l-13.18-36.36c-2.37-6.32-7.38-11.33-13.83-13.57-6.19-2.11-12.25-4.61-18.45-7.77-6.19-3.03-13.18-3.16-19.37-.26l-35.18,16.34-26.75-26.75,16.34-35.18c2.9-6.19,2.9-13.18-.26-19.37-3.03-6.19-5.67-12.39-7.77-18.45-2.24-6.46-7.11-11.46-13.57-13.83l-36.36-13.18v-37.81l36.36-13.18c6.46-2.37,11.33-7.38,13.57-13.83,2.11-6.19,4.61-12.25,7.77-18.45,3.03-6.19,3.16-13.18.26-19.37l-16.34-35.18,26.75-26.75,35.18,16.34c6.19,2.9,13.18,2.9,19.37-.26,6.19-3.03,12.39-5.67,18.45-7.77,6.46-2.24,11.46-7.11,13.83-13.57l13.18-36.36h37.81l13.18,36.36c2.37,6.32,7.38,11.33,13.83,13.57,6.19,2.11,12.25,4.61,18.58,7.77,5.93,3.03,13.18,3.16,19.37.13l35.18-16.34,26.75,26.75-16.73,35.57c-2.9,6.19-2.9,13.18.26,19.37,3.03,6.19,5.67,12.25,7.77,18.44,2.24,6.46,7.11,11.46,13.57,13.83l36.36,13.18v37.82h0ZM341.24,520.82H44.27v-64.56c0-37.42,22.53-70.88,57.44-84.98,25.16-10.28,51.78-18.05,78.92-23.32l61,111.2c8.56,15.42,30.57,15.42,38.87,0l61-111.2c27.27,5.14,53.76,13.04,78.92,23.32,4.35,1.71,8.56,3.95,12.39,6.32-1.45-.79-52.96,51.78-52.96,51.78-6.59,6.59-8.3,16.73-4.35,25.16l18.71,39.79c-.66,1.32-1.05,2.64-1.58,3.95l-41.37,15.02c-3.95,1.32-7.51,4.09-10.01,7.51Z"/>
  <path class="st1" d="M260.27,49.87c-60.99,0-110.51,49.52-110.51,110.51s49.52,110.51,110.51,110.51,110.51-49.52,110.51-110.51-49.69-110.51-110.51-110.51Z"/>
  <path class="st0" d="M261.27,0C173.35,0,101.53,71.66,101.53,159.73s71.66,159.73,159.73,159.73,159.73-71.66,159.73-159.73S349.34,0,261.27,0ZM261.27,264.39c-57.85,0-104.81-46.96-104.81-104.81s46.96-104.81,104.81-104.81,104.81,46.96,104.81,104.81-47.13,104.81-104.81,104.81Z"/>
  <path class="st1" d="M629.78,568.51c0-33.86-27.54-61.4-61.4-61.4s-61.4,27.54-61.4,61.4,27.54,61.4,61.4,61.4,61.4-27.54,61.4-61.4Z"/>
  <path class="st0" d="M568.38,462.71c-58.37,0-105.8,47.56-105.8,105.8s47.56,105.8,105.8,105.8,105.8-47.56,105.8-105.8c0-58.23-47.56-105.8-105.8-105.8ZM506.98,568.51c0-33.86,27.54-61.4,61.4-61.4s61.4,27.54,61.4,61.4-27.54,61.4-61.4,61.4-61.4-27.54-61.4-61.4Z"/>
</svg>