<?xml version="1.0" encoding="UTF-8"?>
<svg id="Warstwa_1" xmlns="http://www.w3.org/2000/svg" version="1.1" viewBox="0 0 706.89 800">
  <!-- Generator: Adobe Illustrator 30.2.1, SVG Export Plug-In . SVG Version: 2.1.1 Build 1)  -->
  <defs>
    <style>
      .st0 {
        fill: #95cbeb;
      }

      .st1 {
        fill: #211715;
      }

      .st2 {
        fill: #fff;
      }
    </style>
  </defs>
  <path class="st2" d="M567.29,792.57c-23.98-26.98-39.27-104.17-38.47-112.66,3.66-38.49,50.85-76.5,76.63-104.62,39.72-43.32,97.51-127.81,94.21-245.31-1.83-64.93-26.48-130.53-57.49-176.11C562.43,36.61,472.47,16.41,417.03,9.53s-109.14,2.1-157.52,18.97c-101.36,35.37-147.89,107.16-155.84,123.13-17.29,34.77-26.5,60.52-29.12,105.7-2.39,19.45-3.09,39.07-2.1,58.65-1.32,44.51-2.97,106.26-43.68,128.32-8.22,4.07-14.86,10.75-18.88,18.99-9.74,22.16,9.35,32.09,21.18,44.85,7.43,8.22,12.75,18.13,15.48,28.88,1.37,21.58,4.4,43.03,9.06,64.15,3,14.89,7.87,29.34,14.51,43,13,24.58,29.61,36.87,46.8,43.14,33.7,12.32,79.81,16.71,109.66,8.62,7.19-1.9,14.68,1.83,17.48,8.72.44,1.12,19.15,49.79,18.07,87.93"/>
  <path class="st0" d="M475.29,518.32c-4.33-5.28-8.34-10.82-11.99-16.59-.93-1.6-1.7-3.28-2.28-5.04-.56-1.79-.89-3.64-.99-5.51,0-16.06.08-25.37.08-36.68,15.69,0,58.53-.17,62.99-.17,3.43-3.6,25.63-28.79,34.44-39.63l8.81-10.85,7.37-6.83c15.62-14.47,30.69-29.51,45.21-45.11,0-25.46-1.71-83.4-1.71-104.66v-14.55l-7.47-10.39c-10.03-13.97-35.05-48.77-45.26-62.99l-6.38-8.91-14.44-7.55c-11.31-5.91-65.65-35.14-74.04-39.57l-11.99-6.31-14.49,1.5c-29.08,3-156.22,17-178.09,19.54l-11.42,1.33-11.57,11.34c-19.78,19.37-40.75,40.58-59.81,59.81l-11.52,11.62-.4,9.91c-.34,8.39-1.29,37.03-1.71,49.71l-.55,16.35,6.1,10.45,32.31,55.31c.4.82.98,1.54,1.7,2.11,1.1.48,2.28.73,3.48.72,19.39,3.3,30.28,5.1,51.47,6.95,6.26,10.92,12.53,21.85,18.79,32.77.55,1.09,1.26,2.09,2.1,2.97,1.69,1.37,3.71,2.27,5.86,2.61,27.41,6.67,63.8,15.55,85.55,18.98,5.55,12.06,26.9,57.49,32.83,71.31,2.7,10.87,7.61,31.74,10.01,43.74"/>
  <path class="st2" d="M351.51,203.02c0,35.23.1,81.06.09,114.53,27.58-.25,81.91-.39,114.81-.52,0-33.27-.22-78.95-.2-114.32-4.08,0-88.14.09-114.7.31Z"/>
  <path class="st1" d="M375.33,229.66c0,19.12.05,42.77.05,61.08,0,1.64,1.32,2.97,2.96,2.97.01,0,.03,0,.04,0,15.94-.13,43-.2,61.22-.27,1.64,0,2.97-1.32,2.98-2.96v-.02c0-18.2-.11-41.79-.12-60.97,0-1.64-1.32-2.97-2.95-2.98,0,0-.02,0-.03,0-10.56,0-45.58.06-61.2.15-1.64,0-2.96,1.34-2.96,2.98Z"/>
  <path class="st1" d="M572.38,787.49c-1.75-1.97-3.33-4.09-4.72-6.32-1.98-3.06-3.8-6.23-5.45-9.48-3.39-6.69-6.37-13.58-8.9-20.64-5.31-14.7-9.66-29.73-13.02-44.99-1.3-5.78-2.48-11.58-3.43-17.43-.17-1.06-.33-2.13-.49-3.2-.25-1.72.19,1.67,0,.04-.05-.42-.1-.84-.15-1.26-.17-1.3-.25-2.61-.23-3.92.73-7.47,3.02-14.71,6.71-21.24,4.32-8.28,9.49-16.09,15.42-23.31,21.28-26.38,47.66-48.02,68.83-74.53,20.53-25.51,37.63-53.61,50.85-83.57,16.34-37.19,26.01-76.96,28.56-117.51,2.62-46.65-4.54-93.33-21.02-137.05-15.7-41.54-38.71-79.93-67.95-113.36-24.44-28.87-53.75-53.24-86.59-72C476.11,7.19,410.46-4.38,348.41,1.46c-79.64,7.49-158.2,40.1-214.24,98.08-13.99,13.85-26.03,29.55-35.78,46.66-8.02,14.94-14.7,30.56-19.94,46.68-5.9,19.08-9.5,38.79-10.71,58.72-.85,11.57-2.28,23.06-2.68,34.67-.4,11.5.41,22.98.07,34.47-.2,16.9-1.43,33.78-3.69,50.53-2.5,16.19-6.55,32.67-15.29,46.7-3.77,6.2-8.68,11.64-14.47,16.01-7.45,5.47-15.76,8.99-21.88,16.24-13.11,13.18-13.06,34.49.12,47.6.59.59,1.2,1.15,1.84,1.7,5.64,5.85,12.29,10.79,17.28,17.26,5.97,7.43,9.68,16.42,10.69,25.91,1.62,22.79,5.19,45.4,10.66,67.58,5.52,21.96,13.94,43.21,29.26,60.25,12.34,13.75,28.08,21.84,45.56,27.08,20.48,6.08,41.71,9.3,63.07,9.58,10.03.17,20.05-.55,29.95-2.14,3.79-.62,7.79-2.2,11.59-2.44,1.55-.11,3.1.27,4.43,1.07.69.39,1.31.9,1.82,1.5.23.26,1.91,3.21,1.09,1.41,4.15,10.06,7.45,20.45,9.86,31.06,5.22,17.84,7.89,36.33,7.93,54.92-.21,9.26,14.18,9.26,14.39,0-.04-19.88-2.89-39.65-8.45-58.73-2.67-10.51-5.96-20.86-9.84-30.99-3.4-9.25-12.48-15.17-22.31-14.54-4.47.4-8.84,1.92-13.27,2.7-4.59.77-9.23,1.28-13.88,1.52-20.35,1.07-40.74-.81-60.55-5.58-16.97-4-33.56-9.43-46.46-21.66-15.83-15.01-24.14-35.25-29.59-55.97-5.54-21.5-9.16-43.45-10.81-65.59-.15-4.56-.89-9.08-2.2-13.45-1.78-5.38-4.12-10.56-6.98-15.46-4.88-7.56-10.82-14.38-17.65-20.23-5.03-4.65-10.81-9.75-12.51-16.25-1.98-7.57,2.73-16.05,8.36-21.36,6.19-5.85,14.39-9.06,20.89-14.6,6.15-5.36,11.37-11.7,15.45-18.76,17.47-29.54,18.81-66.57,19.88-99.95.34-10.54-.3-21.06-.12-31.6.21-11.65,1.38-23.13,2.45-34.72,1-10.74,1.65-21.4,3.52-32.04,1.56-8.96,3.7-17.8,6.39-26.48,6.74-22.66,17.14-44.06,30.81-63.35.71-.97,1.43-1.94,2.15-2.89l1.14-1.5c-.96,1.25.36-.46.46-.58,1.85-2.34,3.72-4.66,5.64-6.93,4.01-4.75,8.18-9.37,12.51-13.84,10.68-11.08,22.23-21.27,34.55-30.49,32.37-23.71,68.85-41.22,107.59-51.65,43.74-12.52,89.57-16.03,134.71-10.32-1.68-.22,1.81.25,2.37.33,1.26.18,2.51.37,3.77.56,2.82.43,5.63.89,8.44,1.39,5.54.98,11.05,2.1,16.53,3.36,12.84,2.95,25.46,6.79,37.77,11.5,29.53,11.57,56.85,28.12,80.78,48.94,32.2,27.84,59.25,61.14,79.9,98.38,21.81,39.31,35.53,82.59,40.34,127.29,4.12,42.31-.17,85.01-12.62,125.66-10.27,33.3-25.46,64.88-45.07,93.69-7.62,11.31-15.88,22.16-24.75,32.51-10.6,12.39-22.28,23.74-33.76,35.3-13.87,13.98-27.65,28.44-38.44,45.01-7.56,11.61-15.86,27.19-14.77,41.55,1.15,11.13,3.17,22.15,6.06,32.95,3.55,15.18,8.13,30.09,13.73,44.64,5.2,13.24,11.25,26.56,20.71,37.35,6.12,6.98,16.26-3.23,10.17-10.17h0Z"/>
  <path class="st1" d="M344.31,203.02c0,38.18.1,76.35.09,114.53.05,3.95,3.24,7.14,7.19,7.19,38.27-.35,76.55-.37,114.81-.52,3.95-.06,7.14-3.24,7.19-7.19,0-38.11-.21-76.21-.2-114.32-.06-3.95-3.24-7.14-7.19-7.19-30.15,0-60.3.06-90.44.18-8.09.03-16.19.07-24.28.12-9.25.07-9.27,14.46,0,14.39,33.99-.27,67.98-.25,101.97-.3h12.75s-7.19-7.21-7.19-7.21c0,38.11.2,76.21.2,114.32l7.19-7.19c-38.27.14-76.55.17-114.81.52l7.19,7.19c0-38.18-.1-76.35-.09-114.53.02-9.25-14.37-9.27-14.38,0Z"/>
  <path class="st1" d="M163.13,212.03c-.67,16.56-1.15,33.14-1.71,49.71,0,3.97,3.23,7.19,7.2,7.19,3.97,0,7.19-3.22,7.19-7.19.56-16.57,1.04-33.14,1.71-49.71,0-3.97-3.22-7.2-7.19-7.2-3.97,0-7.2,3.22-7.2,7.19h0Z"/>
  <path class="st1" d="M167.95,292.17c10.52,18.01,20.98,36.06,31.56,54.03,2.06,4.27,6.22,7.14,10.94,7.56,4.34.65,8.66,1.46,13,2.16,8.72,1.41,17.48,2.63,26.26,3.6,3.96-.02,7.17-3.23,7.19-7.19-.09-3.94-3.26-7.11-7.19-7.19-6.31-.7-12.61-1.54-18.88-2.52-3.26-.51-6.52-1.04-9.78-1.59-3.71-.29-7.38-.96-10.96-1.99l3.17,1.85c-1.41-1.79-2.62-3.74-3.58-5.8l-3.76-6.43-8.64-14.79-16.91-28.95c-4.67-7.99-17.11-.76-12.43,7.26h0Z"/>
  <path class="st1" d="M261.09,364.54c4.87,8.5,9.59,17.09,14.62,25.5,2.08,3.82,5.52,6.73,9.64,8.13,3.8,1.32,7.89,2.04,11.79,3,17.15,4.16,34.3,8.29,51.56,11.99,9.03,1.94,12.89-11.93,3.82-13.87-15.97-3.43-31.87-7.22-47.75-11.06l-11.19-2.72c-1.44-.16-2.86-.53-4.2-1.09-1.03-1-1.83-2.2-2.37-3.53l-13.52-23.59c-4.6-8.03-17.04-.79-12.43,7.26h0Z"/>
  <path class="st1" d="M370.33,416.98c6.33,13.67,12.72,27.31,19.05,40.98,3.15,6.81,6.29,13.62,9.37,20.46.6,1.33,1.2,2.66,1.8,4,.24.53.47,1.07.71,1.6.14.33.6,1.76.45,1.18.65,2.64,1.83,7.96,2.7,11.59,2.45,10.34,4.86,20.71,6.96,31.13,1.09,3.81,5.02,6.04,8.85,5.03,3.78-1.12,6-5.03,5.02-8.85-1.88-9.33-4.01-18.61-6.19-27.88-1.45-7.5-3.61-14.84-6.45-21.93-6.46-14.52-13.22-28.91-19.93-43.32-3.3-7.09-6.59-14.17-9.89-21.26-2.03-3.4-6.41-4.55-9.84-2.58-3.36,2.06-4.49,6.4-2.58,9.84h-.02Z"/>
  <path class="st1" d="M460.1,461.69c17,0,33.99-.08,50.98-.14,5.44-.02,13.53,1.39,17.66-2.74,4.96-4.95,9.41-10.52,14.02-15.79,6.71-7.66,13.42-15.34,19.86-23.24,2.7-2.85,2.7-7.32,0-10.17-2.82-2.78-7.35-2.78-10.17,0-11.02,13.52-22.45,26.95-34.44,39.63l5.1-2.1c-20.98,0-42,.17-62.99.17-9.26,0-9.27,14.39,0,14.39h0Z"/>
  <path class="st1" d="M578.8,402.11c11.1-10.3,21.93-20.88,32.49-31.74,2.64-2.72,5.26-5.45,7.86-8.2,2.81-2.97,6.67-5.92,6.96-10.27.28-4.12-.04-8.39-.09-12.51-.26-21.21-.81-42.43-1.22-63.64-.19-9.5-.39-19-.4-28.5,0-9.26-14.39-9.27-14.39,0,.02,34.89,1.7,69.77,1.71,104.66l2.1-5.1c-14.52,15.59-29.59,30.63-45.21,45.11-6.8,6.31,3.39,16.49,10.17,10.19h0Z"/>
  <path class="st1" d="M265.06,125.21c20.44-2.37,40.91-4.59,61.36-6.85,28.49-3.15,56.99-6.27,85.49-9.36,10.41-1.13,20.82-2.26,31.24-3.33,3.93-.11,7.09-3.27,7.19-7.19-.03-3.96-3.23-7.17-7.19-7.19-22.18,2.28-44.34,4.75-66.5,7.17-28.02,3.07-56.04,6.16-84.05,9.27-9.18,1.03-18.35,2.04-27.53,3.1-3.92.11-7.08,3.27-7.19,7.19.02,3.96,3.23,7.17,7.19,7.19h0Z"/>
  <path class="st1" d="M452.91,454.49c0,11.6-.08,23.21-.08,34.81,0,13.37,9.26,24.28,17.39,34.1,2.82,2.79,7.37,2.79,10.19,0,2.72-2.85,2.72-7.33,0-10.17-3.82-4.66-7.34-9.56-10.55-14.66-1.14-1.75-1.96-3.69-2.4-5.73-.12-.52-.22-1.05-.28-1.59.06.63.07.42.07-.08v-5.43c0-10.42.08-20.83.08-31.25,0-9.26-14.39-9.27-14.39,0h-.01Z"/>
  <path class="st1" d="M465.99,109.51c24.75,13.06,49.25,26.59,74.04,39.57,8.2,4.29,15.48-8.12,7.26-12.42-24.8-12.98-49.3-26.51-74.04-39.57-8.18-4.32-15.46,8.09-7.26,12.42h0Z"/>
  <path class="st1" d="M558.28,162.95c15.06,21.01,30.15,42.01,45.26,62.99,2.07,3.34,6.4,4.47,9.84,2.58,3.4-2.02,4.55-6.41,2.58-9.84-15.08-21.01-30.17-42-45.26-63-2.08-3.34-6.4-4.47-9.84-2.58-3.4,2.03-4.55,6.41-2.58,9.84h0Z"/>
  <path class="st1" d="M358,188.11c0,4.4.09,8.8.09,13.19.02,1.9.77,3.73,2.1,5.1,2.81,2.81,7.36,2.81,10.17,0,1.32-1.37,2.07-3.19,2.1-5.1,0-4.4-.09-8.8-.09-13.19-.02-1.91-.77-3.73-2.1-5.1-2.81-2.81-7.36-2.81-10.17,0-1.32,1.37-2.07,3.19-2.1,5.1h0Z"/>
  <path class="st1" d="M386.62,188.11c0,4.4.09,8.8.09,13.19.02,1.91.77,3.73,2.1,5.1,2.81,2.81,7.36,2.81,10.17,0,1.32-1.37,2.07-3.19,2.1-5.1,0-4.4-.09-8.8-.09-13.19-.02-1.9-.77-3.73-2.1-5.1-2.81-2.81-7.36-2.81-10.17,0-1.32,1.37-2.08,3.19-2.1,5.1h0Z"/>
  <path class="st1" d="M415.24,188.11c0,4.4.09,8.8.09,13.19.02,1.91.77,3.73,2.1,5.1,2.81,2.81,7.36,2.81,10.17,0,1.32-1.37,2.07-3.19,2.1-5.1,0-4.4-.09-8.8-.09-13.19-.02-1.91-.77-3.73-2.1-5.1-2.81-2.81-7.36-2.81-10.17,0-1.32,1.37-2.07,3.19-2.1,5.1h0Z"/>
  <path class="st1" d="M443.86,188.11c0,4.4.09,8.8.09,13.19.02,1.9.77,3.73,2.1,5.1,2.81,2.81,7.36,2.81,10.17,0,1.32-1.37,2.07-3.19,2.1-5.1,0-4.4-.09-8.8-.09-13.19-.02-1.91-.77-3.73-2.1-5.1-2.81-2.81-7.36-2.81-10.17,0-1.32,1.37-2.07,3.19-2.1,5.1h0Z"/>
  <path class="st1" d="M358,320.47c0,4.4.09,8.8.09,13.19.02,1.9.77,3.73,2.1,5.1,2.81,2.81,7.36,2.81,10.17,0,1.32-1.37,2.07-3.19,2.1-5.1,0-4.4-.09-8.8-.09-13.19-.02-1.91-.77-3.73-2.1-5.1-2.81-2.81-7.36-2.81-10.17,0-1.32,1.37-2.07,3.19-2.1,5.1Z"/>
  <path class="st1" d="M386.62,320.47c0,4.4.09,8.8.09,13.19.02,1.9.77,3.73,2.1,5.1,2.81,2.81,7.36,2.81,10.17,0,1.32-1.37,2.07-3.19,2.1-5.1,0-4.4-.09-8.8-.09-13.19-.02-1.9-.77-3.73-2.1-5.1-2.81-2.81-7.36-2.81-10.17,0-1.32,1.37-2.07,3.19-2.1,5.1Z"/>
  <path class="st1" d="M415.24,320.47c0,4.4.09,8.8.09,13.19.02,1.91.77,3.73,2.1,5.1,2.81,2.81,7.36,2.81,10.17,0,1.32-1.37,2.07-3.19,2.1-5.1,0-4.4-.09-8.8-.09-13.19-.02-1.91-.77-3.73-2.1-5.1-2.81-2.81-7.36-2.81-10.17,0-1.32,1.37-2.07,3.19-2.1,5.1Z"/>
  <path class="st1" d="M443.86,320.47c0,4.4.09,8.8.09,13.19.02,1.9.77,3.73,2.1,5.1,2.81,2.81,7.36,2.81,10.17,0,1.32-1.37,2.07-3.19,2.1-5.1,0-4.4-.09-8.8-.09-13.19-.02-1.91-.77-3.73-2.1-5.1-2.81-2.81-7.36-2.81-10.17,0-1.32,1.37-2.07,3.19-2.1,5.1Z"/>
  <path class="st1" d="M480.95,210.73c-4.4,0-8.8.09-13.19.09-1.9.02-3.73.77-5.1,2.1-2.81,2.81-2.81,7.36,0,10.17,1.37,1.32,3.19,2.07,5.1,2.1,4.4,0,8.8-.09,13.19-.09,1.9-.02,3.73-.77,5.1-2.1,2.81-2.81,2.81-7.36,0-10.17-1.37-1.32-3.19-2.07-5.1-2.1Z"/>
  <path class="st1" d="M480.95,239.35c-4.4,0-8.8.09-13.19.09-1.91.02-3.73.77-5.1,2.1-2.81,2.81-2.81,7.36,0,10.17,1.37,1.32,3.19,2.07,5.1,2.1,4.4,0,8.8-.09,13.19-.09,1.9-.02,3.73-.77,5.1-2.1,2.81-2.81,2.81-7.36,0-10.17-1.37-1.32-3.19-2.07-5.1-2.1Z"/>
  <path class="st1" d="M480.95,267.96c-4.4,0-8.8.09-13.19.09-1.91.02-3.73.77-5.1,2.1-2.81,2.81-2.81,7.36,0,10.17,1.37,1.32,3.19,2.07,5.1,2.1,4.4,0,8.8-.09,13.19-.09,1.91-.02,3.73-.77,5.1-2.1,2.81-2.81,2.81-7.36,0-10.17-1.37-1.32-3.19-2.07-5.1-2.1Z"/>
  <path class="st1" d="M480.95,296.59c-4.4,0-8.8.09-13.19.09-1.9.02-3.73.77-5.1,2.1-2.81,2.81-2.81,7.36,0,10.17,1.37,1.32,3.19,2.07,5.1,2.1,4.4,0,8.8-.09,13.19-.09,1.9-.02,3.73-.77,5.1-2.1,2.81-2.81,2.81-7.36,0-10.17-1.37-1.32-3.19-2.07-5.1-2.1Z"/>
  <path class="st1" d="M348.59,210.73c-4.4,0-8.8.09-13.19.09-1.9.02-3.73.77-5.1,2.1-2.81,2.81-2.81,7.36,0,10.17,1.37,1.32,3.19,2.08,5.1,2.1,4.4,0,8.8-.09,13.19-.09,1.91-.02,3.73-.77,5.1-2.1,2.81-2.81,2.81-7.36,0-10.17-1.37-1.32-3.19-2.07-5.1-2.1Z"/>
  <path class="st1" d="M348.59,239.35c-4.4,0-8.8.09-13.19.09-1.91.02-3.73.77-5.1,2.1-2.81,2.81-2.81,7.36,0,10.17,1.37,1.32,3.19,2.07,5.1,2.1,4.4,0,8.8-.09,13.19-.09,1.9-.02,3.73-.77,5.1-2.1,2.81-2.81,2.81-7.36,0-10.17-1.37-1.32-3.19-2.07-5.1-2.1Z"/>
  <path class="st1" d="M348.59,267.96c-4.4,0-8.8.09-13.19.09-1.91.02-3.73.77-5.1,2.1-2.81,2.81-2.81,7.36,0,10.17,1.37,1.32,3.19,2.07,5.1,2.1,4.4,0,8.8-.09,13.19-.09,1.91-.02,3.73-.77,5.1-2.1,2.81-2.81,2.81-7.36,0-10.17-1.37-1.32-3.19-2.07-5.1-2.1Z"/>
  <path class="st1" d="M348.59,296.59c-4.4,0-8.8.09-13.19.09-1.9.02-3.73.77-5.1,2.1-2.81,2.81-2.81,7.36,0,10.17,1.37,1.32,3.19,2.08,5.1,2.1,4.4,0,8.8-.09,13.19-.09,1.91-.02,3.73-.77,5.1-2.1,2.81-2.81,2.81-7.36,0-10.17-1.37-1.32-3.19-2.07-5.1-2.1Z"/>
  <path class="st1" d="M535.27,337.07h46.62c3.97,0,7.19-3.22,7.19-7.19s-3.22-7.19-7.19-7.19h-46.62c-3.97,0-7.19,3.22-7.19,7.19s3.22,7.19,7.19,7.19Z"/>
  <path class="st1" d="M531.96,318.22c-6.29-.13-11.49,4.87-11.62,11.16,0,.13,0,.26,0,.39-.31,6.18,4.44,11.44,10.62,11.76.33.02.66.02,1,0,6.12.3,11.32-4.41,11.63-10.53.02-.41.02-.82,0-1.23.09-6.29-4.94-11.46-11.23-11.55-.13,0-.26,0-.39,0Z"/>
  <path class="st1" d="M277.84,225.18v-46.62c0-3.97-3.22-7.19-7.19-7.19s-7.19,3.22-7.19,7.19h0v46.62c0,3.97,3.22,7.19,7.19,7.19s7.19-3.22,7.19-7.19Z"/>
  <path class="st1" d="M241.58,294.43v-38.09c0-3.97-3.22-7.19-7.19-7.19s-7.19,3.22-7.19,7.19v38.09c0,3.97,3.22,7.19,7.19,7.19s7.19-3.22,7.19-7.19Z"/>
  <path class="st1" d="M484.65,415.41v-51.6c0-3.97-3.22-7.19-7.19-7.19s-7.19,3.22-7.19,7.19h0v51.6c0,3.97,3.22,7.19,7.19,7.19s7.19-3.22,7.19-7.19Z"/>
  <path class="st1" d="M514.82,415.41v-51.6c0-3.97-3.22-7.19-7.19-7.19s-7.19,3.22-7.19,7.19h0v51.6c0,3.97,3.22,7.19,7.19,7.19s7.19-3.22,7.19-7.19Z"/>
  <path class="st1" d="M454.47,415.41v-51.6c0-3.97-3.22-7.19-7.19-7.19s-7.19,3.22-7.19,7.19h0v51.6c0,3.97,3.22,7.19,7.19,7.19s7.19-3.22,7.19-7.19Z"/>
  <path class="st1" d="M239.42,250.97l-19.33-19.33c-2.81-2.81-7.37-2.81-10.18,0s-2.81,7.37,0,10.18l19.33,19.33c2.79,2.83,7.34,2.87,10.17.08s2.87-7.34.08-10.17c-.03-.03-.06-.06-.08-.08v-.02Z"/>
  <path class="st1" d="M528.27,231.35v-38.09c0-3.97-3.22-7.19-7.19-7.19s-7.19,3.22-7.19,7.19h0v38.09c0,3.97,3.22,7.19,7.19,7.19s7.19-3.22,7.19-7.19Z"/>
  <path class="st1" d="M526.22,198.07l21.8-21.8c2.83-2.79,2.87-7.34.08-10.17-2.79-2.83-7.34-2.87-10.17-.08-.03.03-.06.06-.08.08l-21.8,21.8c-2.79,2.83-2.75,7.39.08,10.17,2.8,2.75,7.29,2.75,10.09,0Z"/>
  <path class="st1" d="M314.87,195.49l44.96-44.96c2.83-2.79,2.87-7.34.08-10.17-2.79-2.83-7.34-2.87-10.17-.08-.03.03-.06.06-.08.08l-44.96,44.96c-2.83,2.79-2.87,7.34-.08,10.17,2.79,2.83,7.34,2.87,10.17.08.03-.03.06-.06.08-.08Z"/>
  <path class="st1" d="M308.01,351.83l18.67-18.67c2.79-2.83,2.75-7.39-.08-10.17-2.8-2.75-7.29-2.75-10.09,0l-18.67,18.67c-2.79,2.83-2.75,7.39.08,10.17,2.8,2.75,7.29,2.75,10.09,0Z"/>
  <path class="st1" d="M544.56,270.92l18.67-18.67c2.83-2.79,2.87-7.34.08-10.17-2.79-2.83-7.34-2.87-10.17-.08-.03.03-.06.06-.08.08l-18.67,18.67c-2.79,2.83-2.75,7.39.08,10.17,2.8,2.75,7.29,2.75,10.09,0Z"/>
  <path class="st1" d="M187.34,195.58c19.85-20.02,39.66-40.08,59.81-59.81,6.63-6.49-3.55-16.66-10.17-10.17-20.15,19.72-39.96,39.79-59.81,59.81-6.53,6.59,3.65,16.76,10.18,10.17Z"/>
  <path class="st1" d="M222.91,296.36c-.12,6.06,4.69,11.06,10.75,11.19.12,0,.25,0,.37,0,5.95.3,11.02-4.28,11.32-10.24.02-.32.02-.63,0-.95.29-5.89-4.24-10.9-10.13-11.19-.4-.02-.8-.02-1.2,0-6.05-.09-11.03,4.74-11.12,10.8,0,.13,0,.26,0,.39Z"/>
  <path class="st1" d="M259.42,173.97c-.12,6.06,4.69,11.06,10.75,11.19.12,0,.25,0,.37,0,5.95.3,11.02-4.28,11.32-10.23.02-.32.02-.64,0-.95.29-5.89-4.24-10.9-10.13-11.19-.4-.02-.8-.02-1.19,0-6.05-.09-11.03,4.74-11.12,10.8,0,.13,0,.26,0,.39Z"/>
</svg>