<?xml version="1.0" encoding="UTF-8"?>
<svg id="Warstwa_1" xmlns="http://www.w3.org/2000/svg" version="1.1" viewBox="0 0 700 700">
  <!-- Generator: Adobe Illustrator 30.2.1, SVG Export Plug-In . SVG Version: 2.1.1 Build 1)  -->
  <defs>
    <style>
      .st0 {
        fill: #fff;
        fill-rule: evenodd;
      }

      .st1 {
        fill: #3178c6;
      }
    </style>
  </defs>
  <rect class="st1" width="700" height="700" rx="32.8" ry="32.8"/>
  <path class="st0" d="M406.13,543.98v76.7c13.94,6.88,28.79,11.72,44.1,14.38,17.69,3.27,35.66,4.87,53.65,4.8,17.54.08,35.03-1.68,52.2-5.28,15.41-3.11,30.12-9.05,43.38-17.5,12.31-7.95,22.45-18.82,29.52-31.65,12.67-26.57,14.34-57.06,4.65-84.85-4.09-10.39-10.18-19.88-17.92-27.93-8.32-8.55-17.76-15.93-28.07-21.93-11.87-6.95-24.21-13.09-36.92-18.35-10-4.15-19-8.18-27-12.1-7.11-3.4-13.91-7.41-20.32-11.98-5.03-3.52-9.39-7.91-12.9-12.95-3.03-4.58-4.61-9.96-4.52-15.45-.07-5.05,1.34-10.01,4.05-14.27,2.94-4.46,6.87-8.19,11.47-10.9,5.63-3.32,11.76-5.7,18.15-7.07,7.85-1.74,15.86-2.58,23.9-2.5,6.76.02,13.51.51,20.2,1.45,7.23.98,14.38,2.46,21.4,4.43,7.14,1.98,14.13,4.49,20.9,7.5,6.57,2.93,12.86,6.46,18.77,10.55v-71.57c-12.32-4.66-25.1-8.01-38.12-10-15.73-2.29-31.61-3.37-47.5-3.22-17.37-.09-34.69,1.88-51.6,5.87-15.28,3.49-29.81,9.7-42.9,18.32-12.16,8.1-22.2,19-29.27,31.77-7.5,14.19-11.21,30.08-10.77,46.13-.55,21.22,6.44,41.95,19.72,58.5,16.3,18.35,36.86,32.42,59.88,40.97,10.5,4.33,20.29,8.58,29.37,12.73,8.2,3.65,16.07,7.97,23.55,12.93,6.03,3.92,11.33,8.87,15.65,14.62,3.8,5.22,5.82,11.52,5.75,17.97.03,4.84-1.21,9.6-3.6,13.8-2.66,4.52-6.39,8.3-10.87,11.02-5.61,3.42-11.74,5.88-18.15,7.3-8.35,1.87-16.89,2.75-25.45,2.62-16.79-.03-33.45-2.99-49.22-8.75-16.48-5.95-31.76-14.79-45.13-26.12ZM277.28,353.03h100v-63.18H98.45v63.18h99.55v281.35h79.27v-281.35Z"/>
</svg>