<?xml version="1.0" encoding="UTF-8"?>
<svg id="emoji" xmlns="http://www.w3.org/2000/svg" version="1.1" viewBox="0 0 37 60">
  <!-- Generator: Adobe Illustrator 30.2.1, SVG Export Plug-In . SVG Version: 2.1.1 Build 1)  -->
  <defs>
    <style>
      .st0 {
        fill: #d0cfce;
      }

      .st1 {
        fill: #9b9b9a;
      }

      .st2 {
        fill: #fff;
      }

      .st3 {
        stroke-miterlimit: 10;
      }

      .st3, .st4 {
        stroke: #000;
      }

      .st4 {
        fill: none;
        stroke-linecap: round;
        stroke-linejoin: round;
        stroke-width: 2px;
      }
    </style>
  </defs>
  <g id="color">
    <path class="st1" d="M35,59H2c-.55,0-1-.45-1-1V2c0-.55.45-1,1-1h33c.55,0,1,.45,1,1v56c0,.55-.45,1-1,1Z"/>
    <path class="st0" d="M30.53,49.24H6.47c-.53,0-.97-.43-.97-.97V8.2c0-.53.43-.97.97-.97h24.07c.53,0,.97.43.97.97v40.07c0,.53-.43.97-.97.97Z"/>
    <polygon class="st2" points="13.5 4.24 23.5 4.24 23.5 4.24 13.5 4.24"/>
  </g>
  <g id="line">
    <path class="st4" d="M35,59H2c-.55,0-1-.45-1-1V2c0-.55.45-1,1-1h33c.55,0,1,.45,1,1v56c0,.55-.45,1-1,1Z"/>
    <path class="st4" d="M30.53,49.24H6.47c-.53,0-.97-.43-.97-.97V8.2c0-.53.43-.97.97-.97h24.07c.53,0,.97.43.97.97v40.07c0,.53-.43.97-.97.97Z"/>
    <circle class="st3" cx="18.5" cy="54.24" r="2"/>
    <polygon class="st4" points="13.5 4.24 23.5 4.24 23.5 4.24 13.5 4.24"/>
  </g>
</svg>