<?xml version="1.0" encoding="UTF-8"?>
<svg id="Warstwa_1" xmlns="http://www.w3.org/2000/svg" version="1.1" viewBox="0 0 455 700">
  <!-- Generator: Adobe Illustrator 30.2.1, SVG Export Plug-In . SVG Version: 2.1.1 Build 1)  -->
  <defs>
    <style>
      .st0 {
        fill: #ff7262;
      }

      .st1 {
        fill: #a259ff;
      }

      .st2 {
        fill: #1abcfe;
      }

      .st3 {
        fill: #f24e1e;
      }

      .st4 {
        fill: #0acf83;
      }
    </style>
  </defs>
  <path class="st2" d="M227.5,350c0-64.45,50.95-116.65,113.75-116.65s113.75,52.15,113.75,116.65-50.9,116.65-113.75,116.65-113.75-52.15-113.75-116.65Z"/>
  <path class="st4" d="M0,583.35c0-64.45,50.95-116.7,113.75-116.7h113.75v116.7c0,64.4-50.95,116.65-113.75,116.65S0,647.75,0,583.35Z"/>
  <path class="st0" d="M227.5,0v233.35h113.75c62.85,0,113.75-52.25,113.75-116.7S404.1,0,341.25,0h-113.75Z"/>
  <path class="st3" d="M0,116.65c0,64.45,50.95,116.7,113.75,116.7h113.75V0h-113.75C50.95,0,0,52.25,0,116.65Z"/>
  <path class="st1" d="M0,350c0,64.45,50.95,116.65,113.75,116.65h113.75v-233.3h-113.75C50.95,233.35,0,285.5,0,350Z"/>
</svg>