<?xml version="1.0" encoding="UTF-8"?>
<svg id="Warstwa_1" xmlns="http://www.w3.org/2000/svg" version="1.1" viewBox="0 0 709.95 797.92">
  <!-- Generator: Adobe Illustrator 30.2.1, SVG Export Plug-In . SVG Version: 2.1.1 Build 1)  -->
  <defs>
    <style>
      .st0 {
        fill: #fff;
      }

      .st1 {
        fill: #390091;
      }

      .st2 {
        fill: #a179dc;
      }

      .st3 {
        fill: #280068;
      }
    </style>
  </defs>
  <path class="st2" d="M709.91,234.59c0-13.42-2.88-25.27-8.68-35.45-5.7-10.01-14.24-18.39-25.69-25.02-94.51-54.5-189.12-108.83-283.6-163.38-25.47-14.71-50.17-14.17-75.45.75-37.62,22.19-225.97,130.09-282.09,162.6C11.29,187.47.04,207.95.04,234.56c-.04,109.6,0,219.19-.04,328.79,0,13.12,2.75,24.75,8.3,34.77,5.7,10.31,14.36,18.93,26.07,25.71,56.13,32.51,244.5,140.41,282.11,162.6,25.29,14.92,49.99,15.46,75.47.75,94.49-54.56,189.1-108.88,283.62-163.38,11.71-6.78,20.37-15.4,26.07-25.7,5.54-10.02,8.3-21.65,8.3-34.77,0,0,0-219.14-.04-328.74"/>
  <path class="st3" d="M356.06,397.89L8.3,598.13c5.7,10.31,14.36,18.93,26.07,25.71,56.13,32.51,244.5,140.41,282.11,162.6,25.29,14.92,49.99,15.46,75.47.75,94.49-54.56,189.1-108.88,283.62-163.38,11.71-6.78,20.37-15.4,26.07-25.7l-345.59-200.21"/>
  <path class="st1" d="M709.91,234.59c0-13.42-2.88-25.27-8.68-35.45l-345.17,198.75,345.59,200.21c5.54-10.02,8.29-21.65,8.3-34.77,0,0,0-219.14-.04-328.74"/>
  <path class="st0" d="M560.81,323.04v37.43h37.43v-37.43h18.71v37.43h37.43v18.71h-37.43v37.43h37.43v18.71h-37.43v37.43h-18.71v-37.43h-37.43v37.43h-18.71v-37.43h-37.43v-18.71h37.43v-37.43h-37.43v-18.71h37.43v-37.43h18.71ZM598.24,379.18h-37.43v37.43h37.43v-37.43Z"/>
  <path class="st0" d="M356.82,135.07c97.62,0,182.85,53.02,228.51,131.82l-.45-.76-114.86,66.13c-22.63-38.32-64.12-64.17-111.7-64.7h-1.5c-72.57,0-131.41,58.82-131.41,131.39,0,23.73,6.33,45.98,17.33,65.19,22.65,39.54,65.23,66.21,114.08,66.21s91.97-27.01,114.5-66.97l-.55.96,114.68,66.44c-45.15,78.14-129.22,130.99-225.7,132.04l-2.94.02c-97.93,0-183.4-53.34-228.94-132.57-22.23-38.67-34.95-83.51-34.95-131.32,0-145.74,118.15-263.89,263.89-263.89Z"/>
</svg>