<?xml version="1.0" encoding="UTF-8"?>
<svg id="emoji" xmlns="http://www.w3.org/2000/svg" version="1.1" viewBox="0 0 22 55">
  <!-- Generator: Adobe Illustrator 30.2.1, SVG Export Plug-In . SVG Version: 2.1.1 Build 1)  -->
  <defs>
    <style>
      .st0 {
        fill: #d0cfce;
      }

      .st1 {
        fill: #9b9b9a;
      }

      .st2 {
        fill: none;
        stroke: #000;
        stroke-linecap: round;
        stroke-linejoin: round;
        stroke-width: 2px;
      }
    </style>
  </defs>
  <g id="color">
    <path class="st0" d="M11.2,1.37c-3.15,0-4.77.67-6.78,2.7-1.86,1.89-3.17,3.66-3.17,6.47l-.25,17.92c0,2.64.33,4.69,2,6.54,2.02,2.23,4.68,4,8,4,6.08,0,10-4.72,10-10.54l-.25-17.92c0-2.87-1.19-4.35-3.13-6.25-2-1.96-3.34-2.92-6.42-2.92h0ZM15,27.37c0,2.56-1.79,4.63-4,4.63-1.16,0-2-.4-3-1-1.21-.73-1.11-2.39-1-3.63v-15.74c0-1.15-.6-2.82,0-3.63.73-.98,2.79-1,4-1,1.3,0,3.27-.11,4,1,.51.78,0,2.58,0,3.63v15.74Z"/>
    <path class="st1" d="M7.01,27.37c.12-2.44,1.86-4.37,3.99-4.37,1.29,0,3.27.9,4,2,.52.78,0,1.57,0,2.63v15.74c0,1.17.62,2.81,0,3.63-.73.96-2.8,1-4,1-1.32,0-3.27-.85-4-2-.49-.77,0-1.61,0-2.63v-5.81c-3-.44-6-9.73-6-9.73v15.9c0,5.67,3.92,9.52,10,9.52s10-3.85,10-9.52v-17.46c0-5.67-3.92-10.27-10-10.27-1.62,0-3.15.33-4.53.91l.54,10.46Z"/>
  </g>
  <g id="line">
    <path class="st2" d="M12.23,32.85c-.39.1-.81.15-1.23.15-2.76,0-5-2.24-5-5V11c0-2.76,2.24-5,5-5s5,2.24,5,5v3"/>
    <path class="st2" d="M12.36,37.91c-.44.06-.9.09-1.36.09-5.52,0-10-4.48-10-10V11C1,5.48,5.48,1,11,1s10,4.48,10,10v7"/>
    <path class="st2" d="M9.76,22.15c.4-.1.81-.15,1.24-.15,2.76,0,5,2.24,5,5v17c0,2.76-2.24,5-5,5s-5-2.24-5-5v-3"/>
    <path class="st2" d="M9.75,17.08c.41-.05.83-.08,1.25-.08,5.52,0,10,4.48,10,10v17c0,5.52-4.48,10-10,10S1,49.52,1,44v-6"/>
  </g>
</svg>