<?xml version="1.0" encoding="UTF-8"?>
<svg id="Warstwa_1" xmlns="http://www.w3.org/2000/svg" version="1.1" viewBox="0 0 750 575.34">
  <!-- Generator: Adobe Illustrator 30.2.1, SVG Export Plug-In . SVG Version: 2.1.1 Build 1)  -->
  <defs>
    <style>
      .st0 {
        fill: #42ade2;
      }

      .st1 {
        fill: #f15744;
      }

      .st2 {
        fill: #b2c1c0;
      }

      .st3 {
        fill: #62696d;
      }

      .st4 {
        fill: #ffe62e;
      }

      .st5 {
        fill: #d33b23;
      }

      .st6 {
        fill: #3e4347;
      }

      .st7 {
        fill: #9c2c1b;
      }
    </style>
  </defs>
  <path class="st6" d="M581.25,313.75l58.75-35c20-15,55,0,77.5,33.75,21.25,33.75,22.5,72.5,2.5,87.5-1.25,1.25-2.5,2.5-5,2.5l-55,32.5-78.75-121.25"/>
  <path class="st3" d="M588.75,400c21.25,33.75,51.25,50,72.5,35,20-15,20-53.75-2.5-87.5-21.25-33.75-56.25-48.75-77.5-33.75-18.75,13.75-8.75,62.5,7.5,86.25"/>
  <path class="st6" d="M605,388.75c11.25,17.5,26.25,26.25,37.5,17.5,11.25-7.5,10-28.75-1.25-46.25-11.25-17.5-30-26.25-41.25-17.5-10,7.5-6.25,28.75,5,46.25"/>
  <path class="st2" d="M615,362.5c11.25-6.25,26.25,10,18.75,21.25l-48.75,30-15-26.25,45-25"/>
  <path class="st7" d="M571.25,305v67.5l-51.25-47.5,51.25-20Z"/>
  <path class="st6" d="M331.25,95l67.5-40c23.75-17.5,63.75,0,88.75,38.75,25,38.75,26.25,83.75,2.5,101.25-1.25,1.25-3.75,2.5-5,2.5l-62.5,37.5-91.25-140"/>
  <path class="st3" d="M338.75,193.75c25,38.75,60,57.5,83.75,40,23.75-17.5,22.5-62.5-2.5-101.25s-65-56.25-88.75-38.75c-22.5,16.25-10,72.5,7.5,100"/>
  <path class="st7" d="M613.75,498.75l-142.5-78.75-36.25,21.25-145-32.5-178.75-135v-63.75l178.75,125,145,52.5,36.25-26.25,142.5,115v22.5Z"/>
  <path class="st5" d="M666.25,442.5l-52.5,33.75-142.5-115-36.25,26.25-145-52.5-178.75-125,45-26.25,30,7.5,103.75-57.5-1.25-13.75,41.25-25,186.25,123.75,55,86.25-38.75,18.75,133.75,118.75Z"/>
  <path class="st1" d="M170,85v55l132.5,63.75,58.75-27.5-155-60v-31.25h-36.25Z"/>
  <path class="st7" d="M361.25,223.75v-47.5l-58.75,27.5-132.5-63.75v-55h-7.5v60l140,105,58.75-26.25Z"/>
  <path class="st1" d="M516.25,218.75l55,86.25-136.25,82.5-145-52.5,226.25-116.25Z"/>
  <g>
    <path class="st4" d="M516.25,218.75l55,86.25-15,8.75-56.25-87.5,16.25-7.5Z"/>
    <path class="st4" d="M331.25,95l185,123.75-16.25,7.5-183.75-122.5,15-8.75Z"/>
    <path class="st4" d="M318.75,320l136.25,55-20,12.5-145-52.5,28.75-15Z"/>
    <path class="st4" d="M133.75,196.25l185,123.75-28.75,15-178.75-125,22.5-13.75Z"/>
  </g>
  <path class="st7" d="M302.5,250c-3.75,26.25,36.25,60,75,65,67.5,10,98.75-28.75,78.75-68.75-18.75-36.25-93.75-28.75-93.75-28.75l-60,32.5"/>
  <path class="st6" d="M37.5,261.25l77.5-46.25c27.5-20,72.5,0,100,43.75,28.75,43.75,30,95,2.5,113.75-1.25,1.25-3.75,2.5-6.25,3.75l-71.25,42.5-102.5-157.5"/>
  <path class="st3" d="M46.25,373.75c28.75,43.75,67.5,65,95,45,27.5-20,25-70-2.5-113.75-28.75-43.75-73.75-63.75-100-43.75-26.25,18.75-12.5,81.25,7.5,112.5"/>
  <path class="st6" d="M68.75,358.75c15,23.75,33.75,33.75,48.75,23.75,13.75-10,13.75-37.5-1.25-61.25-16.25-22.5-40-33.75-55-22.5-13.75,10-7.5,36.25,7.5,60"/>
  <path class="st2" d="M518.75,418.75c11.25-6.25,26.25,10,18.75,21.25l-48.75,30-15-26.25,45-25"/>
  <path class="st6" d="M368.75,428.75l67.5-40c23.75-17.5,63.75,0,88.75,38.75s26.25,83.75,2.5,101.25c-1.25,1.25-3.75,2.5-5,2.5l-62.5,37.5-91.25-140"/>
  <path class="st3" d="M376.25,528.75c25,38.75,60,57.5,83.75,40,23.75-17.5,22.5-62.5-2.5-101.25s-65-56.25-88.75-38.75c-22.5,16.25-10,72.5,7.5,100"/>
  <path class="st6" d="M396.25,515c13.75,20,30,30,42.5,21.25s12.5-33.75-1.25-53.75-35-30-47.5-20c-12.5,8.75-7.5,32.5,6.25,52.5"/>
  <path class="st5" d="M258.75,0l50,45-232.5,122.5L0,97.5,258.75,0Z"/>
  <path class="st0" d="M320,246.25c0,37.5,45,56.25,80,56.25s48.75-18.75,48.75-56.25-28.75-67.5-65-67.5-63.75,30-63.75,67.5"/>
  <path class="st6" d="M358.75,245c1.25-13.75,48.75-13.75,85-16.25,11.25-1.25,10,41.25,0,42.5-57.5,5-86.25-12.5-85-26.25"/>
  <path class="st1" d="M725,398.75l25,55-163.75,110-73.75-33.75,147.5-91.25,65-40Z"/>
  <g>
    <path class="st4" d="M35,83.75l80,63.75,22.5-11.25-72.5-63.75-30,11.25Z"/>
    <path class="st4" d="M215,16.25l53.75,50,16.25-8.75-50-48.75-20,7.5Z"/>
    <path class="st4" d="M690,421.25l27.5,53.75,13.75-8.75-25-55-16.25,10Z"/>
    <path class="st4" d="M545,510l61.25,40,13.75-10-57.5-40-17.5,10Z"/>
  </g>
</svg>