<?xml version="1.0" encoding="UTF-8"?>
<svg id="Warstwa_1" xmlns="http://www.w3.org/2000/svg" version="1.1" viewBox="0 0 759.36 620.53">
  <!-- Generator: Adobe Illustrator 30.2.1, SVG Export Plug-In . SVG Version: 2.1.1 Build 1)  -->
  <defs>
    <style>
      .st0 {
        fill: #6b0306;
      }

      .st1 {
        fill: #fff;
      }

      .st2 {
        fill: #ecf3fe;
      }

      .st3 {
        fill: #6c0000;
      }

      .st4 {
        fill: #00dfd5;
      }

      .st5 {
        fill: #ffc700;
      }

      .st6 {
        fill: #bed5e9;
      }
    </style>
  </defs>
  <path class="st4" d="M121.77,349.51c-.05,146.61,118.77,265.51,265.38,265.55,146.61.05,265.51-118.77,265.55-265.38v-.17c.02-146.61-118.82-265.48-265.43-265.5-146.61-.02-265.48,118.82-265.5,265.43v.07h0Z"/>
  <path class="st3" d="M387.04,620.53c-124.84,0-232.95-84.78-262.88-206.16-17.32-70.27-6.24-143.08,31.2-205.02,37.44-61.94,96.76-105.6,167.03-122.92,21.29-5.26,43.14-7.92,65.08-7.94,124.84,0,232.94,84.77,262.87,206.15,35.75,145.06-53.16,292.18-198.22,327.94-21.29,5.25-43.14,7.92-65.07,7.94ZM387.46,89.47c-20.93,0-41.94,2.56-62.45,7.62-67.42,16.62-124.34,58.5-160.27,117.94-35.92,59.43-46.55,129.29-29.92,196.72,28.72,116.47,132.44,197.81,252.22,197.81,20.92,0,41.93-2.56,62.44-7.62,139.18-34.32,224.5-175.47,190.19-314.66-28.72-116.46-132.43-197.8-252.21-197.8Z"/>
  <path class="st0" d="M384.01,202.51C199.97,195.97,2.85,231.75.03,310.97c-2.82,79.2,191.27,128.9,375.31,135.44,184.04,6.54,381.17-29.24,383.98-108.45,2.82-79.22-191.27-128.91-375.31-135.45h0ZM743.69,337.41c-1.81,50.84-159.5,102.18-367.84,94.77-208.34-7.41-361.99-69.8-360.18-120.65,1.81-50.84,159.5-102.19,367.84-94.78,208.34,7.41,361.98,69.82,360.18,120.67Z"/>
  <path class="st4" d="M168.78,212.8c-6.42,7.85-12.83,20.57-15.82,26.87,63.04-14.38,137.48-18.98,228.94-15.73,101.19,3.6,185.02,16.69,248.86,38.61-2.47-6.82-10.94-24.52-13.91-31.02-69.43-20.7-147.17-39.3-233.61-42.37-78.68-2.79-147.2,10.88-214.46,23.65h0Z"/>
  <path class="st5" d="M403.95,424.17c0,37.76,30.61,68.37,68.37,68.37s68.37-30.61,68.37-68.37-30.61-68.37-68.37-68.37-68.37,30.61-68.37,68.37Z"/>
  <path class="st3" d="M472.38,497.1h0c-20.28.07-39.66-8.35-53.43-23.23-13.23-14.13-20.26-32.96-19.52-52.3,1.43-40.32,34.73-71.43,75.49-70.3,40.19,1.43,71.73,35.29,70.31,75.49-1.25,39.29-33.53,70.46-72.84,70.34ZM472.27,360.38c-34.38-.11-62.61,27.16-63.7,61.52-.65,16.92,5.5,33.39,17.07,45.75,11.5,12.42,27.49,19.72,44.41,20.27l2.32.04c34.38.11,62.61-27.16,63.7-61.52,1.25-35.16-26.33-64.78-61.48-66.02l-2.32-.04Z"/>
  <path class="st5" d="M597.58,123.86c0,8.03,6.51,14.54,14.54,14.54s14.54-6.51,14.54-14.54-6.51-14.54-14.54-14.54-14.54,6.51-14.54,14.54Z"/>
  <path class="st3" d="M612.11,142.97h-.67c-10.55-.39-18.79-9.25-18.43-19.8.33-10.3,8.79-18.46,19.09-18.43,11.22.38,19.49,9.26,19.12,19.79-.34,10.3-8.8,18.47-19.11,18.44h0ZM612.45,113.9c-5.74,0-10.11,4.22-10.3,9.6-.19,5.5,4.11,10.12,9.61,10.32l.35,4.58v-4.57c5.38.02,9.8-4.24,9.96-9.62.19-5.5-4.11-10.11-9.61-10.31h-.02,0Z"/>
  <path class="st5" d="M37.2,235.93c0,19.91,16.13,36.05,36.04,36.06,19.91,0,36.05-16.13,36.06-36.04v-.02c0-19.91-16.13-36.05-36.04-36.06-19.91,0-36.05,16.13-36.06,36.04v.02Z"/>
  <path class="st3" d="M73.28,276.55h0l-1.47-.03c-22.38-.8-39.95-19.65-39.15-42.04.71-21.88,18.68-39.24,40.57-39.18l1.46.03c10.78.36,20.96,5.01,28.29,12.92,7.37,7.86,11.28,18.35,10.87,29.12-.7,21.88-18.67,39.24-40.56,39.18ZM73.22,204.45c-16.96-.05-30.89,13.41-31.43,30.36-.62,17.35,12.99,31.96,30.33,32.57l1.15.03c16.96.05,30.89-13.4,31.42-30.36.32-8.35-2.71-16.47-8.41-22.57-5.68-6.12-13.57-9.72-21.92-10l-1.14-.03h0Z"/>
  <path class="st6" d="M281.39,197.44s-27.35,39.85,31.56,117.66l35.52-69.94-67.08-47.73h0Z"/>
  <path class="st3" d="M313.87,325.41l-5.3-6.99c-60.6-80.05-32.91-122.32-31.7-124.08l3.15-4.6,75.48,53.7-41.64,81.97h0ZM283.59,205.75c-4.22,12.12-9.49,45.4,28.5,98.92l29.33-57.76-57.83-41.16Z"/>
  <path class="st6" d="M401.82,115.16s47.07-11,98.14,72.17l-78.06,7.67-20.08-79.84Z"/>
  <path class="st3" d="M417.73,200.92l-22.59-89.83,5.43-1.27c.45-.1,2.9-.62,7.04-.62,15.28,0,55.32,7.33,97.04,75.25l4.59,7.47-91.5,9h0ZM408.73,120.18l17.33,68.9,64.48-6.34c-35.89-54.71-68.2-62.18-81.82-62.56h0Z"/>
  <path class="st6" d="M388.45,95.92C341.33,26.96,276.25-10.58,243.07,12.09s-21.87,96.94,25.24,165.9c30.68,44.91,68.99,76.47,101.14,86.78v-.02c.2.1.4.18.65.21,1.11.14,16.56-40.23,59.95-40.75.51-.01,1-.17,1.41-.46.53-.35.91-.9,1.06-1.52.03-.2.03-.4,0-.6,2.08-33.69-13.39-80.82-44.06-125.72h0Z"/>
  <path class="st3" d="M370.12,270.44h-.03l-1.54-.13-1.54-.66c-33.9-10.77-72.77-44-103.21-88.56-23.24-34.02-38.74-70.45-43.63-102.58-5.1-33.54,1.94-58.73,19.81-70.94,7.35-5.02,16.14-7.56,26.11-7.56,37.97,0,88.96,37.3,126.89,92.82,30.27,44.3,47.08,92.32,45.06,128.59l.06.43-.22,1.55c-.35,1.87-1.56,3.7-3.31,4.89-1.39.92-2.89,1.39-4.41,1.42-22.62.27-40.74,12.3-53.88,35.77-1.43,2.57-2.78,4.98-6.16,4.98h0ZM266.09,10.97c-7.72,0-14.43,1.9-19.91,5.64-14.22,9.7-19.59,31.1-15.16,60.24,4.64,30.54,19.5,65.36,41.83,98.04,27.65,40.48,63.66,72.09,94.86,83.47,14.57-25.04,34.56-38.34,59.46-39.55,1.12-33.29-15.29-78.88-43.24-119.8-35.42-51.84-83.88-88.04-117.84-88.04h0Z"/>
  <path class="st1" d="M406.49,131l-114.39,77.3c4.53,4.81,9.24,9.44,14.12,13.89l108-72.98c-2.35-6.16-4.93-12.24-7.74-18.2h0Z"/>
  <path class="st3" d="M305.72,229.14l-3.19-2.89c-4.98-4.54-9.8-9.27-14.42-14.18l-4.43-4.7,125.05-84.5,2.72,5.8c2.87,6.09,5.5,12.3,7.89,18.59l1.54,4.06-115.18,77.81h0ZM300.59,209.18c2.02,2.04,4.08,4.05,6.17,6.02l100.76-68.08c-1.06-2.66-2.18-5.31-3.33-7.94l-103.6,70h0Z"/>
  <path class="st1" d="M424.64,168.78l-101.6,69.41c4.31,3.81,9.09,7.05,14.24,9.62l91.48-61.75c-.37-4.79-2.43-12.75-4.12-17.28Z"/>
  <path class="st3" d="M337.73,254.13l-2.85-1.39c-5.6-2.78-10.81-6.3-15.49-10.45l-5.23-4.67,113.18-77.32,2.45,6.56c1.86,5,4.03,13.38,4.45,18.77l.24,3.18-96.74,65.31ZM332.31,238.51c1.51,1.05,3.07,2.04,4.62,2.91l85.94-58.02c-.32-1.83-.78-3.88-1.3-5.88l-89.27,60.99Z"/>
  <path class="st2" d="M273.29,102.08c0,17.21,13.94,31.17,31.15,31.18s31.17-13.94,31.18-31.15v-.03c0-17.21-13.94-31.17-31.15-31.18-17.21,0-31.17,13.94-31.18,31.15v.03Z"/>
  <path class="st3" d="M304.5,138.73c-.68,0-1.36-.02-2.04-.06-9.71-.5-18.82-4.87-25.29-12.12-6.51-7.23-9.86-16.76-9.3-26.48,1.09-20.1,18.24-35.9,38.6-34.58,9.71.51,18.82,4.88,25.29,12.14,6.51,7.23,9.86,16.76,9.3,26.48-1.05,19.42-17.11,34.63-36.56,34.64h0ZM304.43,76.4c-13.62,0-24.87,10.66-25.61,24.27-.4,6.8,1.95,13.48,6.52,18.54,4.53,5.09,10.91,8.16,17.72,8.51l1.45.04c13.62,0,24.86-10.66,25.61-24.26.39-6.81-1.95-13.49-6.52-18.56-4.54-5.08-10.92-8.15-17.72-8.51l-1.44-.03h0Z"/>
  <path class="st6" d="M280.51,91.39c4.84-8.3,15.27-11.35,25.4-9.65,22.1,3.7,23.05,30.14,22.02,32.73,5.4-13.57-1.22-28.94-14.79-34.34-12.17-4.84-26.04-.05-32.63,11.26Z"/>
</svg>