<?xml version="1.0" encoding="UTF-8"?>
<svg id="responsive" xmlns="http://www.w3.org/2000/svg" version="1.1" viewBox="0 0 666.67 666.67">
  <!-- Generator: Adobe Illustrator 30.2.1, SVG Export Plug-In . SVG Version: 2.1.1 Build 1)  -->
  <defs>
    <style>
      .st0 {
        fill: #2ca9bc;
      }

      .st1 {
        fill: #ffd039;
      }
    </style>
  </defs>
  <rect class="st1" x="346.33" y="250.22" width="282" height="380"/>
  <path id="secondary" class="st0" d="M66.67,66.67v366.67h266.67v-166.67c0-18.41,14.92-33.33,33.33-33.33h233.33V66.67c0-18.41-14.92-33.33-33.33-33.33H100c-18.41,0-33.33,14.92-33.33,33.33Z"/>
  <path d="M600,666.67h-233.33c-36.76,0-66.67-29.91-66.67-66.67v-66.67H66.67c-36.76,0-66.67-29.91-66.67-66.67v-33.33c0-18.41,14.92-33.33,33.33-33.33V66.67C33.33,29.91,63.24,0,100,0h466.67c36.76,0,66.67,29.91,66.67,66.67v142.28c19.91,11.54,33.33,33.09,33.33,57.72v333.33c0,36.76-29.91,66.67-66.67,66.67ZM366.67,500v100h233.33v-333.33h-40.64l-10.35,41.42c-3.71,14.84-17.04,25.25-32.34,25.25h-66.67c-15.29,0-28.63-10.41-32.34-25.25l-10.35-41.42h-40.64v233.33ZM100,400h200v-133.33c0-36.76,29.91-66.67,66.67-66.67h200V66.67H100s-.04,0-.04,0l.04,333.33Z"/>
</svg>