<?xml version="1.0" encoding="UTF-8"?>
<svg id="Layer_2" xmlns="http://www.w3.org/2000/svg" version="1.1" viewBox="0 0 691.39 656.96">
  <!-- Generator: Adobe Illustrator 30.2.1, SVG Export Plug-In . SVG Version: 2.1.1 Build 1)  -->
  <defs>
    <style>
      .st0 {
        fill: #5e5e91;
      }

      .st1 {
        fill: #44446d;
      }

      .st2 {
        fill: #50507c;
      }

      .st3 {
        fill: #fad564;
      }

      .st4 {
        fill: #f4a93f;
      }

      .st5 {
        fill: #f4c23f;
      }

      .st6 {
        fill: #f44533;
      }

      .st7 {
        fill: #7373a8;
      }

      .st8 {
        fill: #f8881b;
      }

      .st9 {
        fill: #f08000;
      }

      .st10 {
        fill: #de3226;
      }

      .st11 {
        fill: #b11a31;
      }
    </style>
  </defs>
  <path class="st0" d="M327.49,4.1L12.25,128.04c-7.34,2.93-7.34,13.31,0,16.23l333.62,131.16c2.04.82,4.32.82,6.36,0l333.62-131.16c7.38-2.93,7.38-13.31,0-16.23L370.61,4.1c-13.85-5.46-29.27-5.46-43.12,0Z"/>
  <polygon class="st1" points="234.85 120.7 130.3 190.67 233.17 231.14 234.85 120.7"/>
  <polygon class="st1" points="463.26 120.7 567.8 190.67 464.98 231.14 463.26 120.7"/>
  <path class="st0" d="M505.6,361.17H192.51l29-225.87c.95-7.18,6.28-13.01,13.35-14.6,83.2-18.52,159.54-18.64,229.03-.35,6.77,1.75,11.78,7.46,12.64,14.4l29.07,226.42Z"/>
  <path class="st1" d="M270.87,170.77c.94-7.19,6.27-13.02,13.35-14.6,69.46-15.45,134.15-18.09,194.07-7.92l-1.76-13.5c-.86-6.94-5.88-12.65-12.64-14.4-69.46-18.29-145.81-18.17-229.03.35-7.07,1.59-12.39,7.41-13.35,14.6l-29,225.87h53.93l24.43-190.4Z"/>
  <ellipse class="st1" cx="349.07" cy="361.17" rx="156.53" ry="19.24"/>
  <path class="st1" d="M582.32,325.27c-4.29.02-7.78-3.44-7.8-7.73,0-.03,0-.05,0-.08V95.88c0-4.31,3.49-7.8,7.8-7.8s7.8,3.49,7.8,7.8v221.58c0,4.31-3.49,7.8-7.8,7.8Z"/>
  <path class="st0" d="M581.23,401.95c-14.93-.02-27.02-12.12-27.04-27.04v-43.4c.57-14.93,13.13-26.56,28.05-26,14.13.54,25.46,11.87,26,26v43.4c-.02,14.91-12.09,27-27,27.04Z"/>
  <path class="st1" d="M567.8,389.74v-43.4c-.02-14.91,12.05-27.02,26.97-27.04,4.05,0,8.05.9,11.7,2.65-5.23-13.97-20.8-21.05-34.76-15.81-10.57,3.96-17.57,14.08-17.53,25.37v43.4c.01,10.41,5.99,19.89,15.38,24.39-1.16-3.05-1.76-6.29-1.76-9.56Z"/>
  <path class="st0" d="M658.85,430.09c-4.97-6.71-12.84-10.66-21.19-10.65H39.65c-8.35,0-16.21,3.95-21.19,10.65-24.61,33.2-24.61,66.39,0,99.59,4.98,6.71,12.84,10.66,21.19,10.65h598.01c8.35,0,16.22-3.94,21.19-10.65,24.66-33.2,24.66-66.39,0-99.59Z"/>
  <path class="st2" d="M674.34,497.13H76.33c-8.35,0-16.22-3.94-21.19-10.65-16.57-22.32-22-44.67-16.27-67.04-8.07.27-15.57,4.19-20.41,10.65-24.61,33.2-24.61,66.39,0,99.59,4.98,6.71,12.84,10.66,21.19,10.65h598.01c8.35,0,16.22-3.94,21.19-10.65,8.09-10.85,13.52-21.7,16.27-32.55h-.78Z"/>
  <rect class="st1" x="114.89" y="419.43" width="48.74" height="120.91"/>
  <rect class="st1" x="513.68" y="419.43" width="48.74" height="120.91"/>
  <rect class="st7" x="442.15" y="176.81" width="47.1" height="148.2" rx="23.53" ry="23.53" transform="translate(-31.03 68.99) rotate(-8.2)"/>
  <rect class="st7" x="435.65" y="-8.44" width="47.1" height="148.2" rx="23.53" ry="23.53" transform="translate(241.16 475.1) rotate(-70.1)"/>
  <path class="st7" d="M596.57,335.88h0c6.12,0,11.08,4.96,11.08,11.08v22.37c0,6.12-4.96,11.08-11.08,11.08h0c-6.12,0-11.08-4.96-11.08-11.08v-22.37c0-6.12,4.96-11.08,11.08-11.08Z"/>
  <path class="st5" d="M446.71,527.02c0,10.89-15.77,19.16-18.97,28.96s4.49,26.11-1.68,34.58-23.8,6.01-32.35,12.25-11.47,23.69-21.66,27-22.52-9.13-33.4-9.13-23.57,12.33-33.37,9.13-13.19-20.84-21.66-27-26.15-3.71-32.35-12.25,1.6-24.39-1.68-34.58-18.97-18.07-18.97-28.96,15.77-19.12,18.97-28.92-4.49-26.11,1.68-34.58,23.8-6.05,32.35-12.25,11.47-23.73,21.66-27,22.52,9.13,33.37,9.13,23.61-12.33,33.4-9.13,13.19,20.84,21.66,27,26.15,3.71,32.35,12.25-1.64,24.39,1.68,34.58,18.97,18.07,18.97,28.92Z"/>
  <path class="st4" d="M336.16,604.45c-39.05-.03-70.69-31.72-70.65-70.77.02-18.71,7.45-36.65,20.66-49.89,6.46-6.44,14.09-11.58,22.48-15.14,35.95-15.2,77.42,1.62,92.62,37.57,7.44,17.6,7.44,37.47-.01,55.07-11.06,26.16-36.69,43.16-65.09,43.16h0Z"/>
  <path class="st4" d="M380.96,549.15c-1.33-2.96-4.8-4.28-7.77-2.97l-43.4,19.51c-.59.29-1.15.65-1.64,1.09-.49-.44-1.04-.81-1.64-1.09l-43.4-19.51c-2.96-1.32-6.43,0-7.77,2.97l-20.14,44.84c7.84,4.53,21.27,3.63,28.41,8.82,8.2,5.97,11.28,22.56,20.68,26.65l23.84-53.03,21.15,47.02c7.92,3.43,16.04,8.55,22.75,6.36,10.19-3.32,13.19-20.84,21.66-27,2.58-1.87,5.97-2.97,9.64-3.79l-22.4-49.87Z"/>
  <path class="st10" d="M293.54,653.97l-10.26-18.19c-1.26-2.25-3.84-3.4-6.36-2.85l-20.41,4.37c-3.19.67-6.31-1.37-6.98-4.56-.25-1.21-.12-2.47.38-3.6l35.98-80c1.33-2.96,4.8-4.28,7.77-2.97l43.4,19.51c2.93,1.36,4.23,4.81,2.93,7.77l-35.98,80c-1.3,2.96-4.76,4.3-7.72,2.99-1.16-.51-2.12-1.38-2.74-2.49Z"/>
  <path class="st11" d="M298.46,563.82c2.81-6.08.16-13.3-5.92-16.11,0,0,0,0-.01,0l-3.47-1.6c-1.42.56-2.55,1.65-3.16,3.04l-35.98,80c-1.32,2.98.02,6.46,3,7.78,1.13.5,2.39.63,3.6.38l8.82-1.91,33.13-71.57Z"/>
  <path class="st10" d="M383.8,653.97l10.26-18.19c1.26-2.25,3.84-3.4,6.36-2.85l20.41,4.37c3.19.67,6.31-1.37,6.98-4.56.25-1.21.12-2.47-.38-3.6l-35.98-80c-1.33-2.96-4.8-4.28-7.77-2.97l-43.4,19.51c-2.94,1.35-4.25,4.81-2.93,7.77l35.94,80c1.33,2.97,4.82,4.3,7.79,2.97,1.14-.51,2.09-1.37,2.71-2.46Z"/>
  <path class="st11" d="M351.57,569.95l-13.15,5.85,34.89,77.66c1.33,2.97,4.82,4.3,7.79,2.97,1.14-.51,2.09-1.37,2.71-2.46l2.93-5.19-35.16-78.83Z"/>
  <path class="st11" d="M337.05,565.7l-43.4-19.51c-2.96-1.32-6.43,0-7.77,2.97l-9.83,21.81c11.08,17.85,29.5,29.87,50.3,32.82l13.62-30.32c1.3-2.95,0-6.4-2.93-7.77Z"/>
  <path class="st11" d="M399.06,566.01l-7.61-16.86c-1.33-2.96-4.8-4.28-7.77-2.97l-43.4,19.51c-2.94,1.35-4.25,4.81-2.93,7.77l13.23,29.5c4.48-.94,8.86-2.31,13.07-4.1,15.26-6.5,27.78-18.12,35.4-32.86h0Z"/>
  <circle class="st8" cx="338.65" cy="525.31" r="66.15"/>
  <circle class="st9" cx="338.65" cy="525.31" r="58.42"/>
  <circle class="st5" cx="338.65" cy="525.31" r="51.86"/>
  <path class="st3" d="M384.86,448.86h0c1.45-.85,2.72-1.99,3.71-3.36-5.11-7.73-8.66-18.69-16.51-21.23-2.69-.9-5.58-.59-8.62.31-1.87,3.59-1.76,7.89.27,11.4l4.92,8.55c3.29,5.67,10.55,7.61,16.23,4.33Z"/>
  <path class="st3" d="M338.93,437.31c.8-1.23,1.37-2.59,1.68-4.02-.65.08-1.3.12-1.95.12-9.52,0-20.49-9.52-29.66-9.68-.65,4.55,1.39,9.07,5.23,11.59l8.27,5.42c5.49,3.57,12.83,2.03,16.43-3.43h0Z"/>
  <path class="st3" d="M427.75,498.11c-3.32-10.19,4.49-26.11-1.68-34.58-3.86-5.35-12.21-6.36-19.98-7.88-2.11,3.5-3.03,7.6-2.61,11.67l1.52,15.92c1.01,10.58,10.4,18.34,20.98,17.33,0,0,.01,0,.02,0h0c.88-.08,1.75-.23,2.61-.43-.34-.65-.62-1.33-.86-2.03Z"/>
  <path class="st6" d="M314.47,608.84h0c4.4,2.03,6.32,7.25,4.29,11.65l-6.68,14.46c-2.03,4.4-7.25,6.32-11.65,4.29h0c-4.4-2.03-6.32-7.25-4.29-11.65l6.68-14.46c2.03-4.4,7.25-6.32,11.65-4.29Z"/>
  <path class="st6" d="M398.68,586.66h0c4.43-1.97,9.62.02,11.59,4.45l6.48,14.55c1.97,4.43-.02,9.62-4.45,11.59h0c-4.43,1.97-9.62-.02-11.59-4.45l-6.48-14.55c-1.97-4.43.02-9.62,4.45-11.59Z"/>
  <rect class="st7" x="567.8" y="419.43" width="70.71" height="34.75" rx="17.37" ry="17.37"/>
  <rect class="st7" x="430.4" y="419.43" width="70.71" height="34.75" rx="17.37" ry="17.37"/>
  <rect class="st7" x="49.99" y="419.43" width="54.44" height="34.75" rx="17.37" ry="17.37"/>
</svg>