<?xml version="1.0" encoding="UTF-8"?>
<svg id="Warstwa_1" xmlns="http://www.w3.org/2000/svg" version="1.1" viewBox="0 0 778.53 797.99">
  <!-- Generator: Adobe Illustrator 30.2.1, SVG Export Plug-In . SVG Version: 2.1.1 Build 1)  -->
  <defs>
    <style>
      .st0 {
        fill: #fff;
        stroke: #000;
        stroke-miterlimit: 10;
      }

      .st1 {
        fill: #384551;
      }
    </style>
  </defs>
  <polygon class="st0" points="98 398.99 357 150.89 662 69.89 726 421.89 651 727.89 253 600.89 98 398.99"/>
  <path class="st1" d="M507.6,399.02l139.65-241.14,67.48,241.14-67.48,241.08-139.65-241.08h0ZM439.53,438.18l139.67,241.1-243.24-62.32-175.73-178.79h279.3,0ZM579.17,118.68l-139.64,241.14H160.23l175.73-178.8,243.21-62.34h0ZM778.53,316.95L693.33,0l-317.99,84.94-47.07,82.76-95.52-.68L0,399.04l232.75,231.97h0l95.48-.71,47.14,82.76,317.96,84.93,85.2-316.9-48.38-82.08,48.38-82.06h0Z"/>
</svg>