<?xml version="1.0" encoding="UTF-8"?>
<svg id="emoji" xmlns="http://www.w3.org/2000/svg" version="1.1" viewBox="0 0 44.16 47.48">
  <!-- Generator: Adobe Illustrator 30.2.1, SVG Export Plug-In . SVG Version: 2.1.1 Build 1)  -->
  <defs>
    <style>
      .st0 {
        fill: #d0cfce;
      }

      .st1 {
        fill: #9b9b9a;
      }

      .st2 {
        fill: none;
        stroke: #000;
        stroke-linecap: round;
        stroke-linejoin: round;
        stroke-width: 2px;
      }
    </style>
  </defs>
  <g id="color">
    <polyline class="st1" points="43.16 38.86 43.16 1 2.2 1 2.2 31.15 2.2 42.31 41.63 40.96"/>
    <polyline class="st1" points="43.16 38.86 43.16 1 3.16 1 3.16 31.15"/>
    <polygon class="st0" points="35.13 28.19 1 35.69 1.81 46.48 33 42.32 36.28 41.88 40.16 41.36 35.13 28.19"/>
  </g>
  <g id="line">
    <polyline class="st2" points="43.16 38.86 43.16 1 3.16 1 3.16 31.15"/>
    <polygon class="st2" points="35.13 28.19 1 35.69 1.81 46.48 33 42.32 36.28 41.88 40.16 41.36 35.13 28.19"/>
    <line class="st2" x1="7.78" y1="6.04" x2="23.16" y2="6.04"/>
    <line class="st2" x1="7.78" y1="11.37" x2="38.82" y2="11.37"/>
    <line class="st2" x1="7.78" y1="22.26" x2="38.82" y2="22.26"/>
    <line class="st2" x1="7.78" y1="27.67" x2="20.55" y2="27.67"/>
    <line class="st2" x1="7.78" y1="16.86" x2="38.82" y2="16.86"/>
    <path class="st2" d="M43.16,38.36c0,1.66-1.34,3-3,3"/>
  </g>
</svg>