<?xml version="1.0" encoding="UTF-8"?>
<svg id="Warstwa_1" xmlns="http://www.w3.org/2000/svg" version="1.1" viewBox="0 0 700.07 524.51">
  <!-- Generator: Adobe Illustrator 30.2.1, SVG Export Plug-In . SVG Version: 2.1.1 Build 1)  -->
  <defs>
    <style>
      .st0 {
        fill: #cd6799;
      }
    </style>
  </defs>
  <path class="st0" d="M602.75,301.77c-21.98.03-43.67,5.06-63.43,14.7-6.18-10.26-10.96-21.31-14.2-32.85-1.86-9.04-2.29-18.32-1.28-27.5,2.14-10.1,4.91-20.05,8.3-29.8-.12-1.27-1.53-7.3-15.6-7.5s-26.2,2.68-27.5,6.4c-2.44,6.8-4.41,13.77-5.88,20.85-11.65,28.74-25.99,56.31-42.82,82.35-9.43-15.46-13.31-33.68-11-51.65,2.14-10.1,4.91-20.05,8.3-29.8-.12-1.27-1.53-7.3-15.6-7.5s-26.2,2.68-27.5,6.4-2.95,12.5-5.88,20.85c-2.93,8.35-37.07,84.65-46.02,104.33-4.6,10-8.58,18.15-11.37,23.65h0c-.13.36-.3.7-.5,1.03-2.5,4.72-3.82,7.3-3.82,7.3v.12c-1.92,3.45-3.98,6.65-5,6.65-1.79-7.14-1.7-14.63.25-21.72,5-26.48,17.25-67.62,17.13-69.05,0-.78,2.3-7.92-7.93-11.63-4.86-2.31-10.65-1.31-14.45,2.5-.9,0-1.52,2.17-1.52,2.17,0,0,11.12-46.27-21.22-46.27-25.45,5.12-47.76,20.29-61.88,42.08-8.7,4.72-27.22,14.83-47.05,25.7-7.5,4.23-15.35,8.45-22.62,12.5-.5-.5-1.03-1.15-1.52-1.65-39.37-41.95-111.75-71.55-108.62-127.67,1.15-20.45,8.18-74.15,138.98-139.37,107.65-53.05,193.32-38.35,208.15-5.75,21.22,46.55-45.9,132.97-157.12,145.5-24.92,5.06-50.8-1.48-70.32-17.78-5.87-6.4-6.77-6.77-8.95-5.5-3.57,1.92-1.27,7.68,0,11,8.57,15.51,23.05,26.9,40.15,31.58,43.76,9.46,89.38,4.93,130.43-12.93,67.5-26.08,120-98.57,104.6-159.3-15.47-61.63-117.75-81.95-214.55-47.5-60.63,20.4-116.65,52.54-164.88,94.57C5.65,161.15-2.78,204.47.67,222.65c12.5,64.45,101.27,106.37,136.8,137.5-1.8,1.03-3.45,1.92-4.85,2.68-17.77,8.83-85.53,44.25-102.5,81.7-19.17,42.5,3.07,72.87,17.77,76.98,45.41,10.87,92.71-8.29,117.75-47.7,21.11-32.36,25.06-73,10.57-108.82-.12-.29-.29-.55-.5-.78l13.93-8.17c9.07-5.38,18.02-10.35,25.7-14.45-5.2,15.01-8.26,30.68-9.07,46.55-1.77,24.32,5.68,48.41,20.85,67.5,4.66,4.01,10.74,6,16.88,5.5,15,0,21.88-12.5,29.4-27.35,9.2-18.15,17.5-39.25,17.5-39.25,0,0-10.35,57.03,17.78,57.03,10.23,0,20.57-13.3,25.2-20v.12s.25-.37.78-1.28l1.65-2.68v-.25c4.1-7.15,13.3-23.4,26.98-50.37,17.65-34.78,34.65-78.25,34.65-78.25,1.64,9.55,3.9,18.99,6.77,28.25,4.12,11.22,8.99,22.16,14.58,32.73-4.1,5.75-6.65,8.95-6.65,8.95l.12.12c-3.32,4.35-6.9,9.08-10.87,13.68-11.83,13-22.8,26.76-32.85,41.17-3.1,5.03-1.75,11.6,3.07,15,5.26,2.74,11.26,3.73,17.12,2.83,8.84-.5,17.52-2.49,25.7-5.88,7.9-2.78,15.35-6.7,22.13-11.63,14.2-9.84,22.24-26.36,21.22-43.6-.79-10.68-3.51-21.13-8.05-30.82,1.28-1.8,2.5-3.57,3.7-5.38,14.21-21.22,27.02-43.34,38.35-66.23,1.64,9.55,3.9,18.99,6.77,28.25,3.4,9.7,7.58,19.1,12.5,28.12-16.35,12.58-29.23,29.12-37.42,48.05-8.05,23.27-1.8,33.75,10,36.18,6.46.45,12.91-.88,18.67-3.82,8.47-2.78,16.45-6.88,23.65-12.15,15.42-9.1,25.22-25.35,26.07-43.23-.57-8.79-2.55-17.42-5.88-25.58,21.58-8.43,44.97-11.12,67.9-7.8,60.85,7.15,72.88,45.13,70.57,61.12-2.18,11.48-9.22,21.45-19.3,27.35-4.23,2.68-5.63,3.57-5.25,5.5.5,2.83,2.5,2.68,6.13,2.17,18.77-5.84,32.01-22.63,33.3-42.25,1.92-37.5-33.87-78.63-97.18-78.25l-.07.05ZM133.25,459.97c-20.2,22-48.33,30.3-60.47,23.27-13.05-7.5-7.92-40,16.88-63.3,14.71-13.24,30.61-25.1,47.5-35.42,2.95-1.8,7.3-4.35,12.5-7.5l1.4-.78h0l3.08-1.92c9.02,30.22,1.04,62.97-20.88,85.65ZM280.27,359.97c-7.03,17.12-21.73,61-30.68,58.55-7.68-2.05-12.5-35.3-1.52-68.15,5.54-15.81,13.61-30.62,23.9-43.85,11-12.27,23.15-16.38,26.08-11.37-2.67,22.37-8.66,44.22-17.78,64.83h0ZM401.6,418.02c-2.95,1.53-5.75,2.5-7.03,1.8-.9-.5,1.28-2.5,1.28-2.5,0,0,15.22-16.38,21.23-23.78,3.45-4.35,7.5-9.45,11.9-15.22v1.65c0,19.55-18.92,32.73-27.35,38.1l-.03-.05ZM495.2,396.67c-2.17-1.53-1.8-6.65,5.5-22.63,5.08-10.26,12.17-19.39,20.85-26.85,1.33,3.78,2.02,7.76,2.05,11.78.2,17.56-11.45,33.05-28.38,37.73l-.02-.03Z"/>
</svg>