<?xml version="1.0" encoding="UTF-8"?>
<svg id="Warstwa_1" xmlns="http://www.w3.org/2000/svg" version="1.1" viewBox="0 0 799.72 711.52">
  <!-- Generator: Adobe Illustrator 30.2.1, SVG Export Plug-In . SVG Version: 2.1.1 Build 1)  -->
  <defs>
    <style>
      .st0 {
        fill: #00d8ff;
      }
    </style>
  </defs>
  <circle class="st0" cx="399.87" cy="355.1" r="71.4"/>
  <path class="st0" d="M399.86,226.97c92.27,0,179.92,13.01,246.55,35.95,74,25.48,119.15,63.14,119.15,92.17,0,30.91-48.75,71.05-127.91,97.28-63.02,20.88-147.34,32.26-237.78,32.26-95.02,0-180.29-11.16-242.57-32.45-39-13.33-71.2-30.65-93.27-49.55-19.83-16.99-29.85-33.85-29.85-47.53,0-29.12,43.41-66.26,115.82-91.51,66.66-23.24,156.46-36.61,249.87-36.61h0M399.86,192.81c-97.05,0-190.6,13.93-261.12,38.51C54.07,260.84,0,307.1,0,355.09s58.05,99.27,146.23,129.41c66.29,22.66,155.14,34.29,253.62,34.29s181.72-11.86,248.53-33.99c91.68-30.38,151.33-79.48,151.33-129.71s-55.82-94.73-142.19-124.47c-70.43-24.25-161.81-37.81-257.67-37.81h0M288.26,291.44c46.09-79.93,101.15-149.36,154.31-195.62,59.04-51.38,114.22-71.67,139.36-57.17,26.78,15.44,37.19,77.73,20.37,159.4-13.4,65.02-45.66,143.75-90.84,222.1-47.47,82.31-99.73,150.6-149.29,193.92-31.03,27.12-62.12,46.37-89.52,56.04-24.62,8.7-44.24,8.95-56.09,2.11-25.23-14.55-35.71-70.71-21.41-146.05,13.17-69.36,46.45-153.82,93.12-234.74h0M258.67,274.37c-48.48,84.07-83.16,172.07-97.09,245.44-16.73,88.09-3.66,158.04,37.91,182.02,42.94,24.76,115-.69,185.16-62.03,52.74-46.1,107.21-117.26,156.41-202.58,46.89-81.31,80.51-163.35,94.71-232.28,19.49-94.59,6.75-170.8-36.76-195.89-41.72-24.06-109.95,1.03-178.86,60.99-56.19,48.9-113.59,121.28-161.48,204.32h0M288.37,420.34c-46.23-79.85-78.88-162.22-92.41-231.38-15.03-76.81-5.05-134.75,20.07-149.29,26.76-15.49,85.92,6.59,148.27,61.96,49.64,44.08,101.74,111.35,147.05,189.63,47.61,82.23,80.67,161.62,93.45,226.19,8,40.43,9.15,76.97,3.84,105.55-4.76,25.68-14.34,42.79-26.18,49.65-25.2,14.59-79.1-4.37-137.22-54.39-53.51-46.05-110.06-117.06-156.87-197.91h0M258.8,437.46c48.62,83.99,107.55,157.98,164.15,206.69,67.97,58.49,135.09,82.1,176.62,58.06,42.89-24.83,56.83-99.97,38.74-191.4-13.6-68.72-48.06-151.44-97.4-236.67-47.03-81.23-101.31-151.33-153.94-198.06C314.76,11.96,242.37-15.06,198.91,10.1c-41.68,24.13-54.02,95.77-36.48,185.42,14.3,73.1,48.35,158.98,96.37,241.94h0"/>
</svg>