<?xml version="1.0" encoding="UTF-8"?>
<svg id="emoji" xmlns="http://www.w3.org/2000/svg" version="1.1" viewBox="0 0 51.94 33.21">
  <!-- Generator: Adobe Illustrator 30.2.1, SVG Export Plug-In . SVG Version: 2.1.1 Build 1)  -->
  <defs>
    <style>
      .st0 {
        fill: #d0cfce;
      }

      .st1 {
        fill: #9b9b9a;
      }

      .st2 {
        fill: #ea5a47;
      }
    </style>
  </defs>
  <path class="st1" d="M50.94,2.11v26.56c0,.86-.2,1.65-.55,2.27l-12.27-11.23-1.62,1.23-2.45-3.23S50.94,2.11,50.94,2.11Z"/>
  <path class="st0" d="M1.9,4.21v26.48l-.33.3c.43.75,1.07,1.22,1.77,1.22h45.26c.72,0,1.37-.5,1.79-1.27l-15.28-13.99c5.61-5.72,14.62-14.96,14.58-15.01-.41-.56-8.99-.95-8.99-.95h-.72s0,0,0,0H11.46v.09H3.71c-.62,0-1.19.11-1.61.71-.05.07-.1.14-.14.2l-.06,2.21Z"/>
  <path class="st2" d="M27.98,8.1h-3v-1.5h2c.55,0,1-.45,1-1s-.45-1-1-1h-2v-1.5h3c.55,0,1-.45,1-1s-.45-1-1-1h-4c-.55,0-1,.45-1,1v7c0,.55.45,1,1,1h4c.55,0,1-.45,1-1s-.45-1-1-1Z"/>
  <path d="M51.94,1.66c0-.16-.05-.31-.11-.44-.03-.1-.08-.2-.13-.29C51.19.06,50.04,0,49.23,0h-9.46c-.55,0-1,.45-1,1s.45,1,1,1h9.36l-14.88,14.14-4.44,4.1c-.19.17-.39.34-.62.5-1.03.77-2.13,1.15-3.24,1.15-1.11,0-2.23-.39-3.28-1.17-.2-.13-.4-.29-.6-.47l-4.47-4.13s0,0,0,0,0,0,0,0l-.54-.49L2.32,2.02c.11-.01.25-.02.43-.02h8.48c.55,0,1-.45,1-1S11.78,0,11.23,0H2.75C.36,0,0,1.35,0,2.16c0,.04.02.08.03.12,0,.06-.02.1-.02.16v26.22s0,.08,0,.12c0,.17.01.34.03.5.03.3.08.6.15.88.05.2.12.39.18.57.03.07.05.14.08.2.11.26.23.51.38.73.11.16.22.32.34.46.03.04.05.08.09.12.06.06.12.11.18.16.55.51,1.21.8,1.91.8h45.26c1.05,0,2.05-.66,2.66-1.78,0,0,0,0,0,0,0,0,0,0,0,0,0,0,0,0,0,0,0,0,0,0,0-.01.44-.78.67-1.73.67-2.74V1.66ZM48.6,31.21H3.41s-.21-.02-.44-.15l8.07-7.43s0,0,0,0l3.29-3.03c.41-.37.43-1.01.06-1.41-.37-.41-1.01-.43-1.41-.06L2.04,29.2c-.02-.18-.03-.35-.03-.53V4.63l13.65,12.42,5.06,4.67c.28.25.56.48.8.64,1.39,1.03,2.92,1.55,4.44,1.55,0,0,0,0,0,0s0,0,0,0c1.52,0,3.03-.51,4.41-1.54.25-.17.51-.39.8-.65l3.52-3.25s.05-.02.07-.04l.74-.7.17-.16s0,0,0,0l14.28-13.17v24.28c0,.16,0,.32-.03.48l-6.91-6.32-4.21-3.86s0,0,0,0l-.08-.07c-.41-.37-1.04-.34-1.41.06-.37.41-.35,1.04.06,1.41l11.66,10.67c-.14.1-.29.16-.43.16Z"/>
</svg>