<?xml version="1.0" encoding="UTF-8"?>
<svg id="emoji" xmlns="http://www.w3.org/2000/svg" version="1.1" viewBox="0 0 52 52">
  <!-- Generator: Adobe Illustrator 30.2.1, SVG Export Plug-In . SVG Version: 2.1.1 Build 1)  -->
  <defs>
    <style>
      .st0 {
        fill: #61b2e4;
      }

      .st1 {
        fill: #fff;
      }
    </style>
  </defs>
  <g id="color">
    <rect class="st0" x="1" y="1" width="50" height="50" rx="3" ry="3"/>
    <rect class="st1" x="10" y="20" width="6" height="21"/>
    <circle class="st1" cx="13" cy="12" r="3.5"/>
    <path class="st1" d="M32.5,25c-2.21,0-4,1.17-4,4.5v11.5h-6v-21h6v2.21h0c1.52-1.73,3.7-2.71,6-2.71,4.42,0,8,3.3,8,9v12.5h-6v-11.5c0-3.33-1.79-4.5-4-4.5"/>
  </g>
  <g id="line">
    <path d="M48,52H4c-2.21,0-4-1.79-4-4V4C0,1.79,1.79,0,4,0h44c2.21,0,4,1.79,4,4v44c0,2.21-1.79,4-4,4ZM4,2c-1.1,0-2,.9-2,2v44c0,1.1.9,2,2,2h44c1.1,0,2-.9,2-2V4c0-1.1-.9-2-2-2H4Z"/>
    <path d="M16,42h-6c-.55,0-1-.45-1-1v-21c0-.55.45-1,1-1h6c.55,0,1,.45,1,1v21c0,.55-.45,1-1,1ZM11,40h4v-19h-4v19Z"/>
    <path d="M13,16.5c-2.48,0-4.5-2.02-4.5-4.5s2.02-4.5,4.5-4.5,4.5,2.02,4.5,4.5-2.02,4.5-4.5,4.5ZM13,9.5c-1.38,0-2.5,1.12-2.5,2.5s1.12,2.5,2.5,2.5,2.5-1.12,2.5-2.5-1.12-2.5-2.5-2.5Z"/>
    <path d="M42.5,42h-6c-.55,0-1-.45-1-1v-11.5c0-2.39-.95-3.5-3-3.5s-3,1.11-3,3.5v11.5c0,.55-.45,1-1,1h-6c-.55,0-1-.45-1-1v-21c0-.55.45-1,1-1h6c.55,0,1,.45,1,1h0c1.46-.96,3.2-1.5,4.99-1.5h.01c5.3,0,9,4.11,9,10v12.5c0,.55-.45,1-1,1ZM37.5,40h4v-11.5c0-4.79-2.81-8-7-8h0c-2.01,0-3.92.86-5.24,2.37-.27.31-.71.42-1.1.27-.39-.15-.65-.52-.65-.94v-1.21s-4,0-4,0v19h4v-10.5c0-3.5,1.82-5.5,5-5.5s5,2,5,5.5v10.5Z"/>
  </g>
</svg>