<?xml version="1.0" encoding="UTF-8"?>
<svg id="Warstwa_1" xmlns="http://www.w3.org/2000/svg" version="1.1" xmlns:serif="http://www.serif.com/" viewBox="0 0 696.52 430.82">
  <!-- Generator: Adobe Illustrator 30.2.1, SVG Export Plug-In . SVG Version: 2.1.1 Build 1)  -->
  <defs>
    <style>
      .st0 {
        fill-opacity: .5;
      }

      .st0, .st1, .st2 {
        fill-rule: evenodd;
      }

      .st2 {
        fill: #ededed;
      }
    </style>
  </defs>
  <path class="st2" d="M457.72,303.73c-5.45-18.71-22.9-14.18-23.25-14.18-95.96.3-173.41,0-173.41,0-12.41.3-20.7,4.52-23.25,14.18-1.63,6.15-2.58,9.61-3.83,14.28q-2.01,7.54-.09.34c-6.51,24.29-22.4,44.99-44.17,57.56-21.77,12.57-55.65,15.98-79.94,9.47l-.08-.02c-24.29-6.51-44.99-22.4-57.56-44.17-12.57-21.77-15.98-47.65-9.47-71.94,13.19-49.23,28.57-106.63,41.76-155.86,6.51-24.29,22.4-44.99,44.17-57.56,21.77-12.57,47.65-15.98,71.94-9.47l.08.02c16.21,4.34,30.83,8.87,42.5,20.54,4.49,4.49,10.59,11.02,16.94,11.02h176.42c6.35,0,12.45-6.52,16.94-11.02,11.67-11.67,26.28-16.19,42.5-20.54l.08-.02c24.29-6.51,50.16-3.1,71.94,9.47,21.77,12.57,37.66,33.28,44.17,57.56,13.19,49.23,28.57,106.63,41.76,155.86,6.51,24.29,3.1,50.16-9.47,71.94-12.57,21.77-33.28,37.66-57.56,44.17l-.08.02c-24.29,6.51-59.16,3.1-80.94-9.47-21.56-12.45-37.35-32.87-43.97-56.85l-4.11-15.34h0Z"/>
  <path class="st1" d="M273.23,330.21h150.06c9.98,34.55,32.96,63.93,64.17,81.95,32,18.47,70.03,23.48,105.72,13.92.03,0,.05-.01.08-.02,35.69-9.56,66.12-32.91,84.6-64.91,18.47-32,23.48-70.03,13.92-105.72-12.88-48.06-27.89-104.1-40.77-152.16-9.56-35.69-32.91-66.12-64.91-84.6C554.09.19,516.07-4.82,480.37,4.75c-.03,0-.05.01-.08.02-20.53,5.5-39.33,15.57-55.1,29.22,0,0-153.87,0-153.87,0-15.76-13.64-34.55-23.71-55.09-29.21-.03,0-.05-.01-.08-.02C180.46-4.82,142.43.19,110.43,18.67c-32,18.47-55.35,48.91-64.91,84.6-12.88,48.06-27.89,104.1-40.77,152.16-9.56,35.69-4.56,73.72,13.92,105.72,18.48,32,48.91,55.35,84.6,64.91.03,0,.05.01.08.02,35.69,9.56,73.72,4.56,105.72-13.92,31.21-18.02,54.19-47.4,64.17-81.95h0ZM463.9,301.18c-5.32-18.26-22.35-17.75-22.7-17.74-93.68.29-185.88,0-185.88,0-12.12.29-20.21,8.32-22.7,17.74-1.59,6-2.52,9.38-3.74,13.94q-1.97,7.36-.09.34c-6.35,23.71-21.86,43.92-43.12,56.2s-46.52,15.6-70.23,9.25l-.08-.02c-23.71-6.35-43.92-21.86-56.2-43.12-12.27-21.26-15.6-46.52-9.25-70.23,12.88-48.06,27.89-104.1,40.77-152.16,6.35-23.71,21.86-43.92,43.12-56.2,21.26-12.27,46.52-15.6,70.23-9.25l.08.02c15.83,4.24,30.1,12.56,41.49,23.95,4.39,4.39,10.33,6.85,16.54,6.85h172.23c6.2,0,12.15-2.46,16.54-6.85,11.39-11.39,25.66-19.71,41.49-23.95l.08-.02c23.71-6.35,48.97-3.03,70.23,9.25,21.26,12.27,36.77,32.49,43.12,56.2,12.88,48.06,27.89,104.1,40.77,152.16,6.35,23.71,3.03,48.97-9.25,70.23-12.27,21.26-32.49,36.77-56.2,43.12l-.08.02c-23.71,6.35-48.97,3.03-70.23-9.25-21.05-12.15-36.46-32.09-42.93-55.5l-4.02-14.98h0ZM273.09,330.21h-.01l-.06.17-.49,1.12c.2-.42.39-.85.56-1.29ZM161.17,155.74h-23.22c-12.91,0-23.39,10.48-23.39,23.39s10.48,23.39,23.39,23.39h23.22v23.22c0,12.91,10.48,23.39,23.39,23.39s23.39-10.48,23.39-23.39v-23.22h23.22c12.91,0,23.39-10.48,23.39-23.39s-10.48-23.39-23.39-23.39h-23.22v-23.22c0-12.91-10.48-23.39-23.39-23.39s-23.39,10.48-23.39,23.39v23.22Z"/>
  <path class="st0" d="M487.38,224.37c0-13.66,11.09-24.75,24.75-24.75s24.75,11.09,24.75,24.75-11.09,24.75-24.75,24.75-24.75-11.09-24.75-24.75ZM557.37,154.38c13.66,0,24.75,11.09,24.75,24.75s-11.09,24.75-24.75,24.75-24.75-11.09-24.75-24.75,11.09-24.75,24.75-24.75h0ZM466.89,154.38c13.66,0,24.75,11.09,24.75,24.75s-11.09,24.75-24.75,24.75-24.75-11.09-24.75-24.75,11.09-24.75,24.75-24.75h0ZM487.38,133.89c0-13.66,11.09-24.75,24.75-24.75s24.75,11.09,24.75,24.75-11.09,24.75-24.75,24.75-24.75-11.09-24.75-24.75Z"/>
</svg>