<?xml version="1.0" encoding="UTF-8"?>
<svg id="Warstwa_1" xmlns="http://www.w3.org/2000/svg" version="1.1" viewBox="0 0 716.67 716.67">
  <!-- Generator: Adobe Illustrator 30.2.1, SVG Export Plug-In . SVG Version: 2.1.1 Build 1)  -->
  <defs>
    <style>
      .st0 {
        fill: #ffd039;
      }
    </style>
  </defs>
  <path class="st0" d="M252.57,148.19c19.9-35.7,34.28-61.49,48.42-79.95,11.36-14.87,29.7-34.63,57.34-34.63s45.98,19.76,57.36,34.62c14.14,18.47,28.52,44.26,48.42,79.95l9.9,17.76c9.03,16.2,14,25.11,18.69,28.67,4.39,3.33,12.81,5.34,31.45,9.55l19.22,4.35c38.73,8.76,66.71,15.1,88,23.49,17.01,6.71,40.59,18.71,48.92,45.52,8.22,26.44-3.9,50.27-13.72,65.88-12.44,19.76-31.48,42.03-57.83,72.84l-13.1,15.32c-12.88,15.05-18.64,21.95-20.42,27.67-1.8,5.8-1.01,14.98.94,35.19l1.98,20.44c3.98,41.08,6.85,70.75,5.81,94.3-.91,20.27-4.71,45.65-26.31,62.04-22.36,16.97-48.53,12.18-66.27,7.1-21.95-6.29-48.14-18.34-84.39-35.03l-18.01-8.29c-16.22-7.47-25.15-11.57-30.66-11.57s-14.44,4.11-30.64,11.56l-18.02,8.3c-36.26,16.69-62.45,28.75-84.39,35.04-8.4,2.4-18.69,4.75-29.56,4.75v-.02c-12.1,0-24.93-2.9-36.7-11.83-21.6-16.39-25.41-41.77-26.31-62.04-1.05-23.55,1.83-53.22,5.81-94.29l1.98-20.44c1.96-20.21,2.75-29.38.94-35.19-1.78-5.72-7.54-12.61-20.42-27.66l-13.1-15.32c-26.35-30.81-45.39-53.08-57.83-72.84-9.83-15.61-21.95-39.43-13.72-65.88,8.34-26.81,31.92-38.82,48.93-45.52,21.3-8.39,49.27-14.73,88-23.48l19.22-4.35c18.64-4.21,27.07-6.23,31.45-9.55,4.69-3.57,9.67-12.49,18.69-28.68l9.9-17.77Z"/>
</svg>