<?xml version="1.0" encoding="UTF-8"?>
<svg id="Warstwa_1" xmlns="http://www.w3.org/2000/svg" version="1.1" viewBox="0 0 716.67 716.67">
  <!-- Generator: Adobe Illustrator 30.2.1, SVG Export Plug-In . SVG Version: 2.1.1 Build 1)  -->
  <defs>
    <style>
      .st0 {
        fill: #bf8800;
      }
    </style>
  </defs>
  <path class="st0" d="M241.62,126.44c21.96-39.39,37.83-67.86,53.43-88.23C307.59,21.8,327.82,0,358.33,0s50.74,21.8,63.3,38.2c15.6,20.38,31.47,48.84,53.43,88.23l10.93,19.6c9.97,17.88,15.45,27.71,20.63,31.64,4.84,3.67,14.14,5.89,34.7,10.54l21.21,4.8c42.74,9.67,73.61,16.66,97.11,25.92,18.77,7.4,44.79,20.65,53.98,50.23,9.07,29.18-4.3,55.47-15.14,72.7-13.73,21.81-34.74,46.38-63.82,80.38l-14.46,16.91c-14.21,16.61-20.57,24.22-22.53,30.53-1.99,6.4-1.12,16.53,1.04,38.83l2.19,22.56c4.39,45.33,7.56,78.07,6.41,104.06-1,22.37-5.2,50.37-29.03,68.46-24.67,18.73-53.55,13.44-73.13,7.83-24.22-6.94-53.12-20.24-93.12-38.66l-19.87-9.15c-17.9-8.24-27.75-12.77-33.83-12.77s-15.93,4.53-33.81,12.76l-19.88,9.16c-40.01,18.42-68.91,31.73-93.13,38.67-9.27,2.65-20.62,5.24-32.62,5.24v-.02c-13.35,0-27.51-3.2-40.5-13.06-23.84-18.09-28.04-46.09-29.03-68.46-1.16-25.99,2.02-58.73,6.41-104.05l2.19-22.56c2.16-22.3,3.03-32.42,1.04-38.83-1.96-6.31-8.32-13.92-22.53-30.52l-14.46-16.91c-29.08-34-50.09-58.57-63.82-80.38-10.85-17.23-24.22-43.51-15.14-72.7,9.2-29.58,35.22-42.84,53.99-50.23,23.5-9.26,54.37-16.25,97.11-25.91l21.21-4.8c20.57-4.65,29.87-6.87,34.7-10.54,5.18-3.94,10.67-13.78,20.63-31.65l10.93-19.61h0ZM358.33,50c-16.88,0-40.44,42.27-73.05,100.78h0l-10.92,19.6c-13.25,23.77-20.54,36.86-34.07,47.13-13.67,10.38-28.81,13.8-53.9,19.48l-21.21,4.8c-39.04,8.83-69.87,15.81-89.81,23.67-21.43,8.44-23.55,15.28-24.57,18.56-1.53,4.92-1.81,12.91,9.71,31.21,11.79,18.72,32.84,43.35,59.51,74.52l14.46,16.91c17.52,20.49,27.17,31.77,32.27,48.17,5.07,16.3,3.62,31.29.98,58.49l-2.19,22.56c-6.82,70.41-11.33,116.92,3.09,127.87,2.59,1.96,6.15,2.88,10.64,2.88,19.09,0,54.97-16.52,104.46-39.31l19.87-9.15c23.52-10.83,37.7-17.36,54.74-17.36s31.22,6.53,54.71,17.35l19.89,9.16c61.14,28.15,101.52,46.75,115.12,36.43,14.42-10.94,9.91-57.45,3.09-127.85l-2.19-22.57c-2.63-27.21-4.08-42.19.98-58.49,5.1-16.41,14.75-27.69,32.27-48.17l14.47-16.92c26.66-31.18,47.72-55.8,59.51-74.52,11.52-18.3,11.24-26.29,9.71-31.21-1.02-3.28-3.15-10.12-24.57-18.56-19.93-7.86-50.77-14.83-89.8-23.66l-21.22-4.8c-25.09-5.68-40.23-9.1-53.9-19.48-13.52-10.26-20.81-23.34-34.05-47.09l-10.94-19.64c-32.62-58.51-56.18-100.78-73.06-100.78h-.03Z"/>
</svg>